<svg xmlns="http://www.w3.org/2000/svg" width="132.146" height="36.875" viewBox="0 0 132.146 36.875">
  <g id="Logo-Text" transform="translate(-358.044 -78.25)">
    <path id="Path_29144" data-name="Path 29144" d="M6.283-1.59H2.81L2.15.39H.044L3.622-9.222H5.458L9.056.39H6.95Zm-2.938-1.6h2.4L4.54-6.792Zm9.036.885L13.7-6.753h2.046L12.876,1.5l-.158.376a2.177,2.177,0,0,1-2.113,1.4,3,3,0,0,1-.845-.125V1.7l.29.007a1.57,1.57,0,0,0,.809-.165A1.084,1.084,0,0,0,11.279,1L11.5.41,9-6.753h2.053ZM20.995-.336a2.393,2.393,0,0,1-1.954.858,2.256,2.256,0,0,1-1.753-.66,2.818,2.818,0,0,1-.617-1.934V-6.753h1.908v4.615q0,1.116,1.017,1.116A1.378,1.378,0,0,0,20.929-1.7V-6.753h1.914V.39h-1.8Zm7.372-1.248a.615.615,0,0,0-.347-.551,3.937,3.937,0,0,0-1.112-.36Q24.36-3.03,24.36-4.66a1.963,1.963,0,0,1,.789-1.588,3.182,3.182,0,0,1,2.063-.637,3.425,3.425,0,0,1,2.175.64A2.018,2.018,0,0,1,30.2-4.581H28.295a.923.923,0,0,0-.264-.677,1.117,1.117,0,0,0-.825-.267,1.142,1.142,0,0,0-.746.218.688.688,0,0,0-.264.555.588.588,0,0,0,.3.512,3.09,3.09,0,0,0,1.013.337,8.277,8.277,0,0,1,1.2.32,1.974,1.974,0,0,1,1.512,1.921,1.863,1.863,0,0,1-.838,1.581,3.617,3.617,0,0,1-2.165.6A3.777,3.777,0,0,1,25.624.2a2.675,2.675,0,0,1-1.093-.878,2.04,2.04,0,0,1-.4-1.2h1.809a1,1,0,0,0,.376.779,1.493,1.493,0,0,0,.937.271,1.381,1.381,0,0,0,.828-.208A.647.647,0,0,0,28.367-1.584Zm5.161-4.39a2.381,2.381,0,0,1,1.908-.911q2.324,0,2.357,2.7V.39H35.885V-4.132a1.327,1.327,0,0,0-.264-.908,1.132,1.132,0,0,0-.878-.294,1.3,1.3,0,0,0-1.215.647V.39H31.62V-9.75h1.908Zm7.709-.779.059.8a2.51,2.51,0,0,1,2.053-.931A1.905,1.905,0,0,1,45.244-5.8,2.453,2.453,0,0,1,47.39-6.885a2.13,2.13,0,0,1,1.73.677,3.11,3.11,0,0,1,.568,2.037V.39H47.773V-4.165a1.36,1.36,0,0,0-.238-.888,1.053,1.053,0,0,0-.838-.281,1.191,1.191,0,0,0-1.188.819l.007,4.9H43.607V-4.158a1.344,1.344,0,0,0-.244-.9,1.063,1.063,0,0,0-.832-.277,1.236,1.236,0,0,0-1.175.673V.39H39.448V-6.753ZM55.508.39a2.119,2.119,0,0,1-.191-.64,2.308,2.308,0,0,1-1.8.772,2.536,2.536,0,0,1-1.74-.607,1.953,1.953,0,0,1-.69-1.532,2.019,2.019,0,0,1,.842-1.743,4.153,4.153,0,0,1,2.433-.614h.878v-.409a1.177,1.177,0,0,0-.254-.792,1,1,0,0,0-.8-.3,1.137,1.137,0,0,0-.756.231.785.785,0,0,0-.274.634H51.244a1.916,1.916,0,0,1,.383-1.149,2.531,2.531,0,0,1,1.083-.828,3.946,3.946,0,0,1,1.571-.3,3.117,3.117,0,0,1,2.1.663,2.321,2.321,0,0,1,.776,1.865v3.1A3.415,3.415,0,0,0,57.436.278V.39ZM53.931-.937a1.643,1.643,0,0,0,.779-.188,1.236,1.236,0,0,0,.528-.505V-2.858h-.713q-1.433,0-1.525.99l-.007.112a.764.764,0,0,0,.251.588A.974.974,0,0,0,53.931-.937ZM60.59-6.753l.059.825A2.494,2.494,0,0,1,62.7-6.885a2.073,2.073,0,0,1,1.69.667,3.111,3.111,0,0,1,.568,1.994V.39H63.052V-4.178a1.238,1.238,0,0,0-.264-.881,1.182,1.182,0,0,0-.878-.274,1.313,1.313,0,0,0-1.208.687V.39H58.794V-6.753ZM70.331.39V-9.222H73.7a4.421,4.421,0,0,1,2.654.67,2.291,2.291,0,0,1,.9,1.964,2.172,2.172,0,0,1-.363,1.244,2.1,2.1,0,0,1-1.01.789,2.029,2.029,0,0,1,1.165.746,2.205,2.205,0,0,1,.426,1.373,2.537,2.537,0,0,1-.885,2.1A3.982,3.982,0,0,1,74.067.39ZM72.311-3.8V-1.2h1.7A1.637,1.637,0,0,0,75.1-1.534a1.143,1.143,0,0,0,.393-.921A1.207,1.207,0,0,0,74.127-3.8Zm0-1.4h1.466q1.5-.026,1.5-1.195a1.1,1.1,0,0,0-.38-.941,2,2,0,0,0-1.2-.287H72.311Zm8.6-.779a2.381,2.381,0,0,1,1.908-.911q2.324,0,2.357,2.7V.39H83.268V-4.132A1.327,1.327,0,0,0,83-5.04a1.132,1.132,0,0,0-.878-.294,1.3,1.3,0,0,0-1.215.647V.39H79V-9.75h1.908ZM90.971.39a2.119,2.119,0,0,1-.191-.64,2.308,2.308,0,0,1-1.8.772,2.536,2.536,0,0,1-1.74-.607,1.953,1.953,0,0,1-.69-1.532A2.019,2.019,0,0,1,87.39-3.36a4.153,4.153,0,0,1,2.433-.614H90.7v-.409a1.177,1.177,0,0,0-.254-.792,1,1,0,0,0-.8-.3,1.137,1.137,0,0,0-.756.231.785.785,0,0,0-.274.634H86.706a1.916,1.916,0,0,1,.383-1.149,2.531,2.531,0,0,1,1.083-.828,3.946,3.946,0,0,1,1.571-.3,3.117,3.117,0,0,1,2.1.663,2.321,2.321,0,0,1,.776,1.865v3.1A3.415,3.415,0,0,0,92.9.278V.39ZM89.393-.937a1.643,1.643,0,0,0,.779-.188A1.236,1.236,0,0,0,90.7-1.63V-2.858h-.713q-1.433,0-1.525.99l-.007.112a.764.764,0,0,0,.251.588A.974.974,0,0,0,89.393-.937ZM98.31-4.964a5.183,5.183,0,0,0-.687-.053,1.4,1.4,0,0,0-1.419.733V.39H94.3V-6.753h1.8l.053.852a1.768,1.768,0,0,1,1.591-.984,2,2,0,0,1,.594.086ZM103.386.39a2.119,2.119,0,0,1-.191-.64,2.308,2.308,0,0,1-1.8.772,2.536,2.536,0,0,1-1.74-.607,1.953,1.953,0,0,1-.69-1.532A2.019,2.019,0,0,1,99.8-3.36a4.153,4.153,0,0,1,2.433-.614h.878v-.409a1.177,1.177,0,0,0-.254-.792,1,1,0,0,0-.8-.3,1.137,1.137,0,0,0-.756.231.785.785,0,0,0-.274.634H99.121A1.916,1.916,0,0,1,99.5-5.756a2.531,2.531,0,0,1,1.083-.828,3.946,3.946,0,0,1,1.571-.3,3.117,3.117,0,0,1,2.1.663,2.321,2.321,0,0,1,.776,1.865v3.1a3.415,3.415,0,0,0,.284,1.538V.39ZM101.808-.937a1.643,1.643,0,0,0,.779-.188,1.236,1.236,0,0,0,.528-.505V-2.858H102.4q-1.433,0-1.525.99l-.007.112a.764.764,0,0,0,.251.588A.974.974,0,0,0,101.808-.937ZM109-8.509v1.756h1.221v1.4H109v3.565a.851.851,0,0,0,.152.568.763.763,0,0,0,.581.172,3.043,3.043,0,0,0,.561-.046V.35a3.928,3.928,0,0,1-1.155.172A1.822,1.822,0,0,1,107.087-1.5V-5.353h-1.043v-1.4h1.043V-8.509Z" transform="translate(358 88)" fill="#2b2a29"/>
    <path id="Path_29143" data-name="Path 29143" d="M.825.39V-9.222H3.783a4.491,4.491,0,0,1,2.268.571A3.982,3.982,0,0,1,7.612-7.027a5.009,5.009,0,0,1,.561,2.393v.442a5.023,5.023,0,0,1-.551,2.383A3.948,3.948,0,0,1,6.067-.191,4.525,4.525,0,0,1,3.8.39Zm1.98-8.008V-1.2h.957A2.151,2.151,0,0,0,5.539-1.96a3.431,3.431,0,0,0,.627-2.172V-4.64a3.485,3.485,0,0,0-.607-2.221,2.143,2.143,0,0,0-1.776-.756ZM11.5.39H9.585V-6.753H11.5ZM9.473-8.6a.939.939,0,0,1,.287-.706,1.079,1.079,0,0,1,.782-.277,1.081,1.081,0,0,1,.779.277.934.934,0,0,1,.29.706.937.937,0,0,1-.294.713,1.084,1.084,0,0,1-.776.277,1.084,1.084,0,0,1-.776-.277A.937.937,0,0,1,9.473-8.6Zm3.321,5.367a4.186,4.186,0,0,1,.782-2.647,2.535,2.535,0,0,1,2.109-1,2.223,2.223,0,0,1,1.829.805l.079-.673h1.73V.152A3.053,3.053,0,0,1,18.9,1.783a2.735,2.735,0,0,1-1.2,1.056A4.212,4.212,0,0,1,15.89,3.2a3.917,3.917,0,0,1-1.532-.314A2.718,2.718,0,0,1,13.23,2.08L14.075.918a2.235,2.235,0,0,0,1.73.8,1.636,1.636,0,0,0,1.182-.406A1.523,1.523,0,0,0,17.408.159V-.224a2.207,2.207,0,0,1-1.736.746A2.528,2.528,0,0,1,13.589-.485a4.185,4.185,0,0,1-.8-2.67ZM14.7-3.1a2.6,2.6,0,0,0,.389,1.522,1.24,1.24,0,0,0,1.069.551,1.325,1.325,0,0,0,1.248-.654v-3a1.322,1.322,0,0,0-1.234-.654,1.247,1.247,0,0,0-1.079.561A2.93,2.93,0,0,0,14.7-3.1ZM22.8.39H20.887V-6.753H22.8ZM20.775-8.6a.939.939,0,0,1,.287-.706,1.079,1.079,0,0,1,.782-.277,1.081,1.081,0,0,1,.779.277.934.934,0,0,1,.29.706.937.937,0,0,1-.294.713,1.084,1.084,0,0,1-.776.277,1.084,1.084,0,0,1-.776-.277A.937.937,0,0,1,20.775-8.6Zm5.882.092v1.756h1.221v1.4H26.657v3.565a.851.851,0,0,0,.152.568.763.763,0,0,0,.581.172,3.043,3.043,0,0,0,.561-.046V.35A3.928,3.928,0,0,1,26.8.522,1.822,1.822,0,0,1,24.749-1.5V-5.353H23.706v-1.4h1.043V-8.509ZM33.081.39a2.119,2.119,0,0,1-.191-.64,2.308,2.308,0,0,1-1.8.772,2.536,2.536,0,0,1-1.74-.607,1.953,1.953,0,0,1-.69-1.532A2.019,2.019,0,0,1,29.5-3.36a4.153,4.153,0,0,1,2.433-.614h.878v-.409a1.177,1.177,0,0,0-.254-.792,1,1,0,0,0-.8-.3A1.137,1.137,0,0,0,31-5.241a.785.785,0,0,0-.274.634H28.816A1.916,1.916,0,0,1,29.2-5.756a2.531,2.531,0,0,1,1.083-.828,3.946,3.946,0,0,1,1.571-.3,3.117,3.117,0,0,1,2.1.663,2.321,2.321,0,0,1,.776,1.865v3.1A3.415,3.415,0,0,0,35.008.278V.39ZM31.5-.937a1.643,1.643,0,0,0,.779-.188,1.236,1.236,0,0,0,.528-.505V-2.858H32.1q-1.433,0-1.525.99l-.007.112a.764.764,0,0,0,.251.588A.974.974,0,0,0,31.5-.937ZM38.2.39H36.289V-9.75H38.2Zm7.651-9.612,2.469,6.971,2.456-6.971h2.6V.39H51.393V-2.237l.2-4.535L49,.39h-1.36L45.049-6.766l.2,4.529V.39h-1.98V-9.222ZM57,.39H55.084V-6.753H57ZM54.971-8.6a.939.939,0,0,1,.287-.706,1.079,1.079,0,0,1,.782-.277,1.081,1.081,0,0,1,.779.277.934.934,0,0,1,.29.706.937.937,0,0,1-.294.713,1.084,1.084,0,0,1-.776.277,1.084,1.084,0,0,1-.776-.277A.937.937,0,0,1,54.971-8.6Zm7.466,7.017a.615.615,0,0,0-.347-.551,3.937,3.937,0,0,0-1.112-.36Q58.431-3.03,58.431-4.66a1.963,1.963,0,0,1,.789-1.588,3.182,3.182,0,0,1,2.063-.637,3.425,3.425,0,0,1,2.175.64,2.018,2.018,0,0,1,.815,1.664H62.365a.923.923,0,0,0-.264-.677,1.117,1.117,0,0,0-.825-.267,1.142,1.142,0,0,0-.746.218.688.688,0,0,0-.264.555.588.588,0,0,0,.3.512A3.09,3.09,0,0,0,61.58-3.9a8.277,8.277,0,0,1,1.2.32,1.974,1.974,0,0,1,1.512,1.921,1.863,1.863,0,0,1-.838,1.581,3.617,3.617,0,0,1-2.165.6A3.778,3.778,0,0,1,59.695.2,2.675,2.675,0,0,1,58.6-.676a2.04,2.04,0,0,1-.4-1.2h1.809a1,1,0,0,0,.376.779,1.493,1.493,0,0,0,.937.271,1.381,1.381,0,0,0,.828-.208A.647.647,0,0,0,62.438-1.584Zm6.951,0a.615.615,0,0,0-.347-.551,3.937,3.937,0,0,0-1.112-.36Q65.382-3.03,65.382-4.66a1.963,1.963,0,0,1,.789-1.588,3.182,3.182,0,0,1,2.063-.637,3.425,3.425,0,0,1,2.175.64,2.018,2.018,0,0,1,.815,1.664H69.317a.923.923,0,0,0-.264-.677,1.117,1.117,0,0,0-.825-.267,1.142,1.142,0,0,0-.746.218.688.688,0,0,0-.264.555.588.588,0,0,0,.3.512,3.09,3.09,0,0,0,1.013.337,8.277,8.277,0,0,1,1.2.32,1.974,1.974,0,0,1,1.512,1.921,1.863,1.863,0,0,1-.838,1.581,3.617,3.617,0,0,1-2.165.6A3.778,3.778,0,0,1,66.646.2a2.675,2.675,0,0,1-1.093-.878,2.04,2.04,0,0,1-.4-1.2h1.809a1,1,0,0,0,.376.779,1.493,1.493,0,0,0,.937.271,1.381,1.381,0,0,0,.828-.208A.647.647,0,0,0,69.389-1.584ZM74.486.39H72.571V-6.753h1.914ZM72.459-8.6a.939.939,0,0,1,.287-.706,1.079,1.079,0,0,1,.782-.277,1.081,1.081,0,0,1,.779.277.934.934,0,0,1,.29.706.937.937,0,0,1-.294.713,1.084,1.084,0,0,1-.776.277,1.084,1.084,0,0,1-.776-.277A.937.937,0,0,1,72.459-8.6Zm3.3,5.354a4.236,4.236,0,0,1,.409-1.895,3,3,0,0,1,1.178-1.287,3.438,3.438,0,0,1,1.786-.456A3.253,3.253,0,0,1,81.493-6a3.55,3.55,0,0,1,1.02,2.4l.013.489a3.733,3.733,0,0,1-.918,2.637,3.19,3.19,0,0,1-2.462.994,3.206,3.206,0,0,1-2.466-.99,3.8,3.8,0,0,1-.921-2.693Zm1.908.139a2.663,2.663,0,0,0,.383,1.555,1.264,1.264,0,0,0,1.1.538,1.267,1.267,0,0,0,1.083-.531,2.914,2.914,0,0,0,.389-1.7,2.636,2.636,0,0,0-.389-1.545,1.267,1.267,0,0,0-1.1-.548,1.246,1.246,0,0,0-1.083.545A2.963,2.963,0,0,0,77.668-3.109Zm7.79-3.644.059.825a2.494,2.494,0,0,1,2.053-.957,2.073,2.073,0,0,1,1.69.667,3.111,3.111,0,0,1,.568,1.994V.39H87.92V-4.178a1.238,1.238,0,0,0-.264-.881,1.182,1.182,0,0,0-.878-.274,1.313,1.313,0,0,0-1.208.687V.39H83.662V-6.753Z" transform="translate(358.031 102.56)" fill="#e14124"/>
    <path id="Path_29142" data-name="Path 29142" d="M.578.24V-5.675H2.605a2.475,2.475,0,0,1,1.528.4,1.417,1.417,0,0,1,.524,1.2,1.277,1.277,0,0,1-.219.731,1.412,1.412,0,0,1-.642.5,1.306,1.306,0,0,1,.741.49,1.426,1.426,0,0,1,.262.863,1.575,1.575,0,0,1-.534,1.28A2.323,2.323,0,0,1,2.735.24ZM1.606-2.429V-.581H2.748A1.1,1.1,0,0,0,3.5-.82a.841.841,0,0,0,.272-.666.844.844,0,0,0-.943-.943Zm0-.756H2.613a1.165,1.165,0,0,0,.75-.217.745.745,0,0,0,.27-.615.755.755,0,0,0-.25-.634,1.262,1.262,0,0,0-.778-.2h-1ZM8.619-.191A1.531,1.531,0,0,1,7.384.321,1.365,1.365,0,0,1,6.3-.1a1.78,1.78,0,0,1-.368-1.211V-4.156h.987V-1.32q0,.837.695.837A.976.976,0,0,0,8.587-1V-4.156h.987V.24h-.93ZM11.854.24h-.987v-4.4h.987ZM10.806-5.3a.524.524,0,0,1,.144-.378.545.545,0,0,1,.412-.15.552.552,0,0,1,.414.15.52.52,0,0,1,.146.378.508.508,0,0,1-.146.372.556.556,0,0,1-.414.148.549.549,0,0,1-.412-.148A.512.512,0,0,1,10.806-5.3ZM14.2.24h-.987V-6H14.2Zm1.114-2.23a2.613,2.613,0,0,1,.471-1.631,1.51,1.51,0,0,1,1.263-.615,1.435,1.435,0,0,1,1.129.488V-6h.987V.24h-.894l-.049-.455a1.455,1.455,0,0,1-1.182.536A1.5,1.5,0,0,1,15.8-.3,2.709,2.709,0,0,1,15.318-1.99ZM16.3-1.9a1.83,1.83,0,0,0,.258,1.046.837.837,0,0,0,.733.376.932.932,0,0,0,.886-.54V-2.9a.918.918,0,0,0-.878-.528.843.843,0,0,0-.739.38A2.038,2.038,0,0,0,16.3-1.9ZM21.474.24h-.987v-4.4h.987ZM20.425-5.3a.524.524,0,0,1,.144-.378.545.545,0,0,1,.412-.15.552.552,0,0,1,.414.15.52.52,0,0,1,.146.378.508.508,0,0,1-.146.372.556.556,0,0,1-.414.148.549.549,0,0,1-.412-.148A.512.512,0,0,1,20.425-5.3Zm3.263,1.142.028.508A1.58,1.58,0,0,1,25-4.237q1.373,0,1.4,1.572V.24h-.987V-2.608a.905.905,0,0,0-.181-.62.76.76,0,0,0-.591-.2.951.951,0,0,0-.89.54V.24h-.987v-4.4ZM27.452-1.99a2.571,2.571,0,0,1,.481-1.635,1.545,1.545,0,0,1,1.278-.611,1.447,1.447,0,0,1,1.182.524l.045-.443h.89V.106a1.771,1.771,0,0,1-.538,1.365,2.05,2.05,0,0,1-1.452.5,2.341,2.341,0,0,1-.945-.2,1.678,1.678,0,0,1-.7-.526L28.159.65a1.411,1.411,0,0,0,1.121.54,1.09,1.09,0,0,0,.776-.266A1.02,1.02,0,0,0,30.34.143v-.3A1.453,1.453,0,0,1,29.2.321a1.541,1.541,0,0,1-1.261-.613A2.654,2.654,0,0,1,27.452-1.99Zm.983.085a1.77,1.77,0,0,0,.27,1.042.869.869,0,0,0,.75.38.95.95,0,0,0,.886-.512V-2.929a.936.936,0,0,0-.878-.5.872.872,0,0,0-.758.386A1.982,1.982,0,0,0,28.435-1.9ZM34.958.24V-5.675H36.7a2.74,2.74,0,0,1,1.391.349,2.382,2.382,0,0,1,.94.991,3.147,3.147,0,0,1,.333,1.471v.3a3.134,3.134,0,0,1-.335,1.479,2.354,2.354,0,0,1-.955.983A2.867,2.867,0,0,1,36.66.24Zm1.028-5.086V-.581h.67A1.543,1.543,0,0,0,37.9-1.086a2.2,2.2,0,0,0,.441-1.452v-.329a2.261,2.261,0,0,0-.418-1.471A1.483,1.483,0,0,0,36.7-4.846ZM41.573.24h-.987v-4.4h.987ZM40.525-5.3a.524.524,0,0,1,.144-.378.545.545,0,0,1,.412-.15.552.552,0,0,1,.414.15.52.52,0,0,1,.146.378.508.508,0,0,1-.146.372.556.556,0,0,1-.414.148.549.549,0,0,1-.412-.148A.512.512,0,0,1,40.525-5.3ZM42.7-1.99a2.571,2.571,0,0,1,.481-1.635,1.545,1.545,0,0,1,1.278-.611,1.447,1.447,0,0,1,1.182.524l.045-.443h.89V.106a1.771,1.771,0,0,1-.538,1.365,2.05,2.05,0,0,1-1.452.5,2.341,2.341,0,0,1-.945-.2,1.678,1.678,0,0,1-.7-.526L43.406.65a1.411,1.411,0,0,0,1.121.54A1.09,1.09,0,0,0,45.3.925a1.02,1.02,0,0,0,.284-.782v-.3A1.453,1.453,0,0,1,44.45.321a1.541,1.541,0,0,1-1.261-.613A2.654,2.654,0,0,1,42.7-1.99Zm.983.085a1.77,1.77,0,0,0,.27,1.042.869.869,0,0,0,.75.38.95.95,0,0,0,.886-.512V-2.929a.936.936,0,0,0-.878-.5.872.872,0,0,0-.758.386A1.982,1.982,0,0,0,43.682-1.9ZM48.863.24h-.987v-4.4h.987ZM47.815-5.3a.524.524,0,0,1,.144-.378.545.545,0,0,1,.412-.15.552.552,0,0,1,.414.15.52.52,0,0,1,.146.378.508.508,0,0,1-.146.372.556.556,0,0,1-.414.148.549.549,0,0,1-.412-.148A.512.512,0,0,1,47.815-5.3Zm3.584.073v1.068h.776v.731H51.4V-.971a.54.54,0,0,0,.1.364.462.462,0,0,0,.355.112A1.521,1.521,0,0,0,52.2-.536V.228a2.431,2.431,0,0,1-.65.093q-1.138,0-1.138-1.255v-2.49h-.723v-.731h.723V-5.224ZM55.78.24a1.524,1.524,0,0,1-.114-.41,1.537,1.537,0,0,1-1.154.492,1.551,1.551,0,0,1-1.081-.378,1.209,1.209,0,0,1-.418-.934,1.248,1.248,0,0,1,.522-1.079,2.53,2.53,0,0,1,1.493-.376h.605v-.288a.77.77,0,0,0-.191-.546.757.757,0,0,0-.581-.205.87.87,0,0,0-.553.169.522.522,0,0,0-.215.429h-.987a1.1,1.1,0,0,1,.24-.676A1.6,1.6,0,0,1,54-4.058a2.29,2.29,0,0,1,.92-.179,1.844,1.844,0,0,1,1.231.388,1.384,1.384,0,0,1,.471,1.091V-.776a2.247,2.247,0,0,0,.167.947V.24ZM54.7-.471a1.123,1.123,0,0,0,.55-.142.95.95,0,0,0,.388-.382v-.829H55.1a1.455,1.455,0,0,0-.825.191.619.619,0,0,0-.276.54.577.577,0,0,0,.189.453A.732.732,0,0,0,54.7-.471ZM58.93.24h-.987V-6h.987Zm8.387,0H66.293V-2.388H63.649V.24H62.621V-5.675h1.028v2.462h2.645V-5.675h1.024ZM70.6.321A2.042,2.042,0,0,1,69.075-.27a2.144,2.144,0,0,1-.583-1.574v-.122a2.638,2.638,0,0,1,.254-1.176,1.932,1.932,0,0,1,.713-.806,1.885,1.885,0,0,1,1.024-.288,1.725,1.725,0,0,1,1.387.573,2.422,2.422,0,0,1,.49,1.621v.4H69.488a1.32,1.32,0,0,0,.364.861,1.092,1.092,0,0,0,.8.317,1.337,1.337,0,0,0,1.105-.548l.532.508a1.777,1.777,0,0,1-.7.611A2.207,2.207,0,0,1,70.6.321Zm-.118-3.766a.831.831,0,0,0-.656.284,1.474,1.474,0,0,0-.319.792h1.881v-.073a1.2,1.2,0,0,0-.264-.75A.825.825,0,0,0,70.479-3.445ZM75.977.24a1.523,1.523,0,0,1-.114-.41,1.537,1.537,0,0,1-1.154.492,1.551,1.551,0,0,1-1.081-.378,1.209,1.209,0,0,1-.418-.934,1.248,1.248,0,0,1,.522-1.079,2.53,2.53,0,0,1,1.493-.376h.605v-.288a.77.77,0,0,0-.191-.546.757.757,0,0,0-.581-.205.87.87,0,0,0-.553.169.522.522,0,0,0-.215.429H73.3a1.1,1.1,0,0,1,.24-.676,1.6,1.6,0,0,1,.652-.494,2.29,2.29,0,0,1,.92-.179,1.844,1.844,0,0,1,1.231.388,1.383,1.383,0,0,1,.471,1.091V-.776a2.247,2.247,0,0,0,.167.947V.24ZM74.892-.471a1.123,1.123,0,0,0,.55-.142.95.95,0,0,0,.388-.382v-.829H75.3a1.455,1.455,0,0,0-.825.191.619.619,0,0,0-.276.54.577.577,0,0,0,.189.453A.732.732,0,0,0,74.892-.471ZM79.126.24h-.987V-6h.987Zm2.536-5.464v1.068h.776v.731h-.776V-.971a.54.54,0,0,0,.1.364.461.461,0,0,0,.355.112,1.521,1.521,0,0,0,.345-.041V.228a2.431,2.431,0,0,1-.65.093q-1.138,0-1.138-1.255v-2.49h-.723v-.731h.723V-5.224ZM84.39-3.676a1.545,1.545,0,0,1,1.223-.561q1.406,0,1.426,1.6V.24h-.987V-2.6a.868.868,0,0,0-.2-.644.805.805,0,0,0-.579-.189.951.951,0,0,0-.886.528V.24H83.4V-6h.987ZM94.11-2.4H91.68v1.82h2.84V.24H90.653V-5.675h3.839v.829H91.68v1.633H94.11Zm3.1,1.934a.893.893,0,0,0,.613-.215.736.736,0,0,0,.26-.532h.93a1.45,1.45,0,0,1-.256.766,1.679,1.679,0,0,1-.65.563,1.937,1.937,0,0,1-.886.207,1.874,1.874,0,0,1-1.463-.6,2.369,2.369,0,0,1-.54-1.649v-.1a2.329,2.329,0,0,1,.536-1.607,1.857,1.857,0,0,1,1.463-.6A1.806,1.806,0,0,1,98.5-3.78a1.637,1.637,0,0,1,.518,1.2h-.93A.9.9,0,0,0,97.83-3.2a.83.83,0,0,0-.615-.244.869.869,0,0,0-.739.347,1.772,1.772,0,0,0-.264,1.054v.158a1.8,1.8,0,0,0,.258,1.066A.868.868,0,0,0,97.215-.467ZM99.8-2a2.592,2.592,0,0,1,.256-1.164,1.869,1.869,0,0,1,.719-.8,2.026,2.026,0,0,1,1.064-.278,1.92,1.92,0,0,1,1.444.573,2.253,2.253,0,0,1,.6,1.519l0,.232a2.615,2.615,0,0,1-.25,1.162,1.847,1.847,0,0,1-.715.792,2.041,2.041,0,0,1-1.075.28,1.907,1.907,0,0,1-1.489-.62A2.373,2.373,0,0,1,99.8-1.95Zm.987.085a1.771,1.771,0,0,0,.28,1.062.911.911,0,0,0,.78.384.9.9,0,0,0,.778-.39A1.956,1.956,0,0,0,102.908-2a1.748,1.748,0,0,0-.286-1.056.915.915,0,0,0-.778-.39.906.906,0,0,0-.768.384A1.919,1.919,0,0,0,100.791-1.913Zm6.623.959a.448.448,0,0,0-.217-.4,2.312,2.312,0,0,0-.721-.244,3.707,3.707,0,0,1-.841-.268A1.122,1.122,0,0,1,104.9-2.9a1.17,1.17,0,0,1,.479-.951,1.9,1.9,0,0,1,1.219-.382,1.972,1.972,0,0,1,1.274.39,1.238,1.238,0,0,1,.485,1.012h-.987a.608.608,0,0,0-.211-.473.81.81,0,0,0-.561-.189.875.875,0,0,0-.53.15.474.474,0,0,0-.205.4.4.4,0,0,0,.191.353,2.626,2.626,0,0,0,.772.254,3.654,3.654,0,0,1,.912.3,1.292,1.292,0,0,1,.492.425,1.083,1.083,0,0,1,.16.6,1.145,1.145,0,0,1-.492.961,2.1,2.1,0,0,1-1.288.368,2.273,2.273,0,0,1-.963-.2,1.585,1.585,0,0,1-.658-.536,1.269,1.269,0,0,1-.236-.735h.959a.7.7,0,0,0,.264.538,1.026,1.026,0,0,0,.646.189,1,1,0,0,0,.593-.148A.459.459,0,0,0,107.414-.954Zm3.592-.219.894-2.982h1.052L111.206.906a1.42,1.42,0,0,1-1.365,1.109,1.768,1.768,0,0,1-.475-.073V1.178l.187.012a.961.961,0,0,0,.563-.136.9.9,0,0,0,.3-.457l.142-.378-1.544-4.375h1.064Zm5.2.219a.448.448,0,0,0-.217-.4,2.312,2.312,0,0,0-.721-.244,3.707,3.707,0,0,1-.841-.268,1.122,1.122,0,0,1-.739-1.036,1.17,1.17,0,0,1,.479-.951,1.9,1.9,0,0,1,1.219-.382,1.972,1.972,0,0,1,1.274.39,1.238,1.238,0,0,1,.485,1.012h-.987a.608.608,0,0,0-.211-.473.81.81,0,0,0-.561-.189.875.875,0,0,0-.53.15.474.474,0,0,0-.205.4.4.4,0,0,0,.191.353,2.626,2.626,0,0,0,.772.254,3.654,3.654,0,0,1,.912.3,1.291,1.291,0,0,1,.492.425,1.083,1.083,0,0,1,.16.6,1.145,1.145,0,0,1-.492.961A2.1,2.1,0,0,1,115.4.321a2.273,2.273,0,0,1-.963-.2,1.585,1.585,0,0,1-.658-.536,1.269,1.269,0,0,1-.236-.735h.959a.7.7,0,0,0,.264.538,1.026,1.026,0,0,0,.646.189A1,1,0,0,0,116-.566.459.459,0,0,0,116.208-.954Zm3.292-4.27v1.068h.776v.731H119.5V-.971a.54.54,0,0,0,.1.364.462.462,0,0,0,.355.112,1.521,1.521,0,0,0,.345-.041V.228a2.431,2.431,0,0,1-.65.093q-1.137,0-1.138-1.255v-2.49h-.723v-.731h.723V-5.224ZM123.19.321a2.042,2.042,0,0,1-1.521-.591,2.144,2.144,0,0,1-.583-1.574v-.122a2.638,2.638,0,0,1,.254-1.176,1.933,1.933,0,0,1,.713-.806,1.885,1.885,0,0,1,1.024-.288,1.725,1.725,0,0,1,1.387.573,2.422,2.422,0,0,1,.49,1.621v.4H122.08a1.32,1.32,0,0,0,.364.861,1.092,1.092,0,0,0,.8.317,1.337,1.337,0,0,0,1.105-.548l.532.508a1.777,1.777,0,0,1-.7.611A2.207,2.207,0,0,1,123.19.321Zm-.118-3.766a.831.831,0,0,0-.656.284,1.474,1.474,0,0,0-.319.792h1.881v-.073a1.2,1.2,0,0,0-.264-.75A.825.825,0,0,0,123.072-3.445Zm3.8-.711.028.459a1.582,1.582,0,0,1,1.267-.54,1.215,1.215,0,0,1,1.207.674,1.559,1.559,0,0,1,1.349-.674,1.37,1.37,0,0,1,1.083.4,1.771,1.771,0,0,1,.364,1.186V.24h-.987V-2.62A.874.874,0,0,0,131-3.233a.8.8,0,0,0-.605-.2.822.822,0,0,0-.55.181.953.953,0,0,0-.3.473l0,3.014h-.987V-2.652a.7.7,0,0,0-.792-.776.869.869,0,0,0-.841.483V.24h-.987v-4.4Z" transform="translate(358.021 113.11)" fill="#29298c"/>
  </g>
</svg>
