<?xml version="1.0" encoding="utf-8"?>
<!-- Generator: Adobe Illustrator 27.5.0, SVG Export Plug-In . SVG Version: 6.00 Build 0)  -->
<svg version="1.1" xmlns="http://www.w3.org/2000/svg" xmlns:xlink="http://www.w3.org/1999/xlink" x="0px" y="0px"
	 viewBox="0 0 4500 2500" style="enable-background:new 0 0 4500 2500;" xml:space="preserve">
<!-- <g id="Layer_1">
	<g>
		<rect x="0.001" y="-0.001" style="fill:#F8F9FB;" width="4500" height="2500"/>
		<g>
			<path style="fill:#6D89D0;" d="M299.241,135.468v34.878h20.942v14.15h-37.124v-49.028H299.241z"/>
			<path style="fill:#6D89D0;" d="M349.436,134.419c17.509,0,26.26,11.904,26.26,25.561s-8.751,25.566-26.26,25.566
				c-17.51,0-26.265-11.909-26.265-25.566S331.926,134.419,349.436,134.419z M349.436,146.323c-8.477,0-12.959,5.814-12.959,13.657
				c0,7.846,4.482,13.657,12.959,13.657c8.471,0,12.955-5.811,12.955-13.657C362.391,152.138,357.907,146.323,349.436,146.323z"/>
			<path style="fill:#6D89D0;" d="M407.112,134.486c5.253,0,10.508,1.124,15.059,3.154v10.015
				c-3.711-2.451-8.681-3.784-13.657-3.784c-8.754,0-17.369,4.624-17.369,16.109c0,13.027,9.596,16.323,16.807,16.323
				c2.105,0,3.925-0.352,5.395-0.913v-17.51h10.016v24.303c-4.903,2.104-10.504,3.295-15.967,3.295
				c-13.73,0-26.963-7.494-26.963-25.497C380.432,142.191,393.665,134.486,407.112,134.486z"/>
			<path style="fill:#6D89D0;" d="M455.554,134.56c17.226,0,25.771,12.466,25.771,25.421c0,12.958-8.545,25.424-25.771,25.424
				c-17.3,0-25.776-12.466-25.776-25.424C429.778,147.026,438.254,134.56,455.554,134.56z M455.554,142.051
				c-11.836,0-17.651,8.545-17.651,17.93c0,9.389,5.815,17.929,17.651,17.929c11.904,0,17.647-8.54,17.647-17.929
				C473.201,150.596,467.458,142.051,455.554,142.051z"/>
			<path style="fill:#6D89D0;" d="M525.417,135.468v5.606h-17.226v43.422h-5.884v-43.422h-17.232v-5.606H525.417z"/>
			<path style="fill:#6D89D0;" d="M546.829,184.497v-19.121l-19.262-29.907h4.624l16.738,26.123l16.738-26.123h4.624l-19.263,29.907
				v19.121H546.829z"/>
			<path style="fill:#6D89D0;" d="M594.148,135.468c10.924,0,20.522,3.432,20.522,15.337c0,11.977-9.599,15.41-20.522,15.41h-12.817
				v18.281h-2.803v-49.028H594.148z M594.29,138.129h-12.959v25.425h12.959c9.453,0,17.578-2.661,17.578-12.749
				C611.867,140.79,603.811,138.129,594.29,138.129z"/>
			<path style="fill:#6D89D0;" d="M656.389,135.468v1.68h-30.117v21.856h28.012v1.679h-28.012v22.134h30.742v1.68H624.52v-49.028
				H656.389z"/>
		</g>
		<g>
			<rect x="279.348" y="1135.839" style="fill:#030631;" width="750" height="5"/>
		</g>
		<g>
			<path style="fill:#030631;" d="M467.604,658.215l-38.871,125.984h-29.336l-25.019-85.85l-25.019,85.85h-29.337L281.15,658.215
				h29.155l25.015,95.208l27.178-95.208h23.76l27.173,95.208l25.019-95.208H467.604z"/>
			<path style="fill:#030631;" d="M505.066,658.215v47.515c6.299-5.94,15.117-10.44,25.913-10.44
				c22.681,0,35.098,15.479,35.098,35.457v53.452h-25.019v-50.215c0-11.697-7.017-17.097-16.738-17.097
				c-8.814,0-15.654,5.759-19.253,10.979v56.333h-25.02V658.215H505.066z"/>
			<path style="fill:#030631;" d="M645.999,697.81h25.918l-38.335,96.828c-9.722,24.117-23.219,31.494-37.256,31.494
				c-4.497,0-8.999-0.898-13.501-1.977v-20.698c3.423,0.72,6.841,1.26,10.264,1.26c8.994,0,15.835-6.118,20.518-18.899l0.175-0.359
				l-40.854-87.648h26.46l25.195,58.313L645.999,697.81z"/>
			<path style="fill:#030631;" d="M810.153,658.215v125.984h-21.958v-12.598c-5.581,7.739-15.479,15.117-31.318,15.117
				c-27.534,0-42.295-22.136-42.295-45.713c0-23.579,14.761-45.715,42.295-45.715c13.682,0,22.856,5.579,28.438,11.699v-48.774
				H810.153z M762.82,716.347c-14.219,0-22.68,11.16-22.68,24.658c0,13.497,8.461,24.656,22.68,24.656
				c10.977,0,19.077-6.838,22.495-14.399v-20.515C781.897,723.186,773.796,716.347,762.82,716.347z"/>
			<path style="fill:#030631;" d="M874.241,695.29c25.195,0,47.691,15.479,47.691,45.715c0,30.234-22.496,45.713-47.691,45.713
				c-25.02,0-47.695-15.479-47.695-45.713C826.545,710.769,849.221,695.29,874.241,695.29z M874.241,717.607
				c-14.219,0-22.139,10.078-22.139,23.398c0,13.318,7.92,23.397,22.139,23.397c14.395,0,22.314-10.078,22.314-23.397
				C896.555,727.685,888.635,717.607,874.241,717.607z"/>
			<path style="fill:#030631;" d="M1108.587,697.81l-27.715,86.389h-26.46l-17.099-56.333l-17.095,56.333h-26.636l-27.719-86.389
				h26.64l15.654,59.211l17.28-59.211h23.756l17.099,59.211l15.84-59.211H1108.587z"/>
			<path style="fill:#030631;" d="M1158.635,695.29c35.815,0,47.334,28.257,41.577,53.814h-60.835
				c2.881,12.598,16.201,17.817,30.42,17.817c9.897,0,18.715-1.98,26.093-5.22v19.617c-8.096,3.42-18.716,5.4-31.675,5.4
				c-27.358,0-50.034-15.657-50.034-45.713C1114.182,708.427,1139.202,695.29,1158.635,695.29z M1159.533,714.367
				c-10.615,0-19.975,6.66-20.331,18.537h38.51C1178.616,726.965,1175.193,714.367,1159.533,714.367z"/>
			<path style="fill:#030631;" d="M374.915,877.81v86.389H352.78V953.22c-6.66,7.739-16.557,13.499-28.798,13.499
				c-23.394,0-35.093-15.479-35.093-35.457V877.81h25.014v50.214c0,11.519,6.299,17.098,16.558,17.098
				c9,0,15.659-5.76,19.438-10.979V877.81H374.915z"/>
			<path style="fill:#030631;" d="M428.382,875.29c12.241,0,23.037,3.059,31.86,7.378v20.517
				c-7.383-5.039-19.981-8.818-30.239-8.818c-5.581,0-12.056,1.621-12.056,6.839c0,14.399,48.77,7.199,48.77,38.876
				c0,20.337-18.535,26.636-39.233,26.636c-13.134,0-25.557-2.878-34.375-8.099v-20.698c9.36,6.12,22.5,9.18,32.934,9.18
				c9.18,0,15.122-1.621,15.122-6.48c0-13.859-48.774-7.739-48.774-38.696C392.391,881.95,410.208,875.29,428.382,875.29z"/>
			<path style="fill:#030631;" d="M521.623,875.29c35.81,0,47.334,28.257,41.573,53.814h-60.83
				c2.876,12.598,16.197,17.817,30.415,17.817c9.897,0,18.715-1.98,26.099-5.22v19.617c-8.102,3.42-18.721,5.4-31.68,5.4
				c-27.358,0-50.034-15.657-50.034-45.713C477.166,888.427,502.185,875.29,521.623,875.29z M522.521,894.367
				c-10.62,0-19.98,6.66-20.336,18.538h38.51C541.599,906.965,538.177,894.367,522.521,894.367z"/>
			<path style="fill:#030631;" d="M633.039,863.413c-7.734,0-14.574-4.322-14.574-14.219c0-9.718,6.84-14.038,14.574-14.038
				c7.921,0,14.761,4.319,14.761,14.038C647.8,859.091,640.96,863.413,633.039,863.413z M620.623,964.199V877.81h25.015v86.389
				H620.623z"/>
			<path style="fill:#030631;" d="M698.557,846.674v31.136h27.359v21.057h-27.359v33.836c0,8.999,4.502,12.959,13.857,12.959
				c5.762,0,10.621-0.901,15.66-2.882v20.159c-6.656,2.338-14.575,3.779-23.217,3.779c-16.739,0-31.133-7.74-31.133-29.155v-38.696
				h-14.58V877.81h14.58v-25.198L698.557,846.674z"/>
			<path style="fill:#030631;" d="M760.657,922.804c0-22.858,28.437-35.996,28.437-49.853c0-10.081-8.638-13.499-20.517-13.499
				c-11.157,0-22.314,4.138-30.415,8.818v-23.757c9.36-5.039,21.417-8.819,34.917-8.819c22.676,0,43.013,8.638,43.013,31.498
				c0,25.014-31.675,38.874-31.675,55.612H760.657z M772.717,966.538c-8.095,0-15.297-4.678-15.297-14.758
				c0-10.078,7.202-14.759,15.297-14.759c8.101,0,15.118,4.681,15.118,14.759C787.835,961.859,780.818,966.538,772.717,966.538z"/>
		</g>
		<g>
			<path style="fill:#030631;" d="M289.905,1272.357v41.979h-5.039v-41.979H289.905z"/>
			<path style="fill:#030631;" d="M306.105,1275.419v10.132h11.514v4.438h-11.514v14.873c0,4.375,1.979,5.693,6.172,5.693
				c2.281,0,4.439-0.542,6.357-1.318v4.438c-2.158,0.777-4.976,1.318-7.734,1.318c-5.575,0-9.536-2.997-9.536-9.296v-15.709h-5.396
				v-4.438h5.396v-8.935L306.105,1275.419z"/>
			<path style="fill:#030631;" d="M341.506,1279.433c-1.68,0-3.12-1.015-3.12-3.057c0-1.982,1.44-3.056,3.12-3.056
				c1.68,0,3.115,1.073,3.115,3.056C344.621,1278.418,343.186,1279.433,341.506,1279.433z M339.104,1314.336v-28.785h4.799v28.785
				H339.104z"/>
			<path style="fill:#030631;" d="M362.2,1284.833c3.838,0,7.496,1.016,10.195,2.456v4.557c-2.398-1.558-6.417-2.696-9.893-2.696
				c-3.12,0-6.416,1.017-6.416,3.839c0,6.234,18.291,3.593,18.291,13.975c0,5.996-5.64,8.091-11.875,8.091
				c-4.076,0-8.456-1.08-11.152-2.818v-4.677c2.935,1.982,7.315,3.057,10.913,3.057c4.078,0,7.315-0.655,7.315-3.536
				c0-6.054-18.351-3.657-18.351-13.974C351.228,1287.167,356.804,1284.833,362.2,1284.833z"/>
			<path style="fill:#030631;" d="M421.409,1310.556c0.722,0,1.503-0.176,2.221-0.419v3.896c-1.138,0.42-2.397,0.664-3.599,0.664
				c-2.338,0-4.438-0.963-5.278-3.478c-2.876,2.394-6.539,3.834-11.216,3.834c-5.093,0-10.132-2.7-10.132-8.751
				c0-7.441,6.836-9.722,13.013-9.722c2.519,0,5.576,0.362,7.979,0.903v-1.02c0-4.316-2.94-7.198-8.218-7.198
				c-4.438,0-7.974,1.08-10.493,2.158v-4.677c2.274-0.776,6.235-1.915,10.972-1.915c7.675,0,12.534,4.2,12.534,12.231v11.275
				C419.192,1310.078,420.148,1310.556,421.409,1310.556z M404.563,1310.918c3.652,0,7.314-1.499,9.835-4.2v-5.273
				c-2.042-0.419-4.981-0.839-7.32-0.839c-4.2,0-8.754,1.259-8.754,5.453C398.323,1309.419,401.379,1310.918,404.563,1310.918z"/>
			<path style="fill:#030631;" d="M446.921,1270.557v43.779h-4.8v-43.779H446.921z"/>
			<path style="fill:#030631;" d="M469.294,1284.833c7.856,0,15.351,5.278,15.351,15.107c0,9.834-7.495,15.113-15.351,15.113
				c-7.793,0-15.352-5.279-15.352-15.113C453.943,1290.111,461.501,1284.833,469.294,1284.833z M469.294,1289.39
				c-5.874,0-10.552,3.9-10.552,10.551c0,6.655,4.678,10.557,10.552,10.557c5.878,0,10.557-3.901,10.557-10.557
				C479.851,1293.29,475.173,1289.39,469.294,1289.39z"/>
			<path style="fill:#030631;" d="M506.253,1284.833c6.899,0,11.996,4.737,11.996,11.748v17.755h-4.799v-17.148
				c0-5.401-3.296-7.921-7.734-7.921c-4.258,0-7.438,2.882-9.355,5.763v19.307h-4.796v-28.785h4.316v4.258
				C497.8,1287.289,501.638,1284.833,506.253,1284.833z"/>
			<path style="fill:#030631;" d="M539.197,1284.833c5.518,0,9.052,2.573,11.63,5.514v-4.796h4.322v28.785
				c0,9.892-7.74,13.916-15.712,13.916c-4.258,0-8.277-0.968-11.695-2.705v-4.678c3.418,1.923,7.138,2.938,11.093,2.938
				c6.118,0,11.578-2.339,11.515-9.472v-4.439c-2.101,2.583-5.635,5.157-11.153,5.157c-8.218,0-14.394-6.476-14.394-15.113
				C524.802,1291.309,530.979,1284.833,539.197,1284.833z M539.733,1289.267c-5.575,0-10.132,4.077-10.132,10.674
				c0,6.602,4.557,10.675,10.132,10.675c5.162,0,9-3.115,10.616-6.475v-7.794C548.733,1292.626,544.895,1289.267,539.733,1289.267z"
				/>
			<path style="fill:#030631;" d="M591.335,1284.833c11.095,0,15.171,9.054,13.374,17.207h-22.911
				c0.601,6.056,6.056,8.575,11.875,8.575c3.536,0,7.013-0.958,9.474-2.335v4.679c-2.638,1.377-6.417,2.095-10.196,2.095
				c-8.516,0-15.947-4.854-15.947-15.113C577.004,1289.867,584.499,1284.833,591.335,1284.833z M591.633,1289.267
				c-4.917,0-9.473,2.939-9.834,8.575h18.653C600.872,1294.784,598.948,1289.267,591.633,1289.267z"/>
			<path style="fill:#030631;" d="M621.154,1284.833c3.838,0,7.496,1.016,10.196,2.456v4.557c-2.398-1.558-6.416-2.696-9.892-2.696
				c-3.121,0-6.417,1.017-6.417,3.839c0,6.234,18.286,3.593,18.286,13.975c0,5.996-5.634,8.091-11.869,8.091
				c-4.078,0-8.458-1.08-11.158-2.818v-4.677c2.94,1.982,7.319,3.057,10.914,3.057c4.082,0,7.319-0.655,7.319-3.536
				c0-6.054-18.35-3.657-18.35-13.974C610.183,1287.167,615.76,1284.833,621.154,1284.833z"/>
			<path style="fill:#030631;" d="M646.477,1275.419v10.132h11.513v4.438h-11.513v14.873c0,4.375,1.977,5.693,6.177,5.693
				c2.28,0,4.434-0.542,6.353-1.318v4.438c-2.158,0.777-4.975,1.318-7.734,1.318c-5.577,0-9.532-2.997-9.532-9.296v-15.709h-5.4
				v-4.438h5.4v-8.935L646.477,1275.419z"/>
			<path style="fill:#030631;" d="M690.027,1310.556c0.718,0,1.499-0.176,2.217-0.419v3.896c-1.138,0.42-2.398,0.664-3.6,0.664
				c-2.339,0-4.433-0.963-5.273-3.478c-2.881,2.394-6.539,3.834-11.216,3.834c-5.098,0-10.137-2.7-10.137-8.751
				c0-7.441,6.84-9.722,13.012-9.722c2.519,0,5.577,0.362,7.979,0.903v-1.02c0-4.316-2.94-7.198-8.219-7.198
				c-4.438,0-7.973,1.08-10.492,2.158v-4.677c2.28-0.776,6.235-1.915,10.975-1.915c7.677,0,12.53,4.2,12.53,12.231v11.275
				C687.805,1310.078,688.767,1310.556,690.027,1310.556z M673.171,1310.918c3.662,0,7.32-1.499,9.84-4.2v-5.273
				c-2.042-0.419-4.981-0.839-7.315-0.839c-4.2,0-8.759,1.259-8.759,5.453C666.937,1309.419,669.997,1310.918,673.171,1310.918z"/>
			<path style="fill:#030631;" d="M701.858,1272.357v17.51c2.1-2.461,5.634-5.034,11.153-5.034c8.212,0,14.39,6.476,14.39,15.107
				c0,8.638-6.178,15.113-14.39,15.113c-5.519,0-9.053-2.574-11.636-5.513v4.795h-4.316v-41.979H701.858z M712.468,1289.267
				c-5.156,0-8.994,3.359-10.61,7.08v7.198c1.617,3.715,5.454,7.07,10.61,7.07c5.576,0,10.137-4.073,10.137-10.675
				C722.606,1293.344,718.044,1289.267,712.468,1289.267z"/>
			<path style="fill:#030631;" d="M739.236,1270.557v43.779h-4.8v-43.779H739.236z"/>
			<path style="fill:#030631;" d="M750.754,1279.433c-1.68,0-3.115-1.015-3.115-3.057c0-1.982,1.436-3.056,3.115-3.056
				c1.68,0,3.12,1.073,3.12,3.056C753.874,1278.418,752.435,1279.433,750.754,1279.433z M748.357,1314.336v-28.785h4.795v28.785
				H748.357z"/>
			<path style="fill:#030631;" d="M771.452,1284.833c3.838,0,7.495,1.016,10.195,2.456v4.557c-2.398-1.558-6.42-2.696-9.897-2.696
				c-3.115,0-6.416,1.017-6.416,3.839c0,6.234,18.292,3.593,18.292,13.975c0,5.996-5.635,8.091-11.875,8.091
				c-4.077,0-8.452-1.08-11.152-2.818v-4.677c2.939,1.982,7.315,3.057,10.913,3.057c4.077,0,7.32-0.655,7.32-3.536
				c0-6.054-18.351-3.657-18.351-13.974C760.481,1287.167,766.057,1284.833,771.452,1284.833z"/>
			<path style="fill:#030631;" d="M794.915,1272.357v16.851c2.04-2.279,5.634-4.375,9.893-4.375c6.895,0,11.992,4.737,11.992,11.748
				v17.755h-4.795v-17.148c0-5.401-3.301-7.921-7.734-7.921c-4.258,0-7.437,2.882-9.356,5.763v19.307h-4.8v-41.979H794.915z"/>
			<path style="fill:#030631;" d="M837.688,1284.833c11.094,0,15.17,9.054,13.374,17.207h-22.91c0.6,6.056,6.059,8.575,11.874,8.575
				c3.54,0,7.018-0.958,9.478-2.335v4.679c-2.642,1.377-6.416,2.095-10.196,2.095c-8.516,0-15.952-4.854-15.952-15.113
				C823.357,1289.867,830.853,1284.833,837.688,1284.833z M837.991,1289.267c-4.922,0-9.478,2.939-9.838,8.575h18.651
				C847.224,1294.784,845.305,1289.267,837.991,1289.267z"/>
			<path style="fill:#030631;" d="M886.58,1272.357v41.979h-4.317v-4.795c-2.578,2.938-6.118,5.513-11.635,5.513
				c-8.213,0-14.39-6.476-14.39-15.113c0-8.632,6.177-15.107,14.39-15.107c5.517,0,9.058,2.573,11.152,5.034v-17.51H886.58z
				 M871.169,1289.267c-5.575,0-10.136,4.077-10.136,10.674c0,6.602,4.56,10.675,10.136,10.675c5.157,0,8.995-3.355,10.611-7.07
				v-7.198C880.164,1292.626,876.326,1289.267,871.169,1289.267z"/>
			<path style="fill:#030631;" d="M912.634,1314.336v-24.347h-5.4v-4.438h5.4v-3.477c0-8.036,5.156-10.439,10.191-10.439
				c2.642,0,5.22,0.542,7.197,1.323v4.435c-1.616-0.776-3.896-1.319-6.054-1.319c-3.477,0-6.538,0.903-6.538,6.182v3.296h10.795
				v4.438H917.43v24.347H912.634z"/>
			<path style="fill:#030631;" d="M958.582,1310.556c0.718,0,1.499-0.176,2.217-0.419v3.896c-1.138,0.42-2.398,0.664-3.6,0.664
				c-2.333,0-4.433-0.963-5.273-3.478c-2.881,2.394-6.539,3.834-11.216,3.834c-5.098,0-10.132-2.7-10.132-8.751
				c0-7.441,6.836-9.722,13.007-9.722c2.52,0,5.582,0.362,7.979,0.903v-1.02c0-4.316-2.94-7.198-8.213-7.198
				c-4.439,0-7.979,1.08-10.498,2.158v-4.677c2.279-0.776,6.24-1.915,10.976-1.915c7.676,0,12.529,4.2,12.529,12.231v11.275
				C956.36,1310.078,957.321,1310.556,958.582,1310.556z M941.731,1310.918c3.657,0,7.314-1.499,9.834-4.2v-5.273
				c-2.042-0.419-4.976-0.839-7.315-0.839c-4.199,0-8.755,1.259-8.755,5.453C935.496,1309.419,938.552,1310.918,941.731,1310.918z"
				/>
			<path style="fill:#030631;" d="M979.227,1284.833c3.237,0,6.415,0.718,8.876,2.334v4.679c-2.157-1.68-5.219-2.579-8.276-2.579
				c-5.576,0-11.397,3.12-11.397,10.674c0,7.378,5.641,10.675,11.28,10.675c3.115,0,6.295-0.899,8.692-2.335v4.795
				c-2.696,1.319-5.757,1.979-9.356,1.979c-7.554,0-15.411-4.737-15.411-14.991C963.635,1289.57,971.731,1284.833,979.227,1284.833z
				"/>
			<path style="fill:#030631;" d="M1001.848,1275.419v10.132h11.514v4.438h-11.514v14.873c0,4.375,1.982,5.693,6.176,5.693
				c2.281,0,4.438-0.542,6.358-1.318v4.438c-2.159,0.777-4.975,1.318-7.734,1.318c-5.576,0-9.536-2.997-9.536-9.296v-15.709h-5.397
				v-4.438h5.397v-8.935L1001.848,1275.419z"/>
			<path style="fill:#030631;" d="M1040.188,1275.419v10.132h11.513v4.438h-11.513v14.873c0,4.375,1.982,5.693,6.181,5.693
				c2.275,0,4.434-0.542,6.352-1.318v4.438c-2.158,0.777-4.976,1.318-7.734,1.318c-5.576,0-9.536-2.997-9.536-9.296v-15.709h-5.395
				v-4.438h5.395v-8.935L1040.188,1275.419z"/>
			<path style="fill:#030631;" d="M1062.933,1272.357v16.851c2.036-2.279,5.634-4.375,9.892-4.375
				c6.894,0,11.992,4.737,11.992,11.748v17.755h-4.795v-17.148c0-5.401-3.301-7.921-7.734-7.921c-4.258,0-7.437,2.882-9.355,5.763
				v19.307h-4.8v-41.979H1062.933z"/>
			<path style="fill:#030631;" d="M1118.958,1310.556c0.723,0,1.504-0.176,2.222-0.419v3.896c-1.139,0.42-2.403,0.664-3.599,0.664
				c-2.339,0-4.438-0.963-5.279-3.478c-2.875,2.394-6.538,3.834-11.216,3.834c-5.092,0-10.131-2.7-10.131-8.751
				c0-7.441,6.836-9.722,13.012-9.722c2.52,0,5.576,0.362,7.979,0.903v-1.02c0-4.316-2.939-7.198-8.218-7.198
				c-4.438,0-7.973,1.08-10.493,2.158v-4.677c2.275-0.776,6.236-1.915,10.972-1.915c7.675,0,12.534,4.2,12.534,12.231v11.275
				C1116.741,1310.078,1117.698,1310.556,1118.958,1310.556z M1102.108,1310.918c3.657,0,7.319-1.499,9.838-4.2v-5.273
				c-2.041-0.419-4.981-0.839-7.319-0.839c-4.194,0-8.755,1.259-8.755,5.453C1095.872,1309.419,1098.929,1310.918,1102.108,1310.918
				z"/>
			<path style="fill:#030631;" d="M1132.41,1275.419v10.132h11.514v4.438h-11.514v14.873c0,4.375,1.978,5.693,6.177,5.693
				c2.28,0,4.438-0.542,6.357-1.318v4.438c-2.158,0.777-4.98,1.318-7.734,1.318c-5.581,0-9.536-2.997-9.536-9.296v-15.709h-5.4
				v-4.438h5.4v-8.935L1132.41,1275.419z"/>
			<path style="fill:#030631;" d="M1190.896,1310.556c0.723,0,1.504-0.176,2.222-0.419v3.896c-1.137,0.42-2.402,0.664-3.599,0.664
				c-2.339,0-4.438-0.963-5.278-3.478c-2.877,2.394-6.533,3.834-11.216,3.834c-5.093,0-10.132-2.7-10.132-8.751
				c0-7.441,6.836-9.722,13.013-9.722c2.52,0,5.577,0.362,7.974,0.903v-1.02c0-4.316-2.935-7.198-8.213-7.198
				c-4.438,0-7.979,1.08-10.493,2.158v-4.677c2.28-0.776,6.236-1.915,10.972-1.915c7.675,0,12.533,4.2,12.533,12.231v11.275
				C1188.679,1310.078,1189.636,1310.556,1190.896,1310.556z M1174.046,1310.918c3.662,0,7.319-1.499,9.834-4.2v-5.273
				c-2.037-0.419-4.976-0.839-7.315-0.839c-4.194,0-8.755,1.259-8.755,5.453C1167.81,1309.419,1170.872,1310.918,1174.046,1310.918z
				"/>
			<path style="fill:#030631;" d="M1228.22,1284.95v4.795c-5.635-0.653-10.195,2.041-11.934,6.661v17.93h-4.795v-28.785h4.317v5.098
				C1218.088,1286.87,1223.187,1284.531,1228.22,1284.95z"/>
			<path style="fill:#030631;" d="M1244.724,1284.833c11.094,0,15.177,9.054,13.375,17.207h-22.911
				c0.601,6.056,6.06,8.575,11.875,8.575c3.54,0,7.017-0.958,9.478-2.335v4.679c-2.642,1.377-6.421,2.095-10.196,2.095
				c-8.516,0-15.952-4.854-15.952-15.113C1230.393,1289.867,1237.888,1284.833,1244.724,1284.833z M1245.027,1289.267
				c-4.917,0-9.478,2.939-9.839,8.575h18.653C1254.26,1294.784,1252.341,1289.267,1245.027,1289.267z"/>
			<path style="fill:#030631;" d="M1290.857,1310.556c0.718,0,1.499-0.176,2.216-0.419v3.896c-1.137,0.42-2.396,0.664-3.593,0.664
				c-2.344,0-4.438-0.963-5.278-3.478c-2.88,2.394-6.538,3.834-11.216,3.834c-5.098,0-10.132-2.7-10.132-8.751
				c0-7.441,6.836-9.722,13.008-9.722c2.519,0,5.581,0.362,7.979,0.903v-1.02c0-4.316-2.94-7.198-8.214-7.198
				c-4.438,0-7.978,1.08-10.498,2.158v-4.677c2.28-0.776,6.24-1.915,10.976-1.915c7.676,0,12.529,4.2,12.529,12.231v11.275
				C1288.635,1310.078,1289.597,1310.556,1290.857,1310.556z M1274.006,1310.918c3.657,0,7.315-1.499,9.835-4.2v-5.273
				c-2.042-0.419-4.976-0.839-7.315-0.839c-4.199,0-8.76,1.259-8.76,5.453C1267.766,1309.419,1270.827,1310.918,1274.006,1310.918z"
				/>
			<path style="fill:#030631;" d="M1326.252,1272.357v41.979h-4.316v-4.795c-2.578,2.938-6.118,5.513-11.636,5.513
				c-8.212,0-14.389-6.476-14.389-15.113c0-8.632,6.177-15.107,14.389-15.107c5.518,0,9.058,2.573,11.157,5.034v-17.51H1326.252z
				 M1310.842,1289.267c-5.577,0-10.132,4.077-10.132,10.674c0,6.602,4.555,10.675,10.132,10.675c5.156,0,8.994-3.355,10.615-7.07
				v-7.198C1319.836,1292.626,1315.999,1289.267,1310.842,1289.267z"/>
			<path style="fill:#030631;" d="M1347.502,1284.833c11.093,0,15.176,9.054,13.374,17.207h-22.911
				c0.601,6.056,6.059,8.575,11.875,8.575c3.54,0,7.017-0.958,9.477-2.335v4.679c-2.642,1.377-6.421,2.095-10.195,2.095
				c-8.516,0-15.952-4.854-15.952-15.113C1333.171,1289.867,1340.666,1284.833,1347.502,1284.833z M1347.806,1289.267
				c-4.922,0-9.478,2.939-9.84,8.575h18.653C1357.039,1294.784,1355.12,1289.267,1347.806,1289.267z"/>
			<path style="fill:#030631;" d="M1384.759,1284.95v4.795c-5.635-0.653-10.19,2.041-11.934,6.661v17.93h-4.796v-28.785h4.317v5.098
				C1374.627,1286.87,1379.725,1284.531,1384.759,1284.95z"/>
			<path style="fill:#030631;" d="M1444.626,1285.551l-9.834,28.785h-5.22l-7.792-22.246l-7.798,22.246h-5.215l-9.839-28.785h5.039
				l7.436,23.511l8.218-23.511h4.316l8.213,23.511l7.437-23.511H1444.626z"/>
			<path style="fill:#030631;" d="M1452.688,1279.433c-1.68,0-3.12-1.015-3.12-3.057c0-1.982,1.44-3.056,3.12-3.056
				s3.116,1.073,3.116,3.056C1455.804,1278.418,1454.368,1279.433,1452.688,1279.433z M1450.291,1314.336v-28.785h4.795v28.785
				H1450.291z"/>
			<path style="fill:#030631;" d="M1469.006,1270.557v43.779h-4.794v-43.779H1469.006z"/>
			<path style="fill:#030631;" d="M1482.922,1270.557v43.779h-4.795v-43.779H1482.922z"/>
			<path style="fill:#030631;" d="M288.586,1342.357v17.511c2.1-2.462,5.635-5.034,11.153-5.034c8.213,0,14.39,6.474,14.39,15.107
				c0,8.637-6.177,15.111-14.39,15.111c-5.518,0-9.053-2.572-11.636-5.513v4.795h-4.316v-41.978H288.586z M299.197,1359.267
				c-5.156,0-8.994,3.36-10.611,7.08v7.197c1.617,3.716,5.455,7.071,10.611,7.071c5.576,0,10.137-4.072,10.137-10.674
				C309.333,1363.345,304.773,1359.267,299.197,1359.267z"/>
			<path style="fill:#030631;" d="M333.401,1354.834c11.094,0,15.171,9.052,13.37,17.207h-22.905
				c0.6,6.055,6.055,8.574,11.874,8.574c3.536,0,7.017-0.958,9.473-2.335v4.678c-2.637,1.377-6.416,2.095-10.195,2.095
				c-8.511,0-15.953-4.854-15.953-15.111C319.065,1359.868,326.565,1354.834,333.401,1354.834z M333.699,1359.267
				c-4.917,0-9.473,2.939-9.833,8.574h18.647C342.932,1364.784,341.018,1359.267,333.699,1359.267z"/>
			<path style="fill:#030631;" d="M397.229,1342.357v41.978h-4.316v-4.795c-2.578,2.94-6.119,5.513-11.636,5.513
				c-8.213,0-14.39-6.475-14.39-15.111c0-8.634,6.177-15.107,14.39-15.107c5.517,0,9.058,2.572,11.157,5.034v-17.511H397.229z
				 M381.818,1359.267c-5.576,0-10.136,4.078-10.136,10.675c0,6.602,4.56,10.674,10.136,10.674c5.156,0,8.995-3.355,10.616-7.071
				v-7.197C390.813,1362.627,386.975,1359.267,381.818,1359.267z"/>
			<path style="fill:#030631;" d="M408.645,1349.434c-1.68,0-3.12-1.017-3.12-3.057c0-1.982,1.44-3.058,3.12-3.058
				c1.68,0,3.116,1.075,3.116,3.058C411.76,1348.417,410.325,1349.434,408.645,1349.434z M406.243,1384.335v-28.783h4.8v28.783
				H406.243z"/>
			<path style="fill:#030631;" d="M429.338,1354.834c3.838,0,7.5,1.015,10.195,2.456v4.555c-2.398-1.558-6.417-2.694-9.893-2.694
				c-3.12,0-6.416,1.015-6.416,3.837c0,6.236,18.291,3.595,18.291,13.975c0,5.996-5.639,8.091-11.875,8.091
				c-4.077,0-8.456-1.078-11.157-2.816v-4.679c2.94,1.982,7.32,3.058,10.918,3.058c4.078,0,7.315-0.654,7.315-3.536
				c0-6.055-18.35-3.657-18.35-13.974C418.366,1357.168,423.943,1354.834,429.338,1354.834z"/>
			<path style="fill:#030631;" d="M454.661,1345.419v10.133h11.514v4.438h-11.514v14.872c0,4.375,1.978,5.694,6.177,5.694
				c2.28,0,4.438-0.543,6.357-1.319v4.438c-2.157,0.776-4.98,1.319-7.734,1.319c-5.581,0-9.537-2.999-9.537-9.298v-15.707h-5.4
				v-4.438h5.4v-8.937L454.661,1345.419z"/>
			<path style="fill:#030631;" d="M489.333,1354.951v4.795c-5.634-0.655-10.19,2.04-11.933,6.659v17.93h-4.795v-28.783h4.316v5.097
				C479.201,1356.869,484.299,1354.53,489.333,1354.951z"/>
			<path style="fill:#030631;" d="M519.812,1380.557c0.718,0,1.5-0.177,2.217-0.421v3.897c-1.138,0.419-2.398,0.663-3.599,0.663
				c-2.338,0-4.434-0.962-5.278-3.477c-2.876,2.394-6.534,3.833-11.211,3.833c-5.098,0-10.136-2.7-10.136-8.749
				c0-7.442,6.84-9.722,13.013-9.722c2.519,0,5.576,0.36,7.978,0.902v-1.021c0-4.316-2.939-7.197-8.219-7.197
				c-4.439,0-7.973,1.079-10.493,2.159v-4.679c2.28-0.775,6.235-1.913,10.977-1.913c7.67,0,12.528,4.198,12.528,12.23v11.274
				C517.59,1380.077,518.552,1380.557,519.812,1380.557z M502.961,1380.917c3.657,0,7.315-1.499,9.835-4.199v-5.272
				c-2.042-0.421-4.981-0.84-7.315-0.84c-4.199,0-8.759,1.259-8.759,5.454C496.721,1379.418,499.782,1380.917,502.961,1380.917z"/>
			<path style="fill:#030631;" d="M540.457,1354.834c3.237,0,6.415,0.718,8.872,2.334v4.677c-2.158-1.68-5.215-2.578-8.271-2.578
				c-5.577,0-11.396,3.121-11.396,10.675c0,7.377,5.639,10.674,11.274,10.674c3.119,0,6.299-0.898,8.696-2.335v4.796
				c-2.7,1.317-5.757,1.977-9.356,1.977c-7.559,0-15.41-4.736-15.41-14.99C524.866,1359.569,532.961,1354.834,540.457,1354.834z"/>
			<path style="fill:#030631;" d="M563.079,1345.419v10.133h11.513v4.438h-11.513v14.872c0,4.375,1.982,5.694,6.176,5.694
				c2.28,0,4.439-0.543,6.357-1.319v4.438c-2.159,0.776-4.975,1.319-7.734,1.319c-5.581,0-9.536-2.999-9.536-9.298v-15.707h-5.396
				v-4.438h5.396v-8.937L563.079,1345.419z"/>
			<path style="fill:#030631;" d="M593.377,1354.834c11.094,0,15.171,9.052,13.373,17.207h-22.909
				c0.6,6.055,6.06,8.574,11.874,8.574c3.54,0,7.017-0.958,9.473-2.335v4.678c-2.637,1.377-6.416,2.095-10.195,2.095
				c-8.51,0-15.947-4.854-15.947-15.111C579.045,1359.868,586.541,1354.834,593.377,1354.834z M593.674,1359.267
				c-4.916,0-9.472,2.939-9.833,8.574h18.652C602.913,1364.784,600.994,1359.267,593.674,1359.267z"/>
			<path style="fill:#030631;" d="M642.269,1342.357v41.978h-4.317v-4.795c-2.577,2.94-6.118,5.513-11.635,5.513
				c-8.217,0-14.394-6.475-14.394-15.111c0-8.634,6.177-15.107,14.394-15.107c5.517,0,9.058,2.572,11.152,5.034v-17.511H642.269z
				 M626.858,1359.267c-5.582,0-10.137,4.078-10.137,10.675c0,6.602,4.555,10.674,10.137,10.674c5.156,0,8.994-3.355,10.61-7.071
				v-7.197C635.852,1362.627,632.014,1359.267,626.858,1359.267z"/>
			<path style="fill:#030631;" d="M670.9,1342.357v17.511c2.1-2.462,5.635-5.034,11.152-5.034c8.213,0,14.39,6.474,14.39,15.107
				c0,8.637-6.176,15.111-14.39,15.111c-5.517,0-9.052-2.572-11.635-5.513v4.795h-4.316v-41.978H670.9z M681.512,1359.267
				c-5.157,0-8.995,3.36-10.611,7.08v7.197c1.617,3.716,5.455,7.071,10.611,7.071c5.576,0,10.136-4.072,10.136-10.674
				C691.648,1363.345,687.088,1359.267,681.512,1359.267z"/>
			<path style="fill:#030631;" d="M724.172,1355.552h5.092l-14.15,33.104c-2.998,6.953-6.655,9.595-10.854,9.595
				c-1.021,0-2.041-0.127-3.115-0.425v-4.136c0.839,0.239,1.674,0.361,2.514,0.361c3.237,0,5.581-2.344,7.437-7.021l1.079-2.638
				l-13.671-28.842h5.098l10.855,23.325L724.172,1355.552z"/>
			<path style="fill:#030631;" d="M753.396,1345.419v10.133h11.513v4.438h-11.513v14.872c0,4.375,1.978,5.694,6.177,5.694
				c2.281,0,4.438-0.543,6.357-1.319v4.438c-2.157,0.776-4.979,1.319-7.734,1.319c-5.576,0-9.536-2.999-9.536-9.298v-15.707h-5.395
				v-4.438h5.395v-8.937L753.396,1345.419z"/>
			<path style="fill:#030631;" d="M776.135,1342.357v16.852c2.041-2.281,5.64-4.375,9.898-4.375c6.895,0,11.992,4.735,11.992,11.748
				v17.753h-4.8v-17.147c0-5.401-3.295-7.921-7.733-7.921c-4.259,0-7.437,2.881-9.356,5.762v19.307h-4.794v-41.978H776.135z"/>
			<path style="fill:#030631;" d="M818.914,1354.834c11.094,0,15.171,9.052,13.374,17.207h-22.909
				c0.601,6.055,6.054,8.574,11.875,8.574c3.535,0,7.011-0.958,9.472-2.335v4.678c-2.637,1.377-6.417,2.095-10.196,2.095
				c-8.516,0-15.947-4.854-15.947-15.111C804.582,1359.868,812.078,1354.834,818.914,1354.834z M819.212,1359.267
				c-4.917,0-9.474,2.939-9.834,8.574h18.647C828.444,1364.784,826.525,1359.267,819.212,1359.267z"/>
			<path style="fill:#030631;" d="M871.111,1354.951v4.795c-5.639-0.655-10.196,2.04-11.934,6.659v17.93h-4.8v-28.783h4.316v5.097
				C860.975,1356.869,866.072,1354.53,871.111,1354.951z"/>
			<path style="fill:#030631;" d="M887.615,1354.834c11.093,0,15.17,9.052,13.369,17.207h-22.906
				c0.6,6.055,6.055,8.574,11.875,8.574c3.535,0,7.012-0.958,9.472-2.335v4.678c-2.636,1.377-6.415,2.095-10.194,2.095
				c-8.516,0-15.953-4.854-15.953-15.111C873.278,1359.868,880.779,1354.834,887.615,1354.834z M887.913,1359.267
				c-4.917,0-9.472,2.939-9.834,8.574h18.647C897.146,1364.784,895.232,1359.267,887.913,1359.267z"/>
			<path style="fill:#030631;" d="M933.748,1380.557c0.718,0,1.499-0.177,2.217-0.421v3.897c-1.138,0.419-2.398,0.663-3.598,0.663
				c-2.339,0-4.434-0.962-5.274-3.477c-2.88,2.394-6.538,3.833-11.215,3.833c-5.098,0-10.137-2.7-10.137-8.749
				c0-7.442,6.84-9.722,13.013-9.722c2.519,0,5.576,0.36,7.979,0.902v-1.021c0-4.316-2.939-7.197-8.217-7.197
				c-4.439,0-7.975,1.079-10.494,2.159v-4.679c2.281-0.775,6.236-1.913,10.977-1.913c7.675,0,12.529,4.198,12.529,12.23v11.274
				C931.526,1380.077,932.488,1380.557,933.748,1380.557z M916.892,1380.917c3.662,0,7.319-1.499,9.839-4.199v-5.272
				c-2.041-0.421-4.976-0.84-7.315-0.84c-4.198,0-8.76,1.259-8.76,5.454C910.656,1379.418,913.719,1380.917,916.892,1380.917z"/>
			<path style="fill:#030631;" d="M969.144,1342.357v41.978h-4.317v-4.795c-2.579,2.94-6.119,5.513-11.635,5.513
				c-8.213,0-14.39-6.475-14.39-15.111c0-8.634,6.177-15.107,14.39-15.107c5.517,0,9.057,2.572,11.157,5.034v-17.511H969.144z
				 M953.733,1359.267c-5.577,0-10.137,4.078-10.137,10.675c0,6.602,4.561,10.674,10.137,10.674c5.156,0,8.994-3.355,10.615-7.071
				v-7.197C962.727,1362.627,958.89,1359.267,953.733,1359.267z"/>
			<path style="fill:#030631;" d="M1003.645,1380.557c0.718,0,1.499-0.177,2.217-0.421v3.897c-1.137,0.419-2.397,0.663-3.593,0.663
				c-2.345,0-4.444-0.962-5.278-3.477c-2.881,2.394-6.539,3.833-11.216,3.833c-5.098,0-10.137-2.7-10.137-8.749
				c0-7.442,6.841-9.722,13.013-9.722c2.525,0,5.581,0.36,7.978,0.902v-1.021c0-4.316-2.939-7.197-8.212-7.197
				c-4.439,0-7.979,1.079-10.498,2.159v-4.679c2.28-0.775,6.235-1.913,10.976-1.913c7.676,0,12.535,4.198,12.535,12.23v11.274
				C1001.428,1380.077,1002.385,1380.557,1003.645,1380.557z M986.794,1380.917c3.657,0,7.314-1.499,9.834-4.199v-5.272
				c-2.036-0.421-4.976-0.84-7.314-0.84c-4.199,0-8.759,1.259-8.759,5.454C980.555,1379.418,983.616,1380.917,986.794,1380.917z"/>
			<path style="fill:#030631;" d="M1015.476,1342.357v17.511c2.1-2.462,5.635-5.034,11.152-5.034c8.218,0,14.39,6.474,14.39,15.107
				c0,8.637-6.171,15.111-14.39,15.111c-5.517,0-9.053-2.572-11.636-5.513v4.795h-4.316v-41.978H1015.476z M1026.087,1359.267
				c-5.156,0-8.994,3.36-10.61,7.08v7.197c1.616,3.716,5.455,7.071,10.61,7.071c5.581,0,10.136-4.072,10.136-10.674
				C1036.223,1363.345,1031.667,1359.267,1026.087,1359.267z"/>
			<path style="fill:#030631;" d="M1052.854,1340.556v43.779h-4.8v-43.779H1052.854z"/>
			<path style="fill:#030631;" d="M1074.212,1354.834c11.094,0,15.171,9.052,13.374,17.207h-22.91
				c0.601,6.055,6.055,8.574,11.875,8.574c3.535,0,7.011-0.958,9.473-2.335v4.678c-2.637,1.377-6.417,2.095-10.196,2.095
				c-8.516,0-15.947-4.854-15.947-15.111C1059.88,1359.868,1067.375,1354.834,1074.212,1354.834z M1074.509,1359.267
				c-4.917,0-9.473,2.939-9.834,8.574h18.648C1083.743,1364.784,1081.829,1359.267,1074.509,1359.267z"/>
			<path style="fill:#030631;" d="M1123.289,1354.834c3.237,0,6.416,0.718,8.877,2.334v4.677c-2.158-1.68-5.22-2.578-8.276-2.578
				c-5.576,0-11.396,3.121-11.396,10.675c0,7.377,5.64,10.674,11.279,10.674c3.115,0,6.294-0.898,8.691-2.335v4.796
				c-2.695,1.317-5.757,1.977-9.356,1.977c-7.553,0-15.41-4.736-15.41-14.99C1107.698,1359.569,1115.794,1354.834,1123.289,1354.834
				z"/>
			<path style="fill:#030631;" d="M1152.268,1354.834c7.861,0,15.352,5.278,15.352,15.107c0,9.833-7.49,15.111-15.352,15.111
				c-7.793,0-15.351-5.278-15.351-15.111C1136.917,1360.112,1144.475,1354.834,1152.268,1354.834z M1152.268,1359.389
				c-5.875,0-10.552,3.901-10.552,10.553c0,6.654,4.677,10.557,10.552,10.557c5.879,0,10.556-3.902,10.556-10.557
				C1162.824,1363.29,1158.147,1359.389,1152.268,1359.389z"/>
			<path style="fill:#030631;" d="M1189.231,1354.834c6.895,0,11.992,4.735,11.992,11.748v17.753h-4.795v-17.147
				c0-5.401-3.301-7.921-7.739-7.921c-4.257,0-7.436,2.881-9.355,5.762v19.307h-4.795v-28.783h4.316v4.257
				C1180.774,1357.29,1184.612,1354.834,1189.231,1354.834z"/>
			<path style="fill:#030631;" d="M1216.052,1345.419v10.133h11.513v4.438h-11.513v14.872c0,4.375,1.977,5.694,6.176,5.694
				c2.281,0,4.439-0.543,6.358-1.319v4.438c-2.159,0.776-4.975,1.319-7.734,1.319c-5.577,0-9.536-2.999-9.536-9.298v-15.707h-5.396
				v-4.438h5.396v-8.937L1216.052,1345.419z"/>
			<path style="fill:#030631;" d="M1246.35,1354.834c11.095,0,15.171,9.052,13.375,17.207h-22.911
				c0.601,6.055,6.06,8.574,11.875,8.574c3.536,0,7.017-0.958,9.478-2.335v4.678c-2.642,1.377-6.421,2.095-10.2,2.095
				c-8.511,0-15.947-4.854-15.947-15.111C1232.02,1359.868,1239.514,1354.834,1246.35,1354.834z M1246.648,1359.267
				c-4.917,0-9.473,2.939-9.834,8.574h18.653C1255.886,1364.784,1253.967,1359.267,1246.648,1359.267z"/>
			<path style="fill:#030631;" d="M1281.57,1354.834c6.895,0,11.992,4.735,11.992,11.748v17.753h-4.799v-17.147
				c0-5.401-3.296-7.921-7.734-7.921c-4.258,0-7.437,2.881-9.356,5.762v19.307h-4.795v-28.783h4.316v4.257
				C1273.113,1357.29,1276.951,1354.834,1281.57,1354.834z"/>
			<path style="fill:#030631;" d="M1308.392,1345.419v10.133h11.513v4.438h-11.513v14.872c0,4.375,1.983,5.694,6.177,5.694
				c2.28,0,4.438-0.543,6.357-1.319v4.438c-2.158,0.776-4.976,1.319-7.735,1.319c-5.581,0-9.536-2.999-9.536-9.298v-15.707h-5.396
				v-4.438h5.396v-8.937L1308.392,1345.419z"/>
			<path style="fill:#030631;" d="M1354.646,1354.834c7.856,0,15.357,5.278,15.357,15.107c0,9.833-7.5,15.111-15.357,15.111
				c-7.792,0-15.352-5.278-15.352-15.111C1339.294,1360.112,1346.853,1354.834,1354.646,1354.834z M1354.646,1359.389
				c-5.874,0-10.551,3.901-10.551,10.553c0,6.654,4.678,10.557,10.551,10.557c5.879,0,10.557-3.902,10.557-10.557
				C1365.203,1363.29,1360.525,1359.389,1354.646,1359.389z"/>
			<path style="fill:#030631;" d="M1378.596,1384.335v-24.345h-5.4v-4.438h5.4v-3.478c0-8.037,5.156-10.438,10.196-10.438
				c2.636,0,5.214,0.541,7.192,1.323v4.433c-1.616-0.776-3.897-1.317-6.055-1.317c-3.481,0-6.538,0.902-6.538,6.181v3.297h10.796
				v4.438h-10.796v24.345H1378.596z"/>
			<path style="fill:#030631;" d="M1438.401,1380.557c0.723,0,1.499-0.177,2.222-0.421v3.897c-1.143,0.419-2.402,0.663-3.599,0.663
				c-2.339,0-4.438-0.962-5.278-3.477c-2.876,2.394-6.538,3.833-11.215,3.833c-5.093,0-10.133-2.7-10.133-8.749
				c0-7.442,6.836-9.722,13.014-9.722c2.519,0,5.575,0.36,7.973,0.902v-1.021c0-4.316-2.935-7.197-8.213-7.197
				c-4.438,0-7.979,1.079-10.493,2.159v-4.679c2.275-0.775,6.235-1.913,10.972-1.913c7.676,0,12.535,4.198,12.535,12.23v11.274
				C1436.185,1380.077,1437.146,1380.557,1438.401,1380.557z M1421.551,1380.917c3.657,0,7.319-1.499,9.833-4.199v-5.272
				c-2.036-0.421-4.976-0.84-7.315-0.84c-4.194,0-8.755,1.259-8.755,5.454C1415.315,1379.418,1418.372,1380.917,1421.551,1380.917z"
				/>
			<path style="fill:#030631;" d="M299.739,1424.833c8.213,0,14.39,6.476,14.39,15.107c0,8.638-6.177,15.112-14.39,15.112
				c-5.518,0-9.053-2.573-11.153-5.039v17.516h-4.799v-41.979h4.316v4.796C290.686,1427.406,294.221,1424.833,299.739,1424.833z
				 M299.197,1429.268c-5.156,0-8.994,3.358-10.611,7.08v7.197c1.617,3.715,5.455,7.069,10.611,7.069
				c5.576,0,10.137-4.072,10.137-10.674C309.333,1433.344,304.773,1429.268,299.197,1429.268z"/>
			<path style="fill:#030631;" d="M346.653,1450.556c0.718,0,1.499-0.175,2.217-0.419v3.896c-1.138,0.421-2.397,0.664-3.594,0.664
				c-2.343,0-4.443-0.962-5.278-3.477c-2.881,2.394-6.538,3.833-11.216,3.833c-5.098,0-10.136-2.7-10.136-8.75
				c0-7.44,6.835-9.722,13.017-9.722c2.519,0,5.576,0.361,7.974,0.903v-1.02c0-4.316-2.94-7.197-8.218-7.197
				c-4.435,0-7.974,1.079-10.494,2.157v-4.677c2.281-0.777,6.24-1.915,10.977-1.915c7.676,0,12.534,4.2,12.534,12.231v11.275
				C344.436,1450.078,345.394,1450.556,346.653,1450.556z M329.802,1450.918c3.658,0,7.315-1.5,9.835-4.2v-5.273
				c-2.037-0.419-4.976-0.84-7.316-0.84c-4.199,0-8.754,1.261-8.754,5.454C323.567,1449.418,326.624,1450.918,329.802,1450.918z"/>
			<path style="fill:#030631;" d="M366.096,1424.833c5.517,0,9.057,2.573,11.635,5.514v-4.796h4.316v28.785
				c0,9.892-7.734,13.916-15.707,13.916c-4.258,0-8.277-0.968-11.695-2.705v-4.679c3.418,1.924,7.135,2.939,11.094,2.939
				c6.118,0,11.572-2.339,11.514-9.472v-4.439c-2.1,2.583-5.64,5.156-11.157,5.156c-8.213,0-14.39-6.475-14.39-15.112
				C351.707,1431.309,357.883,1424.833,366.096,1424.833z M366.638,1429.268c-5.576,0-10.132,4.076-10.132,10.673
				c0,6.602,4.557,10.674,10.132,10.674c5.156,0,8.995-3.114,10.615-6.475v-7.792
				C375.633,1432.626,371.794,1429.268,366.638,1429.268z"/>
			<path style="fill:#030631;" d="M403.298,1424.833c11.094,0,15.17,9.054,13.374,17.207h-22.909
				c0.6,6.056,6.059,8.574,11.875,8.574c3.535,0,7.016-0.957,9.473-2.334v4.679c-2.637,1.377-6.417,2.094-10.196,2.094
				c-8.51,0-15.947-4.853-15.947-15.112C388.967,1429.867,396.462,1424.833,403.298,1424.833z M403.596,1429.268
				c-4.917,0-9.472,2.939-9.833,8.574h18.652C412.835,1434.784,410.916,1429.268,403.596,1429.268z"/>
			<path style="fill:#030631;" d="M479.778,1425.551l-9.835,28.785h-5.215l-7.793-22.247l-7.798,22.247h-5.22l-9.834-28.785h5.04
				l7.436,23.511l8.213-23.511h4.317l8.218,23.511l7.436-23.511H479.778z"/>
			<path style="fill:#030631;" d="M490.12,1412.358v16.85c2.041-2.279,5.639-4.375,9.897-4.375c6.894,0,11.992,4.737,11.992,11.748
				v17.755h-4.8v-17.149c0-5.4-3.296-7.919-7.734-7.919c-4.258,0-7.436,2.881-9.355,5.762v19.307h-4.795v-41.978H490.12z"/>
			<path style="fill:#030631;" d="M532.898,1424.833c11.094,0,15.171,9.054,13.374,17.207h-22.91
				c0.601,6.056,6.055,8.574,11.875,8.574c3.535,0,7.011-0.957,9.473-2.334v4.679c-2.637,1.377-6.415,2.094-10.195,2.094
				c-8.516,0-15.948-4.853-15.948-15.112C518.567,1429.867,526.062,1424.833,532.898,1424.833z M533.196,1429.268
				c-4.917,0-9.472,2.939-9.834,8.574h18.652C542.434,1434.784,540.51,1429.268,533.196,1429.268z"/>
			<path style="fill:#030631;" d="M568.117,1424.833c6.895,0,11.992,4.737,11.992,11.748v17.755h-4.799v-17.149
				c0-5.4-3.296-7.919-7.734-7.919c-4.258,0-7.437,2.881-9.356,5.762v19.307h-4.8v-28.785h4.321v4.258
				C559.661,1427.289,563.499,1424.833,568.117,1424.833z"/>
			<path style="fill:#030631;" d="M608.499,1410.557v43.779h-4.795v-43.779H608.499z"/>
			<path style="fill:#030631;" d="M630.871,1424.833c7.861,0,15.352,5.278,15.352,15.107c0,9.835-7.49,15.112-15.352,15.112
				c-7.793,0-15.351-5.277-15.351-15.112C615.52,1430.111,623.078,1424.833,630.871,1424.833z M630.871,1429.389
				c-5.874,0-10.551,3.901-10.551,10.552c0,6.655,4.677,10.557,10.551,10.557c5.879,0,10.557-3.901,10.557-10.557
				C641.428,1433.29,636.75,1429.389,630.871,1429.389z"/>
			<path style="fill:#030631;" d="M666.516,1424.833c7.852,0,15.352,5.278,15.352,15.107c0,9.835-7.5,15.112-15.352,15.112
				c-7.798,0-15.351-5.277-15.351-15.112C651.165,1430.111,658.718,1424.833,666.516,1424.833z M666.516,1429.389
				c-5.878,0-10.556,3.901-10.556,10.552c0,6.655,4.678,10.557,10.556,10.557c5.874,0,10.552-3.901,10.552-10.557
				C677.068,1433.29,672.39,1429.389,666.516,1429.389z"/>
			<path style="fill:#030631;" d="M709.768,1454.336l-10.552-12.354h-5.64v12.354h-4.795v-41.978h4.795v25.19h5.821l9.11-11.998
				h5.577l-10.913,14.332l12.236,14.453H709.768z"/>
			<path style="fill:#030631;" d="M722.562,1419.433c-1.68,0-3.121-1.016-3.121-3.057c0-1.982,1.44-3.056,3.121-3.056
				c1.68,0,3.115,1.073,3.115,3.056C725.677,1418.417,724.241,1419.433,722.562,1419.433z M720.159,1454.336v-28.785h4.8v28.785
				H720.159z"/>
			<path style="fill:#030631;" d="M748.65,1424.833c6.899,0,11.997,4.737,11.997,11.748v17.755h-4.8v-17.149
				c0-5.4-3.296-7.919-7.734-7.919c-4.258,0-7.437,2.881-9.355,5.762v19.307h-4.8v-28.785h4.321v4.258
				C740.198,1427.289,744.035,1424.833,748.65,1424.833z"/>
			<path style="fill:#030631;" d="M781.594,1424.833c5.518,0,9.053,2.573,11.63,5.514v-4.796h4.317v28.785
				c0,9.892-7.735,13.916-15.708,13.916c-4.258,0-8.276-0.968-11.694-2.705v-4.679c3.418,1.924,7.133,2.939,11.093,2.939
				c6.118,0,11.573-2.339,11.514-9.472v-4.439c-2.099,2.583-5.635,5.156-11.152,5.156c-8.218,0-14.394-6.475-14.394-15.112
				C767.2,1431.309,773.376,1424.833,781.594,1424.833z M782.132,1429.268c-5.577,0-10.133,4.076-10.133,10.673
				c0,6.602,4.556,10.674,10.133,10.674c5.156,0,8.999-3.114,10.615-6.475v-7.792
				C791.131,1432.626,787.288,1429.268,782.132,1429.268z"/>
			<path style="fill:#030631;" d="M846.985,1450.556c0.723,0,1.499-0.175,2.217-0.419v3.896c-1.137,0.421-2.398,0.664-3.593,0.664
				c-2.339,0-4.438-0.962-5.279-3.477c-2.875,2.394-6.537,3.833-11.216,3.833c-5.097,0-10.131-2.7-10.131-8.75
				c0-7.44,6.836-9.722,13.012-9.722c2.52,0,5.576,0.361,7.974,0.903v-1.02c0-4.316-2.939-7.197-8.213-7.197
				c-4.438,0-7.978,1.079-10.498,2.157v-4.677c2.281-0.777,6.241-1.915,10.977-1.915c7.676,0,12.535,4.2,12.535,12.231v11.275
				C844.769,1450.078,845.725,1450.556,846.985,1450.556z M830.135,1450.918c3.657,0,7.319-1.5,9.833-4.2v-5.273
				c-2.036-0.419-4.976-0.84-7.314-0.84c-4.199,0-8.755,1.261-8.755,5.454C823.899,1449.418,826.956,1450.918,830.135,1450.918z"/>
			<path style="fill:#030631;" d="M860.438,1415.419v10.132h11.513v4.438h-11.513v14.873c0,4.376,1.977,5.693,6.176,5.693
				c2.28,0,4.433-0.542,6.353-1.317v4.438c-2.159,0.777-4.976,1.318-7.735,1.318c-5.575,0-9.536-2.998-9.536-9.296v-15.709H850.3
				v-4.438h5.395v-8.935L860.438,1415.419z"/>
			<path style="fill:#030631;" d="M895.838,1419.433c-1.679,0-3.12-1.016-3.12-3.057c0-1.982,1.441-3.056,3.12-3.056
				c1.68,0,3.12,1.073,3.12,3.056C898.957,1418.417,897.518,1419.433,895.838,1419.433z M893.44,1454.336v-28.785h4.795v28.785
				H893.44z"/>
			<path style="fill:#030631;" d="M913.894,1415.419v10.132h11.514v4.438h-11.514v14.873c0,4.376,1.978,5.693,6.178,5.693
				c2.28,0,4.439-0.542,6.357-1.317v4.438c-2.159,0.777-4.98,1.318-7.734,1.318c-5.576,0-9.536-2.998-9.536-9.296v-15.709h-5.397
				v-4.438h5.397v-8.935L913.894,1415.419z"/>
			<path style="fill:#030631;" d="M941.13,1424.833c3.838,0,7.501,1.017,10.195,2.456v4.556c-2.397-1.557-6.416-2.695-9.892-2.695
				c-3.121,0-6.417,1.017-6.417,3.839c0,6.234,18.287,3.593,18.287,13.975c0,5.996-5.635,8.09-11.87,8.09
				c-4.077,0-8.458-1.079-11.157-2.816v-4.678c2.939,1.982,7.319,3.056,10.917,3.056c4.077,0,7.314-0.654,7.314-3.535
				c0-6.054-18.35-3.657-18.35-13.974C930.158,1427.167,935.735,1424.833,941.13,1424.833z"/>
			<path style="fill:#030631;" d="M979.651,1410.557v43.779h-4.795v-43.779H979.651z"/>
			<path style="fill:#030631;" d="M1014.261,1450.556c0.722,0,1.503-0.175,2.221-0.419v3.896c-1.137,0.421-2.398,0.664-3.599,0.664
				c-2.339,0-4.438-0.962-5.278-3.477c-2.876,2.394-6.538,3.833-11.21,3.833c-5.098,0-10.137-2.7-10.137-8.75
				c0-7.44,6.836-9.722,13.013-9.722c2.52,0,5.577,0.361,7.979,0.903v-1.02c0-4.316-2.94-7.197-8.218-7.197
				c-4.439,0-7.978,1.079-10.494,2.157v-4.677c2.281-0.777,6.236-1.915,10.972-1.915c7.677,0,12.535,4.2,12.535,12.231v11.275
				C1012.044,1450.078,1013.005,1450.556,1014.261,1450.556z M997.415,1450.918c3.651,0,7.313-1.5,9.833-4.2v-5.273
				c-2.041-0.419-4.98-0.84-7.319-0.84c-4.199,0-8.754,1.261-8.754,5.454C991.175,1449.418,994.236,1450.918,997.415,1450.918z"/>
			<path style="fill:#030631;" d="M1041.745,1425.551h5.094l-14.151,33.105c-2.997,6.953-6.655,9.596-10.854,9.596
				c-1.016,0-2.037-0.127-3.116-0.426v-4.135c0.835,0.239,1.68,0.361,2.515,0.361c3.242,0,5.581-2.345,7.441-7.022l1.075-2.636
				l-13.672-28.844h5.098l10.854,23.325L1041.745,1425.551z"/>
			<path style="fill:#030631;" d="M1064.484,1424.833c7.862,0,15.352,5.278,15.352,15.107c0,9.835-7.49,15.112-15.352,15.112
				c-7.792,0-15.351-5.277-15.351-15.112C1049.133,1430.111,1056.692,1424.833,1064.484,1424.833z M1064.484,1429.389
				c-5.874,0-10.551,3.901-10.551,10.552c0,6.655,4.678,10.557,10.551,10.557c5.879,0,10.557-3.901,10.557-10.557
				C1075.041,1433.29,1070.364,1429.389,1064.484,1429.389z"/>
			<path style="fill:#030631;" d="M1113.079,1425.551v28.785h-4.316v-4.258c-1.919,2.519-5.757,4.975-10.377,4.975
				c-7.495,0-11.992-4.736-11.992-11.753v-17.749h4.8v17.148c0,5.396,2.695,7.915,7.735,7.915c4.257,0,7.437-2.876,9.355-5.752
				v-19.312H1113.079z"/>
			<path style="fill:#030631;" d="M1128.63,1415.419v10.132h11.514v4.438h-11.514v14.873c0,4.376,1.978,5.693,6.177,5.693
				c2.28,0,4.438-0.542,6.357-1.317v4.438c-2.158,0.777-4.981,1.318-7.734,1.318c-5.577,0-9.537-2.998-9.537-9.296v-15.709h-5.396
				v-4.438h5.396v-8.935L1128.63,1415.419z"/>
			<path style="fill:#030631;" d="M1148.616,1454.872c-1.68,0-3.185-1.016-3.185-3.056c0-1.979,1.505-2.999,3.185-2.999
				c1.674,0,3.115,1.021,3.115,2.999C1151.731,1453.856,1150.291,1454.872,1148.616,1454.872z"/>
		</g>
		<path style="fill:#F2564B;" d="M354.349,1718.798h450c41.42,0,75,33.579,75,75.001l0,0c0,41.42-33.579,74.999-75,74.999h-450
			c-41.422,0-75-33.579-75-74.999l0,0C279.348,1752.377,312.927,1718.798,354.349,1718.798z"/>
		<path style="fill:#6D89D0;" d="M4216.848,104.179h-175c-34.517,0-62.5,27.981-62.5,62.5c0,34.517,27.983,62.5,62.5,62.5h175
			c34.517,0,62.5-27.983,62.5-62.5C4279.348,132.16,4251.364,104.179,4216.848,104.179L4216.848,104.179z"/>
		<path style="fill:#6D89D0;" d="M3833.37,230.429h-175.001c-35.151,0-63.75-28.598-63.75-63.75c0-35.152,28.599-63.75,63.75-63.75
			h175.001c35.151,0,63.75,28.598,63.75,63.75C3897.12,201.831,3868.521,230.429,3833.37,230.429z M3658.369,105.429
			c-33.773,0-61.25,27.477-61.25,61.25c0,33.773,27.477,61.25,61.25,61.25h175.001c33.773,0,61.25-27.477,61.25-61.25
			c0-33.773-27.477-61.25-61.25-61.25H3658.369z"/>
		<g>
			<path style="fill:#FFFFFF;" d="M4042.102,141.738c4.796,0,9.712,1.199,13.13,3.179v6.535c-3.418-2.278-8.095-3.538-12.592-3.479
				c-5.099,0-8.336,1.502-8.336,5.097c0,9.055,23.99,5.398,23.99,20.389c0,8.815-7.501,11.874-15.894,11.813
				c-5.635,0-10.734-1.319-14.874-3.657v-6.717c4.562,2.941,9.595,4.139,14.395,4.139c5.396,0,9.415-1.26,9.415-5.217
				c0-9.715-23.99-5.757-23.99-20.63C4027.346,145.456,4034.182,141.738,4042.102,141.738z"/>
			<path style="fill:#FFFFFF;" d="M4067.482,150.192c-2.095,0-3.955-1.198-3.955-3.837c0-2.518,1.86-3.777,3.955-3.777
				c2.101,0,3.902,1.259,3.902,3.777C4071.385,148.994,4069.583,150.192,4067.482,150.192z M4064.25,184.494V155.71h6.416v28.784
				H4064.25z"/>
			<path style="fill:#FFFFFF;" d="M4091.302,154.931c5.395,0,8.812,2.518,11.034,5.276v-4.497h5.753v28.425
				c0,10.374-7.911,14.331-16.128,14.331c-4.375,0-8.457-0.959-11.875-2.697v-5.877c3.301,1.919,7.138,2.938,11.034,2.938
				c5.698,0,10.552-2.039,10.552-8.516v-3.657c-1.978,2.339-5.331,4.617-10.37,4.617c-8.697,0-14.273-6.895-14.273-15.171
				C4077.028,161.826,4082.604,154.931,4091.302,154.931z M4092.438,160.568c-5.156,0-8.935,3.897-8.935,9.534
				c0,5.637,3.778,9.534,8.935,9.534c4.497,0,7.798-2.698,9.175-5.635v-7.436C4100.236,163.446,4096.936,160.568,4092.438,160.568z"
				/>
			<path style="fill:#FFFFFF;" d="M4131.858,154.931c7.255,0,11.875,4.918,11.875,11.753v17.81h-6.417v-16.97
				c0-4.677-2.88-6.896-6.719-6.896c-3.658,0-6.414,2.458-8.037,4.798v19.069h-6.415V155.71h5.698v3.957
				C4123.943,157.15,4127.479,154.931,4131.858,154.931z"/>
			<path style="fill:#FFFFFF;" d="M4192.868,155.71v28.784h-5.697v-3.957c-2.096,2.517-5.636,4.736-10.011,4.736
				c-7.617,0-11.874-4.917-11.874-11.753V155.71h6.415v16.97c0,4.679,2.462,6.897,6.719,6.897c3.658,0,6.417-2.458,8.032-4.797
				v-19.07H4192.868z"/>
			<path style="fill:#FFFFFF;" d="M4217.712,154.931c8.639,0,14.272,6.895,14.272,15.171c0,8.277-5.634,15.171-14.272,15.171
				c-5.033,0-8.393-2.219-10.37-4.497v16.912h-6.417V155.71h5.698v4.497C4208.898,157.448,4212.316,154.931,4217.712,154.931z
				 M4216.516,160.568c-4.438,0-7.797,2.878-9.174,5.997v7.017c1.377,3.176,4.736,6.055,9.174,6.055
				c5.215,0,8.937-3.897,8.937-9.534C4225.452,164.465,4221.73,160.568,4216.516,160.568z"/>
		</g>
		<g>
			<path style="fill:#FFFFFF;" d="M358.854,1758.229h8.184v56.532h27.09v6.866h-35.274V1758.229z"/>
			<path style="fill:#FFFFFF;" d="M406.26,1800.369c0.189,11.193,7.337,15.803,15.615,15.803c5.926,0,9.5-1.034,12.604-2.352
				l1.411,5.926c-2.916,1.317-7.901,2.822-15.144,2.822c-14.015,0-22.387-9.218-22.387-22.951c0-13.732,8.089-24.551,21.352-24.551
				c14.862,0,18.813,13.075,18.813,21.447c0,1.692-0.188,3.01-0.282,3.855H406.26z M430.528,1794.443
				c0.094-5.268-2.164-13.451-11.476-13.451c-8.372,0-12.04,7.714-12.698,13.451H430.528z"/>
			<path style="fill:#FFFFFF;" d="M473.983,1821.628l-0.658-5.737h-0.282c-2.539,3.573-7.431,6.771-13.921,6.771
				c-9.218,0-13.921-6.49-13.921-13.074c0-11.006,9.783-17.025,27.372-16.932v-0.94c0-3.763-1.035-10.535-10.347-10.535
				c-4.233,0-8.653,1.317-11.852,3.387l-1.881-5.456c3.762-2.445,9.218-4.045,14.956-4.045c13.921,0,17.308,9.501,17.308,18.625
				v17.025c0,3.951,0.188,7.807,0.753,10.911H473.983z M472.76,1798.395c-9.03-0.188-19.283,1.41-19.283,10.253
				c0,5.361,3.574,7.901,7.807,7.901c5.926,0,9.688-3.763,11.005-7.619c0.282-0.847,0.47-1.787,0.47-2.634V1798.395z"/>
			<path style="fill:#FFFFFF;" d="M494.11,1790.305c0-5.361-0.094-9.971-0.376-14.203h7.243l0.283,8.936h0.376
				c2.069-6.113,7.055-9.971,12.605-9.971c0.94,0,1.599,0.095,2.352,0.283v7.807c-0.847-0.188-1.693-0.282-2.822-0.282
				c-5.832,0-9.97,4.421-11.099,10.629c-0.188,1.129-0.376,2.446-0.376,3.856v24.269h-8.183V1790.305z"/>
			<path style="fill:#FFFFFF;" d="M525.243,1788.424c0-4.703-0.094-8.56-0.376-12.322h7.337l0.471,7.525h0.188
				c2.258-4.327,7.525-8.561,15.05-8.561c6.302,0,16.084,3.764,16.084,19.377v27.185h-8.277v-26.243
				c0-7.338-2.728-13.451-10.535-13.451c-5.455,0-9.688,3.856-11.099,8.465c-0.376,1.035-0.564,2.446-0.564,3.857v27.372h-8.277
				V1788.424z"/>
			<path style="fill:#FFFFFF;" d="M597.384,1788.424c0-4.703-0.094-8.56-0.376-12.322h7.243l0.376,7.337h0.282
				c2.54-4.327,6.773-8.372,14.298-8.372c6.208,0,10.911,3.764,12.887,9.125h0.188c1.411-2.54,3.198-4.516,5.08-5.926
				c2.728-2.07,5.737-3.199,10.064-3.199c6.02,0,14.956,3.951,14.956,19.754v26.808h-8.089v-25.773
				c0-8.747-3.198-14.016-9.876-14.016c-4.703,0-8.372,3.481-9.783,7.525c-0.376,1.129-0.659,2.634-0.659,4.139v28.125h-8.089
				v-27.278c0-7.242-3.198-12.511-9.501-12.511c-5.173,0-8.936,4.14-10.252,8.278c-0.471,1.223-0.659,2.633-0.659,4.045v27.466
				h-8.089V1788.424z"/>
			<path style="fill:#FFFFFF;" d="M717.029,1798.488c0,16.838-11.664,24.174-22.669,24.174c-12.323,0-21.823-9.029-21.823-23.421
				c0-15.238,9.971-24.175,22.575-24.175C708.188,1775.066,717.029,1784.567,717.029,1798.488z M680.909,1798.959
				c0,9.971,5.738,17.496,13.827,17.496c7.901,0,13.827-7.432,13.827-17.685c0-7.713-3.856-17.495-13.639-17.495
				C685.142,1781.275,680.909,1790.305,680.909,1798.959z"/>
			<path style="fill:#FFFFFF;" d="M727.468,1790.305c0-5.361-0.094-9.971-0.376-14.203h7.243l0.282,8.936h0.376
				c2.07-6.113,7.055-9.971,12.605-9.971c0.94,0,1.599,0.095,2.352,0.283v7.807c-0.847-0.188-1.693-0.282-2.822-0.282
				c-5.832,0-9.971,4.421-11.1,10.629c-0.188,1.129-0.376,2.446-0.376,3.856v24.269h-8.184V1790.305z"/>
			<path style="fill:#FFFFFF;" d="M761.894,1800.369c0.188,11.193,7.337,15.803,15.615,15.803c5.926,0,9.5-1.034,12.604-2.352
				l1.411,5.926c-2.916,1.317-7.901,2.822-15.144,2.822c-14.015,0-22.387-9.218-22.387-22.951c0-13.732,8.089-24.551,21.352-24.551
				c14.862,0,18.813,13.075,18.813,21.447c0,1.692-0.188,3.01-0.282,3.855H761.894z M786.162,1794.443
				c0.094-5.268-2.164-13.451-11.476-13.451c-8.372,0-12.04,7.714-12.699,13.451H786.162z"/>
		</g>
		<g>
			<path style="fill:#BDD3F9;" d="M866.231,139.247c2.873-0.479,6.634-0.889,11.421-0.889c5.881,0,10.19,1.368,12.926,3.83
				c2.531,2.189,4.035,5.54,4.035,9.643c0,4.172-1.231,7.455-3.556,9.849c-3.146,3.351-8.275,5.061-14.089,5.061
				c-1.778,0-3.419-0.068-4.787-0.41v18.465h-5.95V139.247z M872.181,161.473c1.299,0.342,2.941,0.479,4.924,0.479
				c7.181,0,11.558-3.488,11.558-9.848c0-6.087-4.308-9.028-10.874-9.028c-2.599,0-4.582,0.205-5.608,0.479V161.473z"/>
			<path style="fill:#BDD3F9;" d="M901.317,162.02c0-3.898-0.068-7.249-0.273-10.327h5.266l0.206,6.497h0.273
				c1.504-4.445,5.129-7.249,9.164-7.249c0.684,0,1.163,0.068,1.71,0.205v5.677c-0.616-0.137-1.231-0.206-2.052-0.206
				c-4.24,0-7.249,3.215-8.07,7.729c-0.137,0.821-0.274,1.778-0.274,2.804v17.644h-5.95V162.02z"/>
			<path style="fill:#BDD3F9;" d="M952.952,167.97c0,12.242-8.481,17.576-16.481,17.576c-8.96,0-15.867-6.565-15.867-17.029
				c0-11.079,7.249-17.576,16.413-17.576C946.523,150.941,952.952,157.849,952.952,167.97z M926.69,168.312
				c0,7.249,4.172,12.721,10.053,12.721c5.745,0,10.054-5.403,10.054-12.857c0-5.608-2.804-12.721-9.917-12.721
				C929.768,155.455,926.69,162.02,926.69,168.312z"/>
			<path style="fill:#BDD3F9;" d="M989.132,136.237v40.008c0,2.941,0.069,6.291,0.274,8.548h-5.403l-0.273-5.744h-0.137
				c-1.846,3.692-5.881,6.497-11.284,6.497c-8.002,0-14.157-6.771-14.157-16.824c-0.068-11.011,6.77-17.781,14.841-17.781
				c5.061,0,8.48,2.393,9.985,5.061h0.137v-19.765H989.132z M983.114,165.167c0-0.752-0.068-1.778-0.273-2.531
				c-0.889-3.83-4.172-6.976-8.686-6.976c-6.223,0-9.917,5.471-9.917,12.789c0,6.702,3.283,12.241,9.78,12.241
				c4.035,0,7.728-2.667,8.822-7.181c0.205-0.821,0.273-1.642,0.273-2.599V165.167z"/>
			<path style="fill:#BDD3F9;" d="M1026.817,175.767c0,3.42,0.068,6.429,0.273,9.027h-5.334l-0.342-5.402h-0.136
				c-1.573,2.667-5.062,6.155-10.943,6.155c-5.198,0-11.421-2.873-11.421-14.499v-19.354h6.018v18.329
				c0,6.292,1.915,10.532,7.386,10.532c4.035,0,6.839-2.804,7.933-5.471c0.342-0.889,0.547-1.983,0.547-3.078v-20.312h6.018V175.767
				z"/>
			<path style="fill:#BDD3F9;" d="M1060.397,183.563c-1.573,0.821-5.06,1.915-9.506,1.915c-9.985,0-16.482-6.77-16.482-16.892
				c0-10.19,6.976-17.577,17.781-17.577c3.557,0,6.703,0.889,8.344,1.71l-1.368,4.651c-1.437-0.821-3.693-1.573-6.976-1.573
				c-7.591,0-11.694,5.608-11.694,12.515c0,7.66,4.924,12.378,11.489,12.378c3.419,0,5.676-0.889,7.386-1.641L1060.397,183.563z"/>
			<path style="fill:#BDD3F9;" d="M1075.581,142.187v9.506h8.617v4.582h-8.617v17.85c0,4.104,1.163,6.429,4.514,6.429
				c1.573,0,2.735-0.205,3.487-0.41l0.274,4.514c-1.163,0.479-3.009,0.821-5.334,0.821c-2.804,0-5.061-0.889-6.497-2.53
				c-1.71-1.778-2.325-4.719-2.325-8.617v-18.055h-5.129v-4.582h5.129v-7.933L1075.581,142.187z"/>
			<path style="fill:#BDD3F9;" d="M1090.149,178.639c1.778,1.163,4.924,2.393,7.933,2.393c4.377,0,6.429-2.189,6.429-4.924
				c0-2.872-1.71-4.445-6.155-6.086c-5.95-2.12-8.754-5.403-8.754-9.37c0-5.335,4.309-9.711,11.421-9.711
				c3.351,0,6.292,0.957,8.138,2.051l-1.504,4.377c-1.3-0.821-3.693-1.915-6.771-1.915c-3.557,0-5.54,2.052-5.54,4.514
				c0,2.735,1.983,3.966,6.292,5.608c5.745,2.188,8.686,5.061,8.686,9.985c0,5.813-4.514,9.917-12.378,9.917
				c-3.625,0-6.976-0.889-9.301-2.257L1090.149,178.639z"/>
			<path style="fill:#BDD3F9;" d="M1295.457,183.29c-2.189,1.094-6.566,2.188-12.173,2.188c-12.994,0-22.774-8.207-22.774-23.321
				c0-14.431,9.78-24.21,24.073-24.21c5.745,0,9.37,1.231,10.942,2.052l-1.436,4.856c-2.257-1.094-5.471-1.915-9.301-1.915
				c-10.806,0-17.986,6.907-17.986,19.012c0,11.285,6.497,18.534,17.713,18.534c3.625,0,7.318-0.752,9.711-1.915L1295.457,183.29z"
				/>
			<path style="fill:#BDD3F9;" d="M1329.585,175.767c0,3.42,0.068,6.429,0.273,9.027h-5.334l-0.342-5.402h-0.137
				c-1.573,2.667-5.062,6.155-10.942,6.155c-5.198,0-11.421-2.873-11.421-14.499v-19.354h6.018v18.329
				c0,6.292,1.915,10.532,7.386,10.532c4.035,0,6.839-2.804,7.933-5.471c0.342-0.889,0.547-1.983,0.547-3.078v-20.312h6.018V175.767
				z"/>
			<path style="fill:#BDD3F9;" d="M1338.751,178.639c1.778,1.163,4.924,2.393,7.933,2.393c4.377,0,6.429-2.189,6.429-4.924
				c0-2.872-1.709-4.445-6.155-6.086c-5.95-2.12-8.754-5.403-8.754-9.37c0-5.335,4.309-9.711,11.421-9.711
				c3.351,0,6.292,0.957,8.138,2.051l-1.504,4.377c-1.3-0.821-3.693-1.915-6.771-1.915c-3.556,0-5.54,2.052-5.54,4.514
				c0,2.735,1.983,3.966,6.292,5.608c5.745,2.188,8.685,5.061,8.685,9.985c0,5.813-4.514,9.917-12.378,9.917
				c-3.625,0-6.976-0.889-9.301-2.257L1338.751,178.639z"/>
			<path style="fill:#BDD3F9;" d="M1373.904,142.187v9.506h8.617v4.582h-8.617v17.85c0,4.104,1.163,6.429,4.514,6.429
				c1.573,0,2.736-0.205,3.488-0.41l0.274,4.514c-1.163,0.479-3.009,0.821-5.334,0.821c-2.804,0-5.061-0.889-6.497-2.53
				c-1.71-1.778-2.325-4.719-2.325-8.617v-18.055h-5.129v-4.582h5.129v-7.933L1373.904,142.187z"/>
			<path style="fill:#BDD3F9;" d="M1418.838,167.97c0,12.242-8.48,17.576-16.482,17.576c-8.959,0-15.867-6.565-15.867-17.029
				c0-11.079,7.25-17.576,16.414-17.576C1412.409,150.941,1418.838,157.849,1418.838,167.97z M1392.576,168.312
				c0,7.249,4.172,12.721,10.053,12.721c5.745,0,10.054-5.403,10.054-12.857c0-5.608-2.804-12.721-9.917-12.721
				C1395.653,155.455,1392.576,162.02,1392.576,168.312z"/>
			<path style="fill:#BDD3F9;" d="M1426.43,160.652c0-3.42-0.068-6.224-0.273-8.959h5.266l0.274,5.334h0.205
				c1.847-3.146,4.924-6.086,10.395-6.086c4.514,0,7.934,2.735,9.37,6.633h0.137c1.026-1.846,2.325-3.283,3.693-4.308
				c1.984-1.504,4.172-2.325,7.318-2.325c4.377,0,10.874,2.872,10.874,14.361v19.491h-5.881v-18.738c0-6.36-2.325-10.19-7.181-10.19
				c-3.42,0-6.087,2.53-7.113,5.471c-0.274,0.821-0.479,1.915-0.479,3.009v20.448h-5.881v-19.833c0-5.266-2.325-9.096-6.908-9.096
				c-3.761,0-6.497,3.009-7.454,6.018c-0.342,0.889-0.479,1.915-0.479,2.941v19.969h-5.881V160.652z"/>
			<path style="fill:#BDD3F9;" d="M1486.821,169.338c0.137,8.139,5.334,11.49,11.353,11.49c4.309,0,6.907-0.752,9.164-1.71
				l1.026,4.309c-2.12,0.958-5.745,2.052-11.011,2.052c-10.19,0-16.277-6.702-16.277-16.687c0-9.985,5.882-17.85,15.524-17.85
				c10.806,0,13.678,9.506,13.678,15.593c0,1.231-0.137,2.189-0.205,2.804H1486.821z M1504.466,165.029
				c0.068-3.83-1.573-9.78-8.344-9.78c-6.087,0-8.754,5.608-9.233,9.78H1504.466z"/>
			<path style="fill:#BDD3F9;" d="M1517.734,162.02c0-3.898-0.068-7.249-0.273-10.327h5.266l0.206,6.497h0.273
				c1.504-4.445,5.129-7.249,9.164-7.249c0.684,0,1.163,0.068,1.71,0.205v5.677c-0.616-0.137-1.231-0.206-2.052-0.206
				c-4.24,0-7.25,3.215-8.07,7.729c-0.137,0.821-0.274,1.778-0.274,2.804v17.644h-5.95V162.02z"/>
			<path style="fill:#BDD3F9;" d="M1539.278,178.639c1.778,1.163,4.924,2.393,7.933,2.393c4.377,0,6.429-2.189,6.429-4.924
				c0-2.872-1.709-4.445-6.155-6.086c-5.95-2.12-8.754-5.403-8.754-9.37c0-5.335,4.309-9.711,11.421-9.711
				c3.351,0,6.292,0.957,8.138,2.051l-1.504,4.377c-1.299-0.821-3.693-1.915-6.77-1.915c-3.556,0-5.54,2.052-5.54,4.514
				c0,2.735,1.983,3.966,6.292,5.608c5.745,2.188,8.686,5.061,8.686,9.985c0,5.813-4.514,9.917-12.379,9.917
				c-3.625,0-6.976-0.889-9.301-2.257L1539.278,178.639z"/>
			<path style="fill:#BDD3F9;" d="M1719.829,170.295l-4.787,14.499h-6.155l15.661-46.094h7.181l15.73,46.094h-6.36l-4.924-14.499
				H1719.829z M1734.943,165.645l-4.514-13.268c-1.026-3.009-1.71-5.745-2.394-8.412h-0.137c-0.684,2.735-1.436,5.54-2.325,8.344
				l-4.514,13.336H1734.943z"/>
			<path style="fill:#BDD3F9;" d="M1753.548,184.794c0.137-2.257,0.273-5.608,0.273-8.548v-40.008h5.95v20.79h0.137
				c2.12-3.693,5.95-6.086,11.284-6.086c8.207,0,14.02,6.839,13.951,16.892c0,11.831-7.454,17.713-14.84,17.713
				c-4.787,0-8.617-1.847-11.079-6.224h-0.205l-0.274,5.471H1753.548z M1759.771,171.526c0,0.752,0.137,1.504,0.274,2.189
				c1.163,4.172,4.65,7.044,9.027,7.044c6.292,0,10.053-5.129,10.053-12.721c0-6.634-3.419-12.31-9.848-12.31
				c-4.103,0-7.933,2.804-9.164,7.386c-0.137,0.684-0.342,1.505-0.342,2.462V171.526z"/>
			<path style="fill:#BDD3F9;" d="M1822.691,167.97c0,12.242-8.481,17.576-16.482,17.576c-8.959,0-15.867-6.565-15.867-17.029
				c0-11.079,7.25-17.576,16.414-17.576C1816.262,150.941,1822.691,157.849,1822.691,167.97z M1796.429,168.312
				c0,7.249,4.172,12.721,10.053,12.721c5.745,0,10.053-5.403,10.053-12.857c0-5.608-2.804-12.721-9.917-12.721
				C1799.507,155.455,1796.429,162.02,1796.429,168.312z"/>
			<path style="fill:#BDD3F9;" d="M1857.981,175.767c0,3.42,0.069,6.429,0.273,9.027h-5.334l-0.342-5.402h-0.137
				c-1.573,2.667-5.061,6.155-10.942,6.155c-5.198,0-11.421-2.873-11.421-14.499v-19.354h6.018v18.329
				c0,6.292,1.915,10.532,7.386,10.532c4.035,0,6.839-2.804,7.933-5.471c0.342-0.889,0.547-1.983,0.547-3.078v-20.312h6.018V175.767
				z"/>
			<path style="fill:#BDD3F9;" d="M1875.217,142.187v9.506h8.617v4.582h-8.617v17.85c0,4.104,1.163,6.429,4.514,6.429
				c1.573,0,2.736-0.205,3.488-0.41l0.274,4.514c-1.163,0.479-3.009,0.821-5.334,0.821c-2.804,0-5.061-0.889-6.497-2.53
				c-1.71-1.778-2.325-4.719-2.325-8.617v-18.055h-5.13v-4.582h5.13v-7.933L1875.217,142.187z"/>
		</g>
		<g>
			<path style="fill:#6D89D0;" d="M3668.864,139.178h5.95v41.102h19.696v4.993h-25.646V139.178z"/>
			<path style="fill:#6D89D0;" d="M3729.938,168.448c0,12.242-8.48,17.576-16.481,17.576c-8.959,0-15.866-6.565-15.866-17.029
				c0-11.079,7.249-17.576,16.413-17.576C3723.509,151.419,3729.938,158.327,3729.938,168.448z M3703.676,168.79
				c0,7.249,4.173,12.72,10.054,12.72c5.744,0,10.053-5.403,10.053-12.857c0-5.608-2.804-12.721-9.916-12.721
				S3703.676,162.499,3703.676,168.79z"/>
			<path style="fill:#6D89D0;" d="M3766.049,152.172c-0.137,2.393-0.273,5.061-0.273,9.096v19.217
				c0,7.591-1.504,12.242-4.719,15.114c-3.215,3.009-7.865,3.967-12.037,3.967c-3.967,0-8.344-0.958-11.011-2.736l1.505-4.582
				c2.188,1.368,5.608,2.599,9.711,2.599c6.155,0,10.669-3.214,10.669-11.558v-3.693h-0.137c-1.847,3.078-5.402,5.54-10.532,5.54
				c-8.206,0-14.088-6.976-14.088-16.14c0-11.216,7.318-17.576,14.909-17.576c5.744,0,8.891,3.009,10.327,5.745h0.137l0.273-4.992
				H3766.049z M3759.825,165.234c0-1.025-0.068-1.915-0.341-2.735c-1.095-3.488-4.036-6.36-8.412-6.36
				c-5.745,0-9.849,4.856-9.849,12.516c0,6.497,3.282,11.899,9.78,11.899c3.692,0,7.043-2.325,8.343-6.155
				c0.343-1.026,0.479-2.188,0.479-3.214V165.234z"/>
			<path style="fill:#6D89D0;" d="M3782.054,142.871c0.068,2.052-1.437,3.693-3.83,3.693c-2.12,0-3.625-1.641-3.625-3.693
				c0-2.12,1.573-3.761,3.762-3.761C3780.617,139.109,3782.054,140.751,3782.054,142.871z M3775.352,185.273v-33.101h6.018v33.101
				H3775.352z"/>
			<path style="fill:#6D89D0;" d="M3791.355,161.131c0-3.42-0.069-6.224-0.274-8.959h5.334l0.343,5.471h0.137
				c1.641-3.146,5.471-6.224,10.942-6.224c4.582,0,11.694,2.735,11.694,14.088v19.765h-6.019v-19.081c0-5.334-1.983-9.78-7.659-9.78
				c-3.967,0-7.045,2.804-8.07,6.155c-0.273,0.752-0.41,1.778-0.41,2.804v19.901h-6.018V161.131z"/>
		</g>
	</g>
</g> -->
<g id="_2">
	<g>
		<g>
			<path style="fill:#D9E9FE;" d="M3720.92,2076.594c0,0,268.84,49.373,354.42-137.41
				c111.03-242.326-117.078-426.066-292.025-391.834c-381.215,74.595-289.419-748.336-901.219-580.385
				c-172.029,47.226-636.832-233.316-766.464,216.509c-30.826,106.966-140.041,118.745-298.585,186.618
				c-310.286,132.832-168.411,708.744,53.301,711.005S3720.92,2076.594,3720.92,2076.594z"/>
			<path style="fill:#FB7369;" d="M2931.391,1602.219c0,0,74.218-300.272,165.562-262.89
				c91.344,37.385-148.434,337.106-148.434,337.106s137.016-145.579,219.796-77.071c82.781,68.508-122.743,294.013-22.836,339.686
				c99.907,45.672,168.415-24.183,239.777,29.299c71.363,53.481,54.299,109.234,54.299,109.234s-557.459,1.206-557.459,0
				C2882.096,2076.376,2931.391,1602.219,2931.391,1602.219z"/>
			<path style="fill:#FB7369;" d="M2017.952,2076.376c0,0-88.792-91.929-19.567-145.511
				c69.224-53.584,151.045,83.419,185.295,51.071c34.25-32.349-182.669-192.184-117.974-266.393
				c64.696-74.21,142.711,28.542,146.516,49.473c3.806,20.931,0,314.063,0,314.063L2017.952,2076.376z"/>
			<path style="fill:#2E3552;" d="M4135.058,2081.783H1678.845c-0.051,0-0.093-0.042-0.093-0.093v-5.222
				c0-0.051,0.042-0.093,0.093-0.093h2456.212c0.051,0,0.093,0.042,0.093,0.093v5.222
				C4135.15,2081.741,4135.108,2081.783,4135.058,2081.783z"/>
			<g id="man_7_">
				<g>
					<path style="fill:#2C3A64;" d="M3859.094,1983.856c0,0,19.611,18.175,15.784,31.089c-3.826,12.914-21.524,21.524-23.916,37.309
						c-2.391,15.783-11.957,24.393-20.566,24.393c-8.608,0-41.045,0-41.045,0s-6.338-11.106,8.967-14.455
						c15.307-3.348,21.077-21.895,20.12-39.114c-0.956-17.22,1.436-40.177,1.436-40.177l32.524-7.653L3859.094,1983.856z"/>
					<path style="fill:#2C3A64;" d="M3614.68,2075.983c-0.308,0.158-0.74,0.3-1.289,0.441h-109.787
						c0.956-3.886,4.476-11.272,17.328-13.361c17.146-2.778,46.854-12.744,53.484-34.666c0.208-0.706,0.398-1.431,0.565-2.162
						c5.266-23.436,43.525,7.179,43.525,7.179s0.116,0.932,0.283,2.521C3619.672,2044.529,3621.943,2072.348,3614.68,2075.983z"/>
					<path style="fill:#35488B;" d="M3525.485,1449.115c0,0,5.813,72.506,12.643,159.661
						c9.283,118.395,20.447,263.821,21.552,291.372c1.908,47.84,9.57,124.362,9.57,124.362s18.166,18.181,54.526,10.518
						c0,0,32.401-109.239,41.655-224.819c0.144-1.895,0.287-3.803,0.431-5.712c8.61-117.662,21.997-365.426,21.997-365.426
						L3525.485,1449.115z"/>
					<path style="fill:#2C3A64;" d="M3525.485,1449.115c0,0,5.813,72.506,12.643,159.661l127.304,201.433
						c0.144-1.895,0.287-3.803,0.431-5.712c8.61-117.662,21.997-365.426,21.997-365.426L3525.485,1449.115z"/>
					<path style="fill:#35488B;" d="M3552.025,1457.726c0,0,104.748,262.587,173.622,385.989
						c68.876,123.4,90.399,157.839,90.399,157.839s39.46-15.784,43.047-26.546c0,0-26.338-238.233-72.463-296.308
						c-26.063-32.814-56.678-131.294-58.112-165.731c-1.436-34.438-9.327-102.596-9.327-102.596L3552.025,1457.726z"/>
				</g>
				<path style="fill:#A16D3C;" d="M3446.095,1385.233l-5.986,11.934c0,0-30.446,4.255-22.066,35.993c0,0,4.516,13.059,12.911,8.927
					c8.396-4.131,4.26-3.782,16.293-9.343c12.032-5.561,18.995-16.244,16.305-26.045l1.928-10.389L3446.095,1385.233z"/>
				<path style="fill:#935C2F;" d="M3605.747,1052.397c-4.657-27.499-4.8-43.797-4.8-43.797l53.146-42.832
					c-1.975,58.895,35.764,87.214,35.764,87.214s-70.822,34.861-111.758,21.95C3578.1,1074.933,3588.178,1062.051,3605.747,1052.397
					z"/>
				<path style="fill:#A16D3C;" d="M3588.429,1007.628c0,0,67.611,11.232,73.958-30.98c6.347-42.212,19.348-69.191-23.552-78.148
					c-42.899-8.956-53.729,5.888-59.274,19.462C3574.016,931.536,3571.004,1003.618,3588.429,1007.628z"/>
				<path style="fill:#2C3A64;" d="M3661.94,979.56c0,0-1.364-56.545-62.969-65.62c-42.196-6.216-16.644-41.476-11.818-47.06
					c0,0,32.256,6.155,65.271,13.401C3721.718,895.49,3669.265,971.152,3661.94,979.56z"/>
				<path style="fill:#F2564B;" d="M3453.188,1401.822c-9.037-9.273-15.748-21.348-15.748-21.348s76.819-95.442,83.063-105.34
					s52.898-168.651,52.898-168.651l117.979-23.9c0,0-98.478,203.169-114.791,227.937
					c-26.959,40.927-107.611,101.845-107.611,101.845S3460.287,1409.105,3453.188,1401.822z"/>
				<path style="fill:#6D89D0;" d="M3520.97,1455.155c1.232,1.022,2.663,1.64,4.302,1.64c15.371-0.21,60.194,8.328,98.121,4.434
					c31.975-3.07,60.273-12.542,90.665-26.164c4.035-1.81,13.323-6.767,13.115-11.278c-0.136-4.939-0.626-12.103-1.242-21.124
					c-2.151-31.369-5.9-85.324-2.245-147.571c0.657-11.591,1.002-23.087,1.045-34.407c0.313-84.363-16.416-158.566-50.03-183.68
					c-2.871-2.057-20.498,6.558-36.693,14.546c-14.964,7.383-29.928,8.197-44.067,5.336l-14.138,12.499
					c-17.22,15.988-36.078,37.718-44.276,70.715c-6.975,28.079-11.068,78.714-13.323,131.187
					c-1.024,23.777-1.85,47.763-2.058,70.517v0.815c-0.198,2.255-0.198,4.72-0.198,6.975
					C3519.121,1408.009,3519.946,1454.33,3520.97,1455.155z"/>
				<path style="fill:#F2564B;" d="M3725.931,1402.662c-2.151-31.369-5.9-85.324-2.245-147.571
					c0.657-11.591,1.002-23.087,1.045-34.407c-14.004-33.969-25.449-58.602-25.449-58.602h-35.294
					C3663.987,1162.082,3638.111,1338.828,3725.931,1402.662z"/>
				<g>
					<path style="fill:#A16D3C;" d="M3794.598,1413.65l6.7,11.547c0,0-13.126,27.798,18.014,38.183c0,0,13.397,3.38,14.543-5.907
						c1.146-9.286-0.829-5.635,1.114-18.748c1.943-13.112-3.177-24.791-12.849-27.912l-7.634-7.306L3794.598,1413.65z"/>
					<path style="fill:#6D89D0;" d="M3812.361,1416.807c-12.71,2.478-26.487,1.474-26.487,1.474s-37.732-116.562-42.589-127.209
						c-4.857-10.647-112.078-136.674-112.078-136.674l44.667-111.783c0,0,115.971,193.716,127.747,220.936
						c19.459,44.979,26.213,145.827,26.213,145.827S3822.344,1414.861,3812.361,1416.807z"/>
				</g>
			</g>
			<path style="fill:#2E49D3;" d="M2907.746,2076.376h-728.504c-7.125,0-12.955-5.83-12.955-12.955V657.866
				c0-7.125,5.83-12.955,12.955-12.955h728.503c7.126,0,12.955,5.83,12.955,12.955v1405.555
				C2920.7,2070.546,2914.871,2076.376,2907.746,2076.376z"/>
			<path style="fill:#6D89D0;" d="M2980.874,2076.376H2252.37c-7.125,0-12.955-5.83-12.955-12.955V657.866
				c0-7.125,5.83-12.955,12.955-12.955h728.504c7.125,0,12.954,5.83,12.954,12.955v1405.555
				C2993.828,2070.546,2987.999,2076.376,2980.874,2076.376z"/>
			<rect x="2266.397" y="759.362" style="fill:#D9E9FE;" width="698.857" height="1159.936"/>
			<g>
				<path style="fill:#FF9591;" d="M2727.182,699.096h-196.109c-4.197,0-7.631,3.434-7.631,7.63c0,4.197,3.434,7.63,7.631,7.63
					h196.109c4.197,0,7.631-3.433,7.631-7.63C2734.813,702.529,2731.379,699.096,2727.182,699.096z"/>
				<path style="fill:#FF9591;" d="M2496.242,699.096c-4.197,0-7.631,3.434-7.631,7.63c0,4.197,3.434,7.63,7.631,7.63
					c4.196,0,7.63-3.433,7.63-7.63C2503.872,702.529,2500.438,699.096,2496.242,699.096z"/>
			</g>
			
				<ellipse transform="matrix(0.7071 -0.7071 0.7071 0.7071 -653.3038 2437.6287)" style="fill:#FF9591;" cx="2615.826" cy="2007.422" rx="39.073" ry="39.073"/>
			<g>
				<path style="fill:#C7E1FF;" d="M3435.348,2075.646L3435.348,2075.646c-60.848,6.612-116.04-37.764-122.651-98.611
					l-108.114-995.086c-6.61-60.848,37.766-116.041,98.612-122.652h0.001c60.847-6.611,116.04,37.764,122.65,98.612l108.114,995.087
					C3540.57,2013.844,3496.195,2069.036,3435.348,2075.646z"/>
				<path style="fill:#C7E1FF;" d="M3336.158,911.853c1.32,12.24-7.596,23.344-19.845,24.676
					c-12.238,1.33-23.335-7.597-24.665-19.835l-10.111-93.074l-16.027-147.5c-1.331-12.238,7.596-23.344,19.834-24.674l0.151-0.016
					c12.181-1.238,23.198,7.659,24.523,19.85l16.06,147.814L3336.158,911.853z"/>
				<path style="fill:#D6716B;" d="M3326.401,819.061l-44.54,4.526l-16.028-147.5c-1.33-12.239,7.596-23.344,19.834-24.675
					l0.152-0.015c12.181-1.238,23.197,7.659,24.522,19.85L3326.401,819.061z"/>
				
					<rect x="3288.348" y="1709.225" transform="matrix(0.9949 -0.1011 0.1011 0.9949 -161.5703 352.8145)" style="fill:#D6716B;" width="223.423" height="122.446"/>
				<g>
					
						<rect x="3298.688" y="1006.983" transform="matrix(0.9949 -0.1011 0.1011 0.9949 -84.92 341.0698)" style="fill:#35488B;" width="47.863" height="2.787"/>
					
						<rect x="3300.428" y="1024.1" transform="matrix(0.9949 -0.1011 0.1011 0.9949 -86.6431 341.3412)" style="fill:#35488B;" width="47.862" height="2.786"/>
					
						<rect x="3302.167" y="1041.216" transform="matrix(0.9949 -0.1011 0.1011 0.9949 -88.3644 341.604)" style="fill:#35488B;" width="47.862" height="2.787"/>
					
						<rect x="3303.906" y="1058.332" transform="matrix(0.9949 -0.1011 0.1011 0.9949 -90.0815 341.8463)" style="fill:#35488B;" width="47.862" height="2.787"/>
					
						<rect x="3305.646" y="1075.449" transform="matrix(0.9949 -0.1011 0.1011 0.9949 -91.809 342.1382)" style="fill:#35488B;" width="47.862" height="2.787"/>
				</g>
				
					<rect x="3266.561" y="1093.237" transform="matrix(0.9949 -0.1011 0.1011 0.9949 -93.7447 342.425)" style="fill:#35488B;" width="129.946" height="5.743"/>
				<g>
					
						<rect x="3309.492" y="1113.31" transform="matrix(0.9949 -0.1011 0.1011 0.9949 -95.6171 342.7211)" style="fill:#35488B;" width="47.862" height="2.787"/>
					
						<rect x="3311.231" y="1130.427" transform="matrix(0.9949 -0.1011 0.1011 0.9949 -97.3304 342.949)" style="fill:#35488B;" width="47.863" height="2.786"/>
					
						<rect x="3312.971" y="1147.543" transform="matrix(0.9949 -0.1011 0.1011 0.9949 -99.0602 343.2482)" style="fill:#35488B;" width="47.862" height="2.787"/>
					
						<rect x="3314.71" y="1164.659" transform="matrix(0.9949 -0.1011 0.1011 0.9949 -100.7716 343.4695)" style="fill:#35488B;" width="47.863" height="2.787"/>
					
						<rect x="3316.45" y="1181.776" transform="matrix(0.9949 -0.1011 0.1011 0.9949 -102.4998 343.7609)" style="fill:#35488B;" width="47.863" height="2.787"/>
				</g>
				<g>
					
						<rect x="3321.653" y="1232.983" transform="matrix(0.9949 -0.1011 0.1011 0.9949 -107.6519 344.5566)" style="fill:#35488B;" width="47.862" height="2.787"/>
					
						<rect x="3323.393" y="1250.1" transform="matrix(0.9949 -0.1011 0.1011 0.9949 -109.364 344.7842)" style="fill:#35488B;" width="47.863" height="2.787"/>
					
						<rect x="3325.132" y="1267.217" transform="matrix(0.9949 -0.1011 0.1011 0.9949 -111.0952 345.0844)" style="fill:#35488B;" width="47.862" height="2.786"/>
					
						<rect x="3326.872" y="1284.333" transform="matrix(0.9949 -0.1011 0.1011 0.9949 -112.7989 345.2824)" style="fill:#35488B;" width="47.862" height="2.786"/>
					
						<rect x="3328.611" y="1301.449" transform="matrix(0.9949 -0.1011 0.1011 0.9949 -114.538 345.6108)" style="fill:#35488B;" width="47.862" height="2.787"/>
				</g>
				
					<rect x="3289.527" y="1319.237" transform="matrix(0.9949 -0.1011 0.1011 0.9949 -116.4713 345.8914)" style="fill:#35488B;" width="129.946" height="5.743"/>
				<g>
					
						<rect x="3333.899" y="1353.498" transform="matrix(0.9949 -0.1011 0.1011 0.9949 -119.7751 346.4194)" style="fill:#35488B;" width="47.863" height="2.787"/>
					
						<rect x="3335.639" y="1370.615" transform="matrix(0.9949 -0.1011 0.1011 0.9949 -121.4966 346.6829)" style="fill:#35488B;" width="47.862" height="2.787"/>
					
						<rect x="3337.378" y="1387.731" transform="matrix(0.9949 -0.1011 0.1011 0.9949 -123.2162 346.9399)" style="fill:#35488B;" width="47.863" height="2.787"/>
					
						<rect x="3339.118" y="1404.848" transform="matrix(0.9949 -0.1011 0.1011 0.9949 -124.9398 347.2101)" style="fill:#35488B;" width="47.862" height="2.786"/>
					
						<rect x="3340.857" y="1421.964" transform="matrix(0.9949 -0.1011 0.1011 0.9949 -126.6613 347.4736)" style="fill:#35488B;" width="47.862" height="2.787"/>
				</g>
				
					<rect x="3301.773" y="1439.752" transform="matrix(0.9949 -0.1011 0.1011 0.9949 -128.6002 347.7736)" style="fill:#35488B;" width="129.946" height="5.744"/>
				<g>
					
						<rect x="3345.989" y="1472.466" transform="matrix(0.9949 -0.1011 0.1011 0.9949 -131.7408 348.2511)" style="fill:#35488B;" width="47.862" height="2.786"/>
					
						<rect x="3347.728" y="1489.582" transform="matrix(0.9949 -0.1011 0.1011 0.9949 -133.4626 348.5154)" style="fill:#35488B;" width="47.863" height="2.787"/>
					
						<rect x="3349.467" y="1506.698" transform="matrix(0.9949 -0.1011 0.1011 0.9949 -135.1839 348.7783)" style="fill:#35488B;" width="47.863" height="2.787"/>
					
						<rect x="3351.207" y="1523.816" transform="matrix(0.9949 -0.1011 0.1011 0.9949 -136.9057 349.0426)" style="fill:#35488B;" width="47.863" height="2.786"/>
					
						<rect x="3352.946" y="1540.931" transform="matrix(0.9949 -0.1011 0.1011 0.9949 -138.6245 349.2979)" style="fill:#35488B;" width="47.862" height="2.787"/>
				</g>
				
					<rect x="3313.862" y="1558.72" transform="matrix(0.9949 -0.1011 0.1011 0.9949 -140.5641 349.6)" style="fill:#35488B;" width="129.947" height="5.744"/>
				<g>
					
						<rect x="3358.376" y="1594.365" transform="matrix(0.9949 -0.1011 0.1011 0.9949 -144.0014 350.1281)" style="fill:#35488B;" width="47.863" height="2.787"/>
					
						<rect x="3360.116" y="1611.483" transform="matrix(0.9949 -0.1011 0.1011 0.9949 -145.7233 350.3924)" style="fill:#35488B;" width="47.862" height="2.787"/>
					
						<rect x="3361.855" y="1628.599" transform="matrix(0.9949 -0.1011 0.1011 0.9949 -147.4419 350.6478)" style="fill:#35488B;" width="47.863" height="2.787"/>
					
						<rect x="3363.594" y="1645.715" transform="matrix(0.9949 -0.1011 0.1011 0.9949 -149.1661 350.9187)" style="fill:#35488B;" width="47.862" height="2.787"/>
					
						<rect x="3365.334" y="1662.832" transform="matrix(0.9949 -0.1011 0.1011 0.9949 -150.8877 351.1823)" style="fill:#35488B;" width="47.862" height="2.786"/>
				</g>
				
					<rect x="3326.25" y="1680.619" transform="matrix(0.9949 -0.1011 0.1011 0.9949 -152.8267 351.4824)" style="fill:#35488B;" width="129.946" height="5.744"/>
				<path style="opacity:0.1;fill:#35488B;" d="M3431.116,2076.078L3431.116,2076.078c-45.846,4.658-87.167-29.04-91.825-74.885
					L3232.542,950.692c-4.658-45.845,29.039-87.165,74.885-91.825l0,0c45.845-4.658,87.166,29.039,91.824,74.884l106.75,1050.501
					C3510.659,2030.098,3476.961,2071.418,3431.116,2076.078z"/>
				<path style="fill:#D6716B;" d="M3382.375,1198.367c-0.328-3.233,2.026-6.121,5.26-6.449c3.233-0.329,6.121,2.026,6.449,5.259
					c0.329,3.233-2.026,6.121-5.259,6.449C3385.592,1203.955,3382.704,1201.601,3382.375,1198.367z"/>
				
					<rect x="3283.684" y="1201.435" transform="matrix(0.9949 -0.1011 0.1011 0.9949 -104.7191 342.1982)" style="fill:#D6716B;" width="80.487" height="5.744"/>
				<path style="fill:#35488B;" d="M3319.691,917.125l84.647,832.997c0.351,3.447-2.19,6.563-5.639,6.913
					c-3.457,0.352-6.572-2.189-6.923-5.637l-84.647-832.997c-0.351-3.457,2.191-6.564,5.648-6.915
					c1.724-0.175,3.366,0.37,4.615,1.388C3318.652,913.901,3319.517,915.401,3319.691,917.125z"/>
				<path style="fill:#D6716B;" d="M3319.691,917.125l27,265.704l-12.562,1.276l-27-265.704c-0.351-3.457,2.191-6.564,5.648-6.915
					c1.724-0.175,3.366,0.37,4.615,1.388C3318.652,913.901,3319.517,915.401,3319.691,917.125z"/>
			</g>
			<path style="opacity:0.3;fill:#7DABBD;" d="M2267.193,1526.248c0,0,46.867-112.916,138.643-99.543
				c91.776,13.373,253.754,9.509,360.883-56.19c107.131-65.699,199.332-34.782,199.332-34.782v583.565h-698.857V1526.248z"/>
			<g>
				<path style="fill:#FFFFFF;" d="M1797.907,1538.002c0,0,249.269,1.282,416.007,77.164c0,0-24.955,400.043-299.765,461.21
					C1914.149,2076.376,1680.822,1937.705,1797.907,1538.002z"/>
				<path style="fill:#2E49D3;" d="M1821.064,1568.088c0,0,226.541,12.383,356.442,65.682c0,0-13.445,326.162-253.577,403.405
					C1923.93,2037.175,1734.257,1943.582,1821.064,1568.088z"/>
				<polygon style="fill:#FFFFFF;" points="2070.473,1755.843 2004.159,1743.623 2016.077,1678.946 1955.341,1667.755 
					1943.423,1732.432 1880.384,1720.815 1869.192,1781.551 1932.231,1793.168 1920.313,1857.844 1981.049,1869.036 
					1992.967,1804.359 2059.28,1816.579 				"/>
			</g>
			<g>
				<defs>
					<rect id="SVGID_1_" x="2267.193" y="759.362" width="698.857" height="1159.936"/>
				</defs>
				<clipPath id="SVGID_00000021806442720617637860000001360682540551558534_">
					<use xlink:href="#SVGID_1_"  style="overflow:visible;"/>
				</clipPath>
				<g style="clip-path:url(#SVGID_00000021806442720617637860000001360682540551558534_);">
					<path style="fill:#F4AC75;" d="M2555.713,1261.426c-39.027,12.311-106.561-20.925-106.561-20.925s30.449-22.85,33.857-70.252
						c0.058-0.651,0.096-1.302,0.124-1.962c0.201-3.513,0.249-7.17,0.125-10.951l10.683,8.606l39.984,32.24
						c0,0-2.049,15.891-2.871,42.377c6.337,3.475,11.41,7.313,15.258,10.731C2552.659,1256.918,2555.713,1261.426,2555.713,1261.426
						z"/>
					<path style="fill:#F4AC75;" d="M2405.836,1235.446c0,0,103.158-16.273,171.123,28.718c0,0,46.173,301.848,5.969,330.408
						c-40.205,28.56-177.092,0-177.092,0V1235.446z"/>
					<path style="fill:#E9F2FF;" d="M2543.499,1919.296h-186.415c0,0,21.662-318.084,27.846-395.517
						c5.026-62.806,15.651-213.39,19.49-268.059c0.89-12.741,1.416-20.274,1.416-20.274l44.503-7.582l76.437,99.066
						c0,0,12.09,264.191,11.649,305.832c-0.431,41.64,4.825,203.884,5.074,231.165
						C2543.738,1891.2,2543.499,1919.296,2543.499,1919.296z"/>
					<path style="fill:#E9F2FF;" d="M2526.78,1326.935l16.714,592.363h87.828c0,0-4.063-389.6-4.361-425.395
						s9.544-189.991-17.864-213.923c-22.911-20.005-78.042-39.427-78.042-39.427L2526.78,1326.935z"/>
					<path style="fill:#E9F2FF;" d="M2531.618,1226.884c0,0,25.038,17.251,24.098,23.445s-4.378,15.988-4.378,15.988l-15.315-3.11
						l12.923,9.093c0,0-14.656,42.739-22.165,54.635L2531.618,1226.884z"/>
					<path style="opacity:0.2;fill:#B2CBFD;" d="M2393.921,1403.333c10.958-67.375,137.635,32.188,127.104,120.557
						c-19.481,163.489-102.438,345.777-163.941,395.406L2393.921,1403.333z"/>
					<path style="fill:#C97C47;" d="M2483.01,1170.248c-0.172-1.214-0.564-1.81-0.564-1.81l0.688-0.153l10.808-2.345l39.984,32.24
						c0,0-1.729,15.011-2.967,42.447C2530.855,1240.49,2489.755,1217.737,2483.01,1170.248z"/>
					<path style="fill:#F4AC75;" d="M2550.217,1207.975c0,0-69.613-1.949-67.732-45.281c1.881-43.333-5.838-72.769,38.688-73.356
						c44.525-0.588,52.438,16.322,55.328,30.938C2579.391,1134.891,2568.373,1207.365,2550.217,1207.975z"/>
					<path style="fill:#2C3A64;" d="M2482.446,1168.438c0,0,9.063,2.393,16.243-7.179s19.145-46.427,34.939-48.82
						c15.795-2.393,36.615,9.333,43.33,2.633c9.786-9.766,22.411-25.75,22.411-25.75s-78.345-55.855-109.615-30.01
						C2458.485,1085.158,2447.538,1122.97,2482.446,1168.438z"/>
					<g>
						<path style="fill:#2C3A64;" d="M2576.466,1323.194c-1.468-26.837-16.117-70.563-16.244-70.984l4.177,1.855
							c0.526,1.746,12.169,41.656,13.668,69.068L2576.466,1323.194z"/>
					</g>
					<g>
						<path style="fill:#2C3A64;" d="M2475.08,1403.333c-1.469-1.525-37.305-35.994-29.662-60.139
							c2.979-9.411,8.462-13.108,14.281-15.852c5.427-1.975,18.089-4.036,24.632,0.079c11.939,7.512,17.957,28.272,19.728,62.798
							l-1.455,0.074c-2.1-40.952-12.66-55.78-20.547-59.123c-9.917-4.202-27.313-2.459-32.785,13.401
							c-3.771,10.928,3.627,26.206,10.49,36.694c7.622,11.649,15.928,21.977,16.014,22.066H2475.08z"/>
					</g>
					<path style="fill:#6D89D0;" d="M2478.803,1407.056L2478.803,1407.056c-1.373,1.373-3.619,1.373-4.992,0l-2.453-2.454
						c-1.373-1.373-1.373-3.619,0-4.992l0,0c1.372-1.372,3.619-1.372,4.992,0l2.453,2.455
						C2480.176,1403.436,2480.176,1405.683,2478.803,1407.056z"/>
					<path style="fill:#6D89D0;" d="M2503.463,1396.812L2503.463,1396.812c-1.941,0-3.53-1.588-3.53-3.53v-3.469
						c0-1.942,1.589-3.53,3.53-3.53l0,0c1.941,0,3.529,1.588,3.529,3.53v3.469
						C2506.992,1395.224,2505.404,1396.812,2503.463,1396.812z"/>
					<path style="fill:#2C3A64;" d="M2567.387,1323.194c0-5.287,4.285-9.573,9.572-9.573c5.286,0,9.572,4.286,9.572,9.573
						c0,5.286-4.286,9.572-9.572,9.572C2571.672,1332.767,2567.387,1328.48,2567.387,1323.194z"/>
					<path style="fill:#D6716B;" d="M2572.452,1323.194c0-2.688,2.179-4.866,4.865-4.866c2.688,0,4.866,2.179,4.866,4.866
						c0,2.687-2.179,4.866-4.866,4.866C2574.631,1328.061,2572.452,1325.881,2572.452,1323.194z"/>
					<g>
						<path style="fill:#B2CBFD;" d="M2533.577,1919.296c-0.062-0.597-6.093-60.263-4.353-112.123
							c0.734-21.911,0.113-47.673-0.486-72.585c-0.856-35.535-2.767-69.758,0.104-92.071c4.914-38.185,3.933-211.757,1.918-230.566
							c-1.966-18.339-0.087-38.459,1.731-44.523c1.854-6.181-6.087-40.029-6.176-40.374l0.927-0.239
							c0.366,1.417,8.936,34.754,7.004,41.189c-1.8,6.002-4.485,25.642-2.535,43.844c2.018,18.829,5.878,192.367,0.96,230.59
							c-2.861,22.242-3.832,56.63-2.977,92.127c0.601,24.927,1.222,50.702,0.486,72.641c-1.738,51.797,7.056,111.495,7.117,112.092
							H2533.577z"/>
					</g>
					<path style="fill:#E9F2FF;" d="M2687.943,1442.808c0,0,23.584,40.603-1.146,51.285c-24.73,10.684-27.4-0.574-27.4-0.574
						L2687.943,1442.808z"/>
					<path style="fill:#E9F2FF;" d="M2490.313,1467.818c0,0,3.75,7.649,3.328,14.518c-0.442,7.185-3.807,18.029-3.807,18.029
						s-145.617,30.996-173.913,5.083c-30.383-27.818,25.989-236.833,50.112-257.28c10.396-8.816,32.316-14.196,52.553-17.413
						c11.152-1.78,21.787-2.9,29.703-3.58c8.156-0.708,13.44-0.938,13.44-0.938l-3.283,12.137l-12.771,47.192l-14.885,55.042
						c0,0-44.512,91.619-45.948,100.233C2383.408,1449.459,2490.313,1467.818,2490.313,1467.818z"/>
					<path style="opacity:0.2;fill:#B2CBFD;" d="M2510.581,1312.293c0,0-37.135-16.167-63.822-30.898
						c-17.425-9.619-26.344-27.627-28.172-50.639c11.152-1.78,21.787-2.9,29.703-3.58c1.283,0.411,2.049,0.689,2.049,0.689
						l8.108,10.51L2510.581,1312.293z"/>
					<path style="fill:#E9F2FF;" d="M2526.78,1326.935l-57.837-110.296c0,0-21.574,4.374-28.817,11.164
						c0,0,3.682,33.171,6.553,40.51c0,0,11.168-1.276,12.764-0.319c0,0-5.425,8.297-7.021,9.254
						C2452.422,1277.246,2502.7,1300.68,2526.78,1326.935z"/>
					<g>
						<path style="fill:#2C3A64;" d="M2459.861,1331.171c-3.952-8.731-38.783-83.119-29.915-102.047l3.405-0.422
							c-6.717,14.339,17.426,79.004,27.911,102.171L2459.861,1331.171z"/>
					</g>
					<path style="opacity:0.5;fill:#B2CBFD;" d="M2536.617,1395.568c0-2.564,2.079-4.643,4.644-4.643s4.643,2.078,4.643,4.643
						s-2.078,4.644-4.643,4.644S2536.617,1398.133,2536.617,1395.568z"/>
					<path style="opacity:0.5;fill:#B2CBFD;" d="M2536.617,1655.679c0-2.564,2.079-4.644,4.644-4.644s4.643,2.079,4.643,4.644
						s-2.078,4.644-4.643,4.644S2536.617,1658.243,2536.617,1655.679z"/>
					<path style="opacity:0.5;fill:#B2CBFD;" d="M2538.962,1536.805c0-2.563,2.079-4.643,4.643-4.643
						c2.564,0,4.644,2.079,4.644,4.643c0,2.564-2.079,4.644-4.644,4.644C2541.041,1541.448,2538.962,1539.369,2538.962,1536.805z"/>
					<path style="opacity:0.5;fill:#B2CBFD;" d="M2538.962,1768.697c0-2.564,2.079-4.644,4.643-4.644
						c2.564,0,4.644,2.079,4.644,4.644s-2.079,4.644-4.644,4.644C2541.041,1773.341,2538.962,1771.262,2538.962,1768.697z"/>
					<path style="fill:#7A97F3;" d="M2487.596,1252.21c0,0,16.094,7.92,42.107,3.02l-2.923,71.705L2487.596,1252.21z"/>
					<g>
						<polygon style="fill:#D6716B;" points="2589.272,1337.043 2739.877,1350.536 2647.981,1513.782 2506.225,1505.643 						"/>
						<path style="fill:#B2CBFD;" d="M2603.148,1336.29c0,0,0.065-23.073,12.818-21.479s16.604,24.775,16.604,24.775
							L2603.148,1336.29z"/>
						<polygon style="fill:#6D89D0;" points="2738.896,1348.477 2588.29,1334.983 2505.241,1503.583 2506.259,1505.676 
							2589.308,1337.078 2739.912,1350.57 						"/>
						<path style="fill:#E9F2FF;" d="M2615.967,1314.812c0,0,21.281,10.448,13.761,43.927
							c-7.521,33.477-16.891,51.842-11.431,71.644l101.452,9.313c0,0-11.024-26.325,1.224-52.971
							c12.248-26.645,3.546-57.095-7.696-59.745L2615.967,1314.812z"/>
					</g>
					<path style="fill:#F4AC75;" d="M2666.634,1483.395c0,0-15.423-18.532-12.231-31.934c3.19-13.402,14.678-16.501,21.697-11.761
						s17.23,15.589,15.316,23.886C2689.501,1471.882,2674.399,1487.249,2666.634,1483.395z"/>
					<path style="fill:#F4AC75;" d="M2482.613,1472.365c0,0,26.127-11.487,38.093-8.137s28.107,5.744,29.37,10.051
						c1.262,4.309-8.607,20.256-23.296,21.06c-14.689,0.805-40.535,7.659-46.757,0
						C2473.801,1487.682,2482.613,1472.365,2482.613,1472.365z"/>
				</g>
			</g>
			<g>
				<path style="fill:#FF7469;" d="M3054.712,1041.093h-362.001c-8.473,0-15.404,6.932-15.404,15.404v156.611
					c0,8.472,6.932,15.404,15.404,15.404h20.539v41.078l64.033-41.078h277.429c8.473,0,15.405-6.932,15.405-15.404v-156.611
					C3070.117,1048.025,3063.185,1041.093,3054.712,1041.093z"/>
				<g style="opacity:0.4;">
					<path style="fill:#FF9591;" d="M3018.769,1103.994h-290.114c-5.648,0-10.27-4.622-10.27-10.27l0,0
						c0-5.648,4.621-10.27,10.27-10.27h290.114c5.648,0,10.271,4.622,10.271,10.27l0,0
						C3029.039,1099.373,3024.417,1103.994,3018.769,1103.994z"/>
					<path style="fill:#FF9591;" d="M3018.769,1141.221h-290.114c-5.648,0-10.27-4.621-10.27-10.269l0,0
						c0-5.648,4.621-10.27,10.27-10.27h290.114c5.648,0,10.271,4.621,10.271,10.27l0,0
						C3029.039,1136.6,3024.417,1141.221,3018.769,1141.221z"/>
					<path style="fill:#FF9591;" d="M3018.769,1178.448h-290.114c-5.648,0-10.27-4.622-10.27-10.27l0,0
						c0-5.648,4.621-10.27,10.27-10.27h290.114c5.648,0,10.271,4.621,10.271,10.27l0,0
						C3029.039,1173.827,3024.417,1178.448,3018.769,1178.448z"/>
				</g>
			</g>
			<g>
				<path style="fill:#FF7469;" d="M4122.344,782.068h-362.002c-8.473,0-15.404,6.932-15.404,15.404v156.611
					c0,8.472,6.932,15.404,15.404,15.404h20.54v41.079l64.032-41.079h277.43c8.472,0,15.403-6.932,15.403-15.404V797.472
					C4137.747,789,4130.815,782.068,4122.344,782.068z"/>
				<g style="opacity:0.4;">
					<path style="fill:#FF9591;" d="M4086.4,844.969h-290.115c-5.648,0-10.27-4.621-10.27-10.27l0,0
						c0-5.648,4.621-10.27,10.27-10.27H4086.4c5.647,0,10.27,4.622,10.27,10.27l0,0
						C4096.67,840.348,4092.048,844.969,4086.4,844.969z"/>
					<path style="fill:#FF9591;" d="M4086.4,882.196h-290.115c-5.648,0-10.27-4.622-10.27-10.27l0,0
						c0-5.648,4.621-10.269,10.27-10.269H4086.4c5.647,0,10.27,4.621,10.27,10.269l0,0
						C4096.67,877.575,4092.048,882.196,4086.4,882.196z"/>
					<path style="fill:#FF9591;" d="M4086.4,919.423h-290.115c-5.648,0-10.27-4.621-10.27-10.269l0,0
						c0-5.648,4.621-10.27,10.27-10.27H4086.4c5.647,0,10.27,4.622,10.27,10.27l0,0
						C4096.67,914.802,4092.048,919.423,4086.4,919.423z"/>
				</g>
			</g>
			<path style="fill:#EAF1F8;" d="M2595.734,960.804h-274.854c-1.41,0-2.564-1.154-2.564-2.564V814.045
				c0-1.41,1.154-2.564,2.564-2.564h274.854c1.41,0,2.564,1.154,2.564,2.564V958.24
				C2598.299,959.65,2597.145,960.804,2595.734,960.804z"/>
			<path style="fill:#EAF1F8;" d="M2918.137,960.804h-277.599c-1.41,0-2.564-1.154-2.564-2.564V814.045
				c0-1.41,1.153-2.564,2.564-2.564h277.599c1.41,0,2.563,1.154,2.563,2.564V958.24
				C2920.7,959.65,2919.547,960.804,2918.137,960.804z"/>
			<path style="fill:#D6716B;" d="M2429.567,845.945c-20.201-3.438-31.079,17.623-31.079,17.623s-10.878-21.061-31.079-17.623
				c-20.201,3.438-26.029,23.641-20.59,37.825c5.438,14.184,51.669,51.579,51.669,51.579s46.23-37.395,51.669-51.579
				C2455.597,869.586,2449.769,849.383,2429.567,845.945z"/>
			<g>
				<polygon style="fill:#EAF1F8;" points="2409.157,901.327 2411.041,885.504 2394.509,885.504 2394.509,876.669 2385.894,901.239 
					2385.894,884.002 2377.142,884.002 2371.531,900.365 2367.317,875.38 2360.954,888.052 2360.099,887.622 2367.775,872.336 
					2371.849,896.489 2376.458,883.044 2386.851,883.044 2386.851,895.616 2395.466,871.047 2395.466,884.547 2412.119,884.547 
					2410.812,895.528 2421.95,871.704 2421.95,884.148 2431.921,884.148 2431.921,890.911 2436.028,881.327 2436.908,881.704 
					2430.965,895.574 2430.965,885.106 2420.993,885.106 2420.993,876.012 				"/>
			</g>
			<g>
				<path style="fill:#B2CBFD;" d="M2569.067,860.005h-93.53c-2.535,0-4.608-2.073-4.608-4.607l0,0c0-2.534,2.073-4.608,4.608-4.608
					h93.53c2.533,0,4.606,2.073,4.606,4.608l0,0C2573.674,857.932,2571.601,860.005,2569.067,860.005z"/>
				<path style="fill:#B2CBFD;" d="M2569.067,879.083h-93.53c-2.535,0-4.608-2.073-4.608-4.607l0,0c0-2.534,2.073-4.608,4.608-4.608
					h93.53c2.533,0,4.606,2.074,4.606,4.608l0,0C2573.674,877.009,2571.601,879.083,2569.067,879.083z"/>
				<path style="fill:#B2CBFD;" d="M2569.067,900.289h-93.53c-2.535,0-4.608-2.073-4.608-4.607l0,0c0-2.534,2.073-4.607,4.608-4.607
					h93.53c2.533,0,4.606,2.073,4.606,4.607l0,0C2573.674,898.216,2571.601,900.289,2569.067,900.289z"/>
				<path style="fill:#B2CBFD;" d="M2569.067,921.495h-93.53c-2.535,0-4.608-2.073-4.608-4.607l0,0c0-2.534,2.073-4.607,4.608-4.607
					h93.53c2.533,0,4.606,2.073,4.606,4.607l0,0C2573.674,919.422,2571.601,921.495,2569.067,921.495z"/>
			</g>
			<g>
				<path style="fill:#B2CBFD;" d="M2864.857,860.005h-93.53c-2.534,0-4.608-2.073-4.608-4.607l0,0c0-2.534,2.074-4.608,4.608-4.608
					h93.53c2.533,0,4.606,2.073,4.606,4.608l0,0C2869.464,857.932,2867.391,860.005,2864.857,860.005z"/>
				<path style="fill:#B2CBFD;" d="M2864.857,879.083h-93.53c-2.534,0-4.608-2.073-4.608-4.607l0,0c0-2.534,2.074-4.608,4.608-4.608
					h93.53c2.533,0,4.606,2.074,4.606,4.608l0,0C2869.464,877.009,2867.391,879.083,2864.857,879.083z"/>
				<path style="fill:#B2CBFD;" d="M2864.857,900.289h-93.53c-2.534,0-4.608-2.073-4.608-4.607l0,0c0-2.534,2.074-4.607,4.608-4.607
					h93.53c2.533,0,4.606,2.073,4.606,4.607l0,0C2869.464,898.216,2867.391,900.289,2864.857,900.289z"/>
				<path style="fill:#B2CBFD;" d="M2864.857,921.495h-93.53c-2.534,0-4.608-2.073-4.608-4.607l0,0c0-2.534,2.074-4.607,4.608-4.607
					h93.53c2.533,0,4.606,2.073,4.606,4.607l0,0C2869.464,919.422,2867.391,921.495,2864.857,921.495z"/>
			</g>
			<g>
				<path style="fill:#EAF1F8;" d="M2901.438,1756.08h-155.108c-4.203,0-7.642,3.438-7.642,7.641c0,4.202,3.438,7.641,7.642,7.641
					h155.108c4.202,0,7.641-3.438,7.641-7.641C2909.078,1759.518,2905.64,1756.08,2901.438,1756.08z"/>
				<path style="fill:#EAF1F8;" d="M2901.438,1787.718h-155.108c-4.203,0-7.642,3.438-7.642,7.642c0,4.202,3.438,7.641,7.642,7.641
					h155.108c4.202,0,7.641-3.438,7.641-7.641C2909.078,1791.156,2905.64,1787.718,2901.438,1787.718z"/>
				<path style="fill:#EAF1F8;" d="M2901.438,1822.887h-155.108c-4.203,0-7.642,3.438-7.642,7.641c0,4.202,3.438,7.641,7.642,7.641
					h155.108c4.202,0,7.641-3.438,7.641-7.641C2909.078,1826.324,2905.64,1822.887,2901.438,1822.887z"/>
				<path style="fill:#EAF1F8;" d="M2901.438,1858.055h-155.108c-4.203,0-7.642,3.438-7.642,7.641s3.438,7.642,7.642,7.642h155.108
					c4.202,0,7.641-3.439,7.641-7.642S2905.64,1858.055,2901.438,1858.055z"/>
				<path style="fill:#EAF1F8;" d="M2901.438,1589.857h-155.108c-4.203,0-7.642,3.438-7.642,7.64l0,0
					c0,4.203,3.438,7.642,7.642,7.642h155.108c4.202,0,7.641-3.438,7.641-7.642l0,0
					C2909.078,1593.296,2905.64,1589.857,2901.438,1589.857z"/>
				<path style="fill:#EAF1F8;" d="M2901.438,1621.495h-155.108c-4.203,0-7.642,3.438-7.642,7.641l0,0
					c0,4.203,3.438,7.641,7.642,7.641h155.108c4.202,0,7.641-3.438,7.641-7.641l0,0
					C2909.078,1624.934,2905.64,1621.495,2901.438,1621.495z"/>
				<path style="fill:#EAF1F8;" d="M2901.438,1656.664h-155.108c-4.203,0-7.642,3.438-7.642,7.641l0,0
					c0,4.202,3.438,7.641,7.642,7.641h155.108c4.202,0,7.641-3.438,7.641-7.641l0,0
					C2909.078,1660.102,2905.64,1656.664,2901.438,1656.664z"/>
				<path style="fill:#EAF1F8;" d="M2901.438,1691.832h-155.108c-4.203,0-7.642,3.438-7.642,7.641l0,0
					c0,4.202,3.438,7.641,7.642,7.641h155.108c4.202,0,7.641-3.438,7.641-7.641l0,0
					C2909.078,1695.27,2905.64,1691.832,2901.438,1691.832z"/>
			</g>
			<g>
				<path style="fill:#D6716B;" d="M2674.664,905.839c-2.161,10.122,0.077,27.466,22.723,34.604
					c22.646,7.138,39.336-10.608,41.229-28.108c1.894-17.5-34.3-82.112-34.3-82.112S2678.994,885.56,2674.664,905.839z"/>
				<path style="fill:#EAF1F8;" d="M2719.247,904.723h-9.983v-9.983c0-1.601-1.31-2.911-2.911-2.911
					c-1.601,0-2.911,1.31-2.911,2.911v9.983h-9.983c-1.601,0-2.91,1.31-2.91,2.911c0,1.602,1.31,2.912,2.91,2.912h9.983v9.983
					c0,1.602,1.311,2.911,2.911,2.911c1.602,0,2.911-1.31,2.911-2.911v-9.983h9.983c1.601,0,2.911-1.31,2.911-2.912
					C2722.158,906.033,2720.848,904.723,2719.247,904.723z"/>
			</g>
			<path style="fill:#EAF1F8;" d="M2717.689,1651.166h-59.203c-0.579,0-1.053-0.474-1.053-1.053v-59.203
				c0-0.579,0.474-1.053,1.053-1.053h59.203c0.579,0,1.054,0.474,1.054,1.053v59.203
				C2718.743,1650.692,2718.27,1651.166,2717.689,1651.166z"/>
			<path style="fill:#EAF1F8;" d="M2717.689,1817.389h-59.203c-0.579,0-1.053-0.474-1.053-1.053v-59.203
				c0-0.579,0.474-1.053,1.053-1.053h59.203c0.579,0,1.054,0.474,1.054,1.053v59.203
				C2718.743,1816.915,2718.27,1817.389,2717.689,1817.389z"/>
			<polygon style="fill:#D6716B;" points="2669.803,1784.124 2681.073,1808.839 2708.348,1765.735 2679.241,1790.215 			"/>
			<polygon style="fill:#D6716B;" points="2669.803,1617.349 2681.073,1642.063 2708.348,1598.96 2679.241,1623.439 			"/>
		</g>
	</g>
</g>
</svg>
