<svg width="2500" height="1438" viewBox="0 0 2500 1438" fill="none" xmlns="http://www.w3.org/2000/svg">
<path d="M2083.17 1431.68C2083.17 1431.68 2352.01 1481.06 2437.59 1294.27C2548.62 1051.95 2320.51 868.207 2145.57 902.439C1764.35 977.034 1856.15 154.103 1244.35 322.054C1072.32 369.28 607.516 88.738 477.884 538.563C447.058 645.529 337.843 657.308 179.299 725.181C-130.987 858.013 10.888 1433.93 232.6 1436.19C454.312 1438.45 2083.17 1431.68 2083.17 1431.68Z" fill="#D9E9FE"/>
<path d="M1293.64 957.308C1293.64 957.308 1367.86 657.036 1459.2 694.418C1550.55 731.803 1310.77 1031.52 1310.77 1031.52C1310.77 1031.52 1447.79 885.945 1530.57 954.453C1613.35 1022.96 1407.82 1248.47 1507.73 1294.14C1607.64 1339.81 1676.15 1269.96 1747.51 1323.44C1818.87 1376.92 1801.81 1432.67 1801.81 1432.67C1801.81 1432.67 1244.35 1433.88 1244.35 1432.67C1244.35 1431.46 1293.64 957.308 1293.64 957.308Z" fill="#869FE2"/>
<path d="M380.204 1431.46C380.204 1431.46 291.412 1339.54 360.637 1285.95C429.861 1232.37 511.682 1369.37 545.932 1337.03C580.182 1304.68 363.263 1144.84 427.958 1070.63C492.654 996.422 570.669 1099.17 574.474 1120.11C578.28 1141.04 574.474 1434.17 574.474 1434.17L380.204 1431.46Z" fill="#869FE2"/>
<path d="M2497.31 1436.87H41.0969C41.0459 1436.87 41.0039 1436.83 41.0039 1436.78V1431.56C41.0039 1431.51 41.0459 1431.46 41.0969 1431.46H2497.31C2497.36 1431.46 2497.4 1431.51 2497.4 1431.56V1436.78C2497.4 1436.83 2497.36 1436.87 2497.31 1436.87Z" fill="#2E3552"/>
<path d="M2221.35 1338.94C2221.35 1338.94 2240.96 1357.12 2237.13 1370.03C2233.3 1382.95 2215.61 1391.56 2213.21 1407.34C2210.82 1423.13 2201.26 1431.74 2192.65 1431.74C2184.04 1431.74 2151.6 1431.74 2151.6 1431.74C2151.6 1431.74 2145.27 1420.63 2160.57 1417.28C2175.88 1413.93 2181.65 1395.39 2180.69 1378.17C2179.73 1360.95 2182.13 1337.99 2182.13 1337.99L2214.65 1330.34L2221.35 1338.94Z" fill="#2C3A64"/>
<path d="M1976.93 1431.07C1976.62 1431.23 1976.19 1431.37 1975.64 1431.51H1865.86C1866.81 1427.63 1870.33 1420.24 1883.18 1418.15C1900.33 1415.37 1930.04 1405.41 1936.67 1383.49C1936.88 1382.78 1937.07 1382.05 1937.23 1381.32C1942.5 1357.89 1980.76 1388.5 1980.76 1388.5C1980.76 1388.5 1980.87 1389.44 1981.04 1391.02C1981.92 1399.62 1984.2 1427.44 1976.93 1431.07Z" fill="#2C3A64"/>
<path d="M1887.74 804.204C1887.74 804.204 1893.55 876.71 1900.38 963.865C1909.66 1082.26 1920.83 1227.69 1921.93 1255.24C1923.84 1303.08 1931.5 1379.6 1931.5 1379.6C1931.5 1379.6 1949.67 1397.78 1986.03 1390.12C1986.03 1390.12 2018.43 1280.88 2027.68 1165.3C2027.83 1163.4 2027.97 1161.49 2028.11 1159.59C2036.72 1041.92 2050.11 794.16 2050.11 794.16L1887.74 804.204Z" fill="#35488B"/>
<path d="M1887.74 804.204C1887.74 804.204 1893.55 876.71 1900.38 963.865L2027.68 1165.3C2027.83 1163.4 2027.97 1161.49 2028.12 1159.59C2036.73 1041.92 2050.11 794.16 2050.11 794.16L1887.74 804.204Z" fill="#2C3A64"/>
<path d="M1914.28 812.815C1914.28 812.815 2019.03 1075.4 2087.9 1198.8C2156.78 1322.2 2178.3 1356.64 2178.3 1356.64C2178.3 1356.64 2217.76 1340.86 2221.35 1330.1C2221.35 1330.1 2195.01 1091.86 2148.88 1033.79C2122.82 1000.97 2092.2 902.495 2090.77 868.058C2089.33 833.62 2081.44 765.462 2081.44 765.462L1914.28 812.815Z" fill="#35488B"/>
<path d="M1808.35 740.322L1802.36 752.256C1802.36 752.256 1771.92 756.511 1780.3 788.249C1780.3 788.249 1784.81 801.308 1793.21 797.176C1801.6 793.045 1797.47 793.394 1809.5 787.833C1821.53 782.272 1828.49 771.589 1825.8 761.788L1827.73 751.399L1808.35 740.322Z" fill="#A16D3C"/>
<path d="M1968 407.486C1963.34 379.987 1963.2 363.689 1963.2 363.689L2016.35 320.857C2014.37 379.752 2052.11 408.071 2052.11 408.071C2052.11 408.071 1981.29 442.932 1940.35 430.021C1940.35 430.021 1950.43 417.14 1968 407.486Z" fill="#935C2F"/>
<path d="M1950.68 362.717C1950.68 362.717 2018.29 373.949 2024.64 331.737C2030.99 289.525 2043.99 262.546 2001.09 253.589C1958.19 244.633 1947.36 259.477 1941.81 273.051C1936.27 286.625 1933.26 358.707 1950.68 362.717Z" fill="#A16D3C"/>
<path d="M2024.19 334.649C2024.19 334.649 2022.83 278.104 1961.22 269.029C1919.03 262.813 1944.58 227.553 1949.41 221.969C1949.41 221.969 1981.66 228.124 2014.68 235.37C2083.97 250.579 2031.52 326.241 2024.19 334.649Z" fill="#2C3A64"/>
<path d="M1815.44 756.911C1806.4 747.638 1799.69 735.563 1799.69 735.563C1799.69 735.563 1876.51 640.121 1882.76 630.223C1889 620.325 1935.65 461.572 1935.65 461.572L2053.63 437.672C2053.63 437.672 1955.15 640.841 1938.84 665.609C1911.88 706.536 1831.23 767.454 1831.23 767.454C1831.23 767.454 1822.54 764.194 1815.44 756.911Z" fill="#D6716B"/>
<path d="M1883.22 810.244C1884.45 811.266 1885.89 811.884 1887.52 811.884C1902.9 811.674 1947.72 820.212 1985.65 816.318C2017.62 813.248 2045.92 803.776 2076.31 790.154C2080.35 788.344 2089.63 783.387 2089.43 778.876C2089.29 773.937 2088.8 766.773 2088.18 757.752C2086.03 726.383 2082.28 672.428 2085.94 610.181C2086.6 598.59 2086.94 587.094 2086.98 575.774C2087.3 491.411 2070.57 417.208 2036.95 392.094C2034.08 390.037 2016.46 398.652 2000.26 406.64C1985.3 414.023 1970.33 414.837 1956.19 411.976L1942.06 424.475C1924.84 440.463 1905.98 462.193 1897.78 495.19C1890.8 523.269 1886.71 573.904 1884.46 626.377C1883.43 650.154 1882.61 674.14 1882.4 696.894V697.709C1882.2 699.964 1882.2 702.429 1882.2 704.684C1881.37 763.098 1882.2 809.419 1883.22 810.244Z" fill="#6D89D0"/>
<path d="M2088.18 757.751C2086.03 726.382 2082.28 672.427 2085.94 610.18C2086.6 598.589 2086.94 587.093 2086.98 575.773C2072.98 541.804 2061.53 517.171 2061.53 517.171H2026.24C2026.24 517.171 2000.36 693.917 2088.18 757.751Z" fill="#D6716B"/>
<path d="M2156.85 768.739L2163.55 780.286C2163.55 780.286 2150.42 808.084 2181.56 818.469C2181.56 818.469 2194.96 821.849 2196.11 812.562C2197.25 803.276 2195.28 806.927 2197.22 793.814C2199.16 780.702 2194.04 769.023 2184.37 765.902L2176.74 758.596L2156.85 768.739Z" fill="#A16D3C"/>
<path d="M2174.61 771.896C2161.9 774.374 2148.13 773.37 2148.13 773.37C2148.13 773.37 2110.39 656.808 2105.54 646.161C2100.68 635.514 1993.46 509.487 1993.46 509.487L2038.13 397.704C2038.13 397.704 2154.1 591.42 2165.87 618.64C2185.33 663.619 2192.09 764.467 2192.09 764.467C2192.09 764.467 2184.6 769.95 2174.61 771.896Z" fill="#6D89D0"/>
<path d="M1270 1431.46H541.494C534.369 1431.46 528.539 1425.63 528.539 1418.51V12.955C528.539 5.83002 534.369 0 541.494 0H1270C1277.12 0 1282.95 5.83002 1282.95 12.955V1418.51C1282.95 1425.63 1277.12 1431.46 1270 1431.46Z" fill="#2E49D3"/>
<path d="M1343.13 1431.46H614.622C607.497 1431.46 601.667 1425.63 601.667 1418.51V12.955C601.667 5.83002 607.497 0 614.622 0H1343.13C1350.25 0 1356.08 5.83002 1356.08 12.955V1418.51C1356.08 1425.63 1350.25 1431.46 1343.13 1431.46Z" fill="#3A63CD"/>
<path d="M1327.51 114.451H628.649V1274.39H1327.51V114.451Z" fill="#D9E9FE"/>
<path d="M1089.43 54.1851H893.325C889.128 54.1851 885.694 57.6191 885.694 61.8151C885.694 66.0121 889.128 69.4451 893.325 69.4451H1089.43C1093.63 69.4451 1097.07 66.0121 1097.07 61.8151C1097.07 57.6181 1093.63 54.1851 1089.43 54.1851Z" fill="#FF9591"/>
<path d="M858.494 54.1851C854.297 54.1851 850.863 57.6191 850.863 61.8151C850.863 66.0121 854.297 69.4451 858.494 69.4451C862.69 69.4451 866.124 66.0121 866.124 61.8151C866.124 57.6181 862.69 54.1851 858.494 54.1851Z" fill="#FF9591"/>
<path d="M1005.68 1390.14C1020.93 1374.88 1020.93 1350.15 1005.68 1334.89C990.417 1319.63 965.677 1319.63 950.419 1334.89C935.16 1350.15 935.16 1374.88 950.419 1390.14C965.677 1405.4 990.417 1405.4 1005.68 1390.14Z" fill="#2E49D3"/>
<path d="M1797.6 1430.73C1736.75 1437.35 1681.56 1392.97 1674.95 1332.12L1566.84 337.038C1560.23 276.19 1604.6 220.997 1665.45 214.386C1726.29 207.775 1781.49 252.15 1788.1 312.998L1896.21 1308.08C1902.82 1368.93 1858.45 1424.12 1797.6 1430.73Z" fill="#C7E1FF"/>
<path d="M1698.41 266.942C1699.73 279.182 1690.81 290.286 1678.56 291.618C1666.33 292.948 1655.23 284.021 1653.9 271.783L1643.79 178.709L1627.76 31.2088C1626.43 18.9708 1635.36 7.86483 1647.6 6.53483L1647.75 6.51883C1659.93 5.28083 1670.94 14.1779 1672.27 26.3689L1688.33 174.183L1698.41 266.942Z" fill="#C7E1FF"/>
<path d="M1688.65 174.15L1644.11 178.676L1628.08 31.1759C1626.75 18.9369 1635.68 7.83189 1647.92 6.50089L1648.07 6.48588C1660.25 5.24788 1671.27 14.1449 1672.59 26.3359L1688.65 174.15Z" fill="#D6716B"/>
<path d="M1867.35 1053.37L1645.06 1075.96L1657.44 1197.78L1879.72 1175.19L1867.35 1053.37Z" fill="#D6716B"/>
<path d="M1708.62 359.67L1661 364.509L1661.28 367.282L1708.9 362.443L1708.62 359.67Z" fill="#35488B"/>
<path d="M1710.36 376.795L1662.74 381.634L1663.02 384.406L1710.64 379.567L1710.36 376.795Z" fill="#35488B"/>
<path d="M1712.1 393.911L1664.48 398.75L1664.76 401.523L1712.38 396.684L1712.1 393.911Z" fill="#35488B"/>
<path d="M1713.84 411.006L1666.22 415.845L1666.51 418.618L1714.12 413.779L1713.84 411.006Z" fill="#35488B"/>
<path d="M1715.58 428.152L1667.96 432.991L1668.24 435.763L1715.86 430.925L1715.58 428.152Z" fill="#35488B"/>
<path d="M1758.22 441.789L1628.94 454.926L1629.52 460.64L1758.8 447.502L1758.22 441.789Z" fill="#35488B"/>
<path d="M1719.42 466.014L1671.8 470.853L1672.09 473.625L1719.7 468.786L1719.42 466.014Z" fill="#35488B"/>
<path d="M1721.17 483.095L1673.55 487.934L1673.83 490.706L1721.45 485.867L1721.17 483.095Z" fill="#35488B"/>
<path d="M1722.9 500.247L1675.28 505.086L1675.56 507.859L1723.18 503.02L1722.9 500.247Z" fill="#35488B"/>
<path d="M1724.65 517.322L1677.03 522.161L1677.31 524.933L1724.93 520.094L1724.65 517.322Z" fill="#35488B"/>
<path d="M1726.38 534.467L1678.77 539.306L1679.05 542.078L1726.67 537.239L1726.38 534.467Z" fill="#35488B"/>
<path d="M1731.59 585.682L1683.97 590.521L1684.25 593.294L1731.87 588.455L1731.59 585.682Z" fill="#35488B"/>
<path d="M1733.34 602.764L1685.72 607.603L1686 610.375L1733.62 605.536L1733.34 602.764Z" fill="#35488B"/>
<path d="M1735.06 619.918L1687.45 624.757L1687.73 627.529L1735.35 622.69L1735.06 619.918Z" fill="#35488B"/>
<path d="M1736.82 636.969L1689.2 641.807L1689.49 644.579L1737.1 639.74L1736.82 636.969Z" fill="#35488B"/>
<path d="M1738.54 654.15L1690.93 658.989L1691.21 661.762L1738.83 656.923L1738.54 654.15Z" fill="#35488B"/>
<path d="M1781.19 667.78L1651.91 680.918L1652.49 686.632L1781.77 673.494L1781.19 667.78Z" fill="#35488B"/>
<path d="M1743.83 706.207L1696.21 711.046L1696.49 713.819L1744.11 708.98L1743.83 706.207Z" fill="#35488B"/>
<path d="M1745.57 723.325L1697.95 728.164L1698.23 730.936L1745.85 726.097L1745.57 723.325Z" fill="#35488B"/>
<path d="M1747.31 740.434L1699.69 745.273L1699.97 748.046L1747.59 743.207L1747.31 740.434Z" fill="#35488B"/>
<path d="M1749.05 757.559L1701.43 762.397L1701.71 765.169L1749.33 760.33L1749.05 757.559Z" fill="#35488B"/>
<path d="M1750.79 774.675L1703.17 779.514L1703.45 782.287L1751.07 777.448L1750.79 774.675Z" fill="#35488B"/>
<path d="M1793.43 788.325L1664.14 801.462L1664.73 807.177L1794.01 794.04L1793.43 788.325Z" fill="#35488B"/>
<path d="M1755.92 825.178L1708.3 830.017L1708.58 832.789L1756.2 827.95L1755.92 825.178Z" fill="#35488B"/>
<path d="M1757.66 842.295L1710.04 847.134L1710.32 849.907L1757.94 845.068L1757.66 842.295Z" fill="#35488B"/>
<path d="M1759.4 859.411L1711.78 864.25L1712.06 867.023L1759.68 862.184L1759.4 859.411Z" fill="#35488B"/>
<path d="M1761.14 876.53L1713.52 881.369L1713.8 884.141L1761.42 879.302L1761.14 876.53Z" fill="#35488B"/>
<path d="M1762.88 893.637L1715.26 898.476L1715.54 901.249L1763.16 896.41L1762.88 893.637Z" fill="#35488B"/>
<path d="M1805.52 907.29L1676.24 920.428L1676.82 926.143L1806.1 913.005L1805.52 907.29Z" fill="#35488B"/>
<path d="M1768.31 947.08L1720.69 951.919L1720.97 954.692L1768.59 949.853L1768.31 947.08Z" fill="#35488B"/>
<path d="M1770.05 964.199L1722.43 969.038L1722.71 971.811L1770.33 966.972L1770.05 964.199Z" fill="#35488B"/>
<path d="M1771.79 981.307L1724.17 986.146L1724.45 988.919L1772.07 984.08L1771.79 981.307Z" fill="#35488B"/>
<path d="M1773.53 998.431L1725.91 1003.27L1726.19 1006.04L1773.81 1001.2L1773.53 998.431Z" fill="#35488B"/>
<path d="M1775.27 1015.55L1727.65 1020.39L1727.93 1023.16L1775.55 1018.32L1775.27 1015.55Z" fill="#35488B"/>
<path d="M1817.91 1029.2L1688.62 1042.34L1689.2 1048.05L1818.49 1034.91L1817.91 1029.2Z" fill="#35488B"/>
<path opacity="0.1" d="M1793.37 1431.17C1747.52 1435.82 1706.2 1402.13 1701.54 1356.28L1594.79 305.781C1590.14 259.936 1623.83 218.616 1669.68 213.956C1715.52 209.298 1756.84 242.995 1761.5 288.84L1868.25 1339.34C1872.91 1385.19 1839.21 1426.51 1793.37 1431.17Z" fill="#35488B"/>
<path d="M1744.63 553.456C1744.3 550.223 1746.65 547.335 1749.89 547.007C1753.12 546.678 1756.01 549.033 1756.34 552.266C1756.67 555.499 1754.31 558.387 1751.08 558.715C1747.84 559.044 1744.96 556.69 1744.63 553.456Z" fill="#D6716B"/>
<path d="M1726.01 552.477L1645.94 560.615L1646.52 566.329L1726.59 558.192L1726.01 552.477Z" fill="#D6716B"/>
<path d="M1681.94 272.214L1766.59 1105.21C1766.94 1108.66 1764.4 1111.77 1760.95 1112.12C1757.49 1112.48 1754.38 1109.93 1754.03 1106.49L1669.38 273.49C1669.03 270.033 1671.57 266.926 1675.03 266.575C1676.75 266.4 1678.4 266.945 1679.64 267.963C1680.9 268.99 1681.77 270.49 1681.94 272.214Z" fill="#35488B"/>
<path d="M1681.94 272.214L1708.94 537.918L1696.38 539.194L1669.38 273.49C1669.03 270.033 1671.57 266.926 1675.03 266.575C1676.75 266.4 1678.4 266.945 1679.64 267.963C1680.9 268.99 1681.77 270.49 1681.94 272.214Z" fill="#D6716B"/>
<path opacity="0.3" d="M629.445 881.337C629.445 881.337 676.312 768.421 768.088 781.794C859.864 795.167 1021.84 791.303 1128.97 725.604C1236.1 659.905 1328.3 690.822 1328.3 690.822V1274.39H629.446L629.445 881.337Z" fill="#7DABBD"/>
<path d="M160.159 893.091C160.159 893.091 409.428 894.373 576.166 970.255C576.166 970.255 551.211 1370.3 276.401 1431.46C276.401 1431.46 43.0738 1292.79 160.159 893.091Z" fill="white"/>
<path d="M183.316 923.177C183.316 923.177 409.857 935.56 539.758 988.859C539.758 988.859 526.313 1315.02 286.181 1392.26C286.181 1392.26 96.5089 1298.67 183.316 923.177Z" fill="#2E49D3"/>
<path d="M432.725 1110.93L366.411 1098.71L378.329 1034.04L317.593 1022.84L305.675 1087.52L242.636 1075.9L231.444 1136.64L294.483 1148.26L282.565 1212.93L343.301 1224.12L355.219 1159.45L421.532 1171.67L432.725 1110.93Z" fill="white"/>
<mask id="mask0_139_311" style="mask-type:luminance" maskUnits="userSpaceOnUse" x="629" y="114" width="700" height="1161">
<path d="M1328.3 114.451H629.445V1274.39H1328.3V114.451Z" fill="white"/>
</mask>
<g mask="url(#mask0_139_311)">
<path d="M917.965 616.515C878.938 628.826 811.404 595.59 811.404 595.59C811.404 595.59 841.853 572.74 845.261 525.338C845.319 524.687 845.357 524.036 845.385 523.376C845.586 519.863 845.634 516.206 845.51 512.425L856.193 521.031L896.177 553.271C896.177 553.271 894.128 569.162 893.306 595.648C899.643 599.123 904.716 602.961 908.564 606.379C914.911 612.007 917.965 616.515 917.965 616.515Z" fill="#F4AC75"/>
<path d="M768.088 590.535C768.088 590.535 871.246 574.262 939.211 619.253C939.211 619.253 985.384 921.101 945.18 949.661C904.975 978.221 768.088 949.661 768.088 949.661V590.535Z" fill="#F4AC75"/>
<path d="M905.751 1274.39H719.336C719.336 1274.39 740.998 956.301 747.182 878.868C752.208 816.062 762.833 665.478 766.672 610.809C767.562 598.068 768.088 590.535 768.088 590.535L812.591 582.953L889.028 682.019C889.028 682.019 901.118 946.21 900.677 987.851C900.246 1029.49 905.502 1191.73 905.751 1219.02C905.99 1246.29 905.751 1274.39 905.751 1274.39Z" fill="#E9F2FF"/>
<path d="M889.032 682.024L905.746 1274.39H993.574C993.574 1274.39 989.511 884.787 989.213 848.992C988.915 813.197 998.757 659.001 971.349 635.069C948.438 615.064 893.307 595.642 893.307 595.642L889.032 682.024Z" fill="#E9F2FF"/>
<path d="M893.87 581.973C893.87 581.973 918.908 599.224 917.968 605.418C917.028 611.612 913.59 621.406 913.59 621.406L898.275 618.296L911.198 627.389C911.198 627.389 896.542 670.128 889.033 682.024L893.87 581.973Z" fill="#E9F2FF"/>
<path opacity="0.2" d="M756.173 758.422C767.131 691.047 893.808 790.61 883.277 878.979C863.796 1042.47 780.839 1224.76 719.336 1274.39L756.173 758.422Z" fill="#B2CBFD"/>
<path d="M845.262 525.337C845.09 524.123 844.698 523.527 844.698 523.527L845.386 523.374L856.194 521.029L896.178 553.269C896.178 553.269 894.449 568.28 893.211 595.716C893.107 595.579 852.007 572.826 845.262 525.337Z" fill="#C97C47"/>
<path d="M912.469 563.064C912.469 563.064 842.856 561.115 844.737 517.783C846.618 474.45 838.899 445.014 883.425 444.427C927.95 443.839 935.863 460.749 938.753 475.365C941.643 489.98 930.625 562.454 912.469 563.064Z" fill="#F4AC75"/>
<path d="M844.698 523.527C844.698 523.527 853.761 525.92 860.941 516.348C868.121 506.776 880.086 469.921 895.88 467.528C911.675 465.135 932.495 476.861 939.21 470.161C948.996 460.395 961.621 444.411 961.621 444.411C961.621 444.411 883.276 388.556 852.006 414.401C820.737 440.247 809.79 478.059 844.698 523.527Z" fill="#2C3A64"/>
<path d="M938.718 678.283C937.25 651.446 922.601 607.72 922.474 607.299L926.651 609.154C927.177 610.9 938.82 650.81 940.319 678.222L938.718 678.283Z" fill="#2C3A64"/>
<path d="M837.332 758.422C835.863 756.897 800.027 722.428 807.67 698.283C810.649 688.872 816.132 685.175 821.951 682.431C827.378 680.456 840.04 678.395 846.583 682.51C858.522 690.022 864.54 710.782 866.311 745.308L864.856 745.382C862.756 704.43 852.196 689.602 844.309 686.259C834.392 682.057 816.996 683.8 811.524 699.66C807.753 710.588 815.151 725.866 822.014 736.354C829.636 748.003 837.942 758.331 838.028 758.42H837.332V758.422Z" fill="#2C3A64"/>
<path d="M841.055 762.145C839.682 763.518 837.436 763.518 836.063 762.145L833.61 759.691C832.237 758.318 832.237 756.072 833.61 754.699C834.982 753.327 837.229 753.327 838.602 754.699L841.055 757.154C842.428 758.525 842.428 760.772 841.055 762.145Z" fill="#6D89D0"/>
<path d="M865.715 751.901C863.774 751.901 862.185 750.313 862.185 748.371V744.902C862.185 742.96 863.774 741.372 865.715 741.372C867.656 741.372 869.244 742.96 869.244 744.902V748.371C869.244 750.313 867.656 751.901 865.715 751.901Z" fill="#6D89D0"/>
<path d="M929.639 678.283C929.639 672.996 933.924 668.71 939.211 668.71C944.497 668.71 948.783 672.996 948.783 678.283C948.783 683.569 944.497 687.855 939.211 687.855C933.924 687.856 929.639 683.569 929.639 678.283Z" fill="#2C3A64"/>
<path d="M934.704 678.283C934.704 675.595 936.883 673.417 939.569 673.417C942.257 673.417 944.435 675.596 944.435 678.283C944.435 680.97 942.256 683.149 939.569 683.149C936.883 683.15 934.704 680.97 934.704 678.283Z" fill="#D6716B"/>
<path d="M895.829 1274.39C895.767 1273.79 889.736 1214.12 891.476 1162.26C892.21 1140.35 891.589 1114.59 890.99 1089.68C890.134 1054.14 888.223 1019.92 891.094 997.606C896.008 959.421 895.027 785.849 893.012 767.04C891.046 748.701 892.925 728.581 894.743 722.517C896.597 716.336 888.656 682.488 888.567 682.143L889.494 681.904C889.86 683.321 898.43 716.658 896.498 723.093C894.698 729.095 892.013 748.735 893.963 766.937C895.981 785.766 899.841 959.304 894.923 997.527C892.062 1019.77 891.091 1054.16 891.946 1089.65C892.547 1114.58 893.168 1140.36 892.432 1162.3C890.694 1214.09 899.488 1273.79 899.549 1274.39H895.829V1274.39Z" fill="#B2CBFD"/>
<path d="M1050.2 797.897C1050.2 797.897 1073.78 838.5 1049.05 849.182C1024.32 859.866 1021.65 848.608 1021.65 848.608L1050.2 797.897Z" fill="#E9F2FF"/>
<path d="M852.565 822.907C852.565 822.907 856.315 830.556 855.893 837.425C855.451 844.61 852.086 855.454 852.086 855.454C852.086 855.454 706.469 886.45 678.173 860.537C647.79 832.719 704.162 623.704 728.285 603.257C738.681 594.441 760.601 589.061 780.838 585.844C791.99 584.064 802.625 582.944 810.541 582.264C818.697 581.556 823.981 581.326 823.981 581.326L820.698 593.463L807.927 640.655L793.042 695.697C793.042 695.697 748.53 787.316 747.094 795.93C745.66 804.548 852.565 822.907 852.565 822.907Z" fill="#E9F2FF"/>
<path opacity="0.2" d="M872.833 667.382C872.833 667.382 835.698 651.215 809.011 636.484C791.586 626.865 782.667 608.857 780.839 585.845C791.991 584.065 802.626 582.945 810.542 582.265C811.825 582.676 812.591 582.954 812.591 582.954L820.699 593.464L872.833 667.382Z" fill="#B2CBFD"/>
<path d="M889.032 682.024L831.195 571.728C831.195 571.728 809.621 576.102 802.378 582.892C802.378 582.892 806.06 616.063 808.931 623.402C808.931 623.402 820.099 622.126 821.695 623.083C821.695 623.083 816.27 631.38 814.674 632.337C814.674 632.335 864.952 655.769 889.032 682.024Z" fill="#E9F2FF"/>
<path d="M822.113 686.26C818.161 677.529 783.33 603.141 792.198 584.213L795.603 583.791C788.886 598.13 813.029 662.795 823.514 685.962L822.113 686.26Z" fill="#2C3A64"/>
<path opacity="0.5" d="M898.869 750.657C898.869 748.093 900.948 746.014 903.513 746.014C906.078 746.014 908.156 748.092 908.156 750.657C908.156 753.222 906.078 755.301 903.513 755.301C900.948 755.301 898.869 753.222 898.869 750.657Z" fill="#B2CBFD"/>
<path opacity="0.5" d="M898.869 1010.77C898.869 1008.2 900.948 1006.12 903.513 1006.12C906.078 1006.12 908.156 1008.2 908.156 1010.77C908.156 1013.33 906.078 1015.41 903.513 1015.41C900.948 1015.41 898.869 1013.33 898.869 1010.77Z" fill="#B2CBFD"/>
<path opacity="0.5" d="M901.214 891.894C901.214 889.331 903.293 887.251 905.857 887.251C908.421 887.251 910.501 889.33 910.501 891.894C910.501 894.458 908.422 896.538 905.857 896.538C903.293 896.537 901.214 894.458 901.214 891.894Z" fill="#B2CBFD"/>
<path opacity="0.5" d="M901.214 1123.79C901.214 1121.22 903.293 1119.14 905.857 1119.14C908.421 1119.14 910.501 1121.22 910.501 1123.79C910.501 1126.35 908.422 1128.43 905.857 1128.43C903.293 1128.43 901.214 1126.35 901.214 1123.79Z" fill="#B2CBFD"/>
<path d="M849.848 607.299C849.848 607.299 865.942 615.219 891.955 610.319L889.032 682.024L849.848 607.299Z" fill="#7A97F3"/>
<path d="M951.524 692.132L1102.13 705.625L1010.23 868.871L868.478 860.732L951.524 692.132Z" fill="#D6716B"/>
<path d="M965.4 691.379C965.4 691.379 965.466 668.306 978.219 669.9C990.972 671.494 994.823 694.675 994.823 694.675L965.4 691.379Z" fill="#B2CBFD"/>
<path d="M1101.15 703.566L950.542 690.072L867.493 858.672L868.511 860.765L951.56 692.167L1102.16 705.659L1101.15 703.566Z" fill="#6D89D0"/>
<path d="M978.219 669.901C978.219 669.901 999.5 680.349 991.98 713.828C984.459 747.305 975.089 765.67 980.549 785.472L1082 794.785C1082 794.785 1070.98 768.46 1083.23 741.814C1095.47 715.169 1086.77 684.719 1075.53 682.069L978.219 669.901Z" fill="#E9F2FF"/>
<path d="M1028.89 838.484C1028.89 838.484 1013.46 819.952 1016.65 806.55C1019.84 793.148 1031.33 790.049 1038.35 794.789C1045.37 799.529 1055.58 810.378 1053.67 818.675C1051.75 826.971 1036.65 842.338 1028.89 838.484Z" fill="#F4AC75"/>
<path d="M844.865 827.454C844.865 827.454 870.992 815.967 882.958 819.317C894.924 822.667 911.065 825.061 912.328 829.368C913.59 833.677 903.721 849.624 889.032 850.428C874.343 851.233 848.497 858.087 842.275 850.428C836.053 842.771 844.865 827.454 844.865 827.454Z" fill="#F4AC75"/>
</g>
<path d="M1414.66 310.089H1052.66C1044.18 310.089 1037.25 317.021 1037.25 325.493V482.104C1037.25 490.576 1044.18 497.508 1052.66 497.508H1073.2V538.586L1137.23 497.508H1414.66C1423.13 497.508 1430.06 490.576 1430.06 482.104V325.493C1430.06 317.021 1423.13 310.089 1414.66 310.089Z" fill="#849CD9"/>
<g opacity="0.4">
<path d="M1378.71 372.99H1088.6C1082.95 372.99 1078.33 368.368 1078.33 362.72C1078.33 357.072 1082.95 352.45 1088.6 352.45H1378.71C1384.36 352.45 1388.99 357.072 1388.99 362.72C1388.98 368.369 1384.36 372.99 1378.71 372.99Z" fill="#3A63CD"/>
<path d="M1378.71 410.217H1088.6C1082.95 410.217 1078.33 405.596 1078.33 399.948C1078.33 394.3 1082.95 389.678 1088.6 389.678H1378.71C1384.36 389.678 1388.99 394.299 1388.99 399.948C1388.98 405.596 1384.36 410.217 1378.71 410.217Z" fill="#3A63CD"/>
<path d="M1378.71 447.444H1088.6C1082.95 447.444 1078.33 442.822 1078.33 437.174C1078.33 431.526 1082.95 426.904 1088.6 426.904H1378.71C1384.36 426.904 1388.99 431.525 1388.99 437.174C1388.98 442.823 1384.36 447.444 1378.71 447.444Z" fill="#3A63CD"/>
</g>
<path d="M2442.41 69H2080.4C2071.93 69 2065 75.9319 2065 84.4039V241.015C2065 249.487 2071.93 256.419 2080.4 256.419H2100.94V297.497L2164.98 256.419H2442.41C2450.88 256.419 2457.81 249.487 2457.81 241.015V84.4039C2457.81 75.9319 2450.88 69 2442.41 69Z" fill="#849CD9"/>
<g opacity="0.4">
<path d="M2406.46 131.901H2116.35C2110.7 131.901 2106.08 127.279 2106.08 121.631C2106.08 115.983 2110.7 111.361 2116.35 111.361H2406.46C2412.11 111.361 2416.73 115.983 2416.73 121.631C2416.73 127.28 2412.11 131.901 2406.46 131.901Z" fill="#3A63CD"/>
<path d="M2406.46 169.128H2116.35C2110.7 169.128 2106.08 164.507 2106.08 158.859C2106.08 153.211 2110.7 148.589 2116.35 148.589H2406.46C2412.11 148.589 2416.73 153.21 2416.73 158.859C2416.73 164.507 2412.11 169.128 2406.46 169.128Z" fill="#3A63CD"/>
<path d="M2406.46 206.355H2116.35C2110.7 206.355 2106.08 201.733 2106.08 196.085C2106.08 190.437 2110.7 185.815 2116.35 185.815H2406.46C2412.11 185.815 2416.73 190.436 2416.73 196.085C2416.73 201.734 2412.11 206.355 2406.46 206.355Z" fill="#3A63CD"/>
</g>
<path d="M957.986 315.893H683.132C681.722 315.893 680.568 314.739 680.568 313.329V169.134C680.568 167.724 681.722 166.57 683.132 166.57H957.986C959.396 166.57 960.55 167.724 960.55 169.134V313.329C960.551 314.739 959.397 315.893 957.986 315.893Z" fill="#EAF1F8"/>
<path d="M1271.16 316.323H993.564C992.154 316.323 991 315.169 991 313.759V169.564C991 168.154 992.153 167 993.564 167H1271.16C1272.57 167 1273.73 168.154 1273.73 169.564V313.759C1273.73 315.169 1272.57 316.323 1271.16 316.323Z" fill="#EAF1F8"/>
<path d="M791.819 201.034C771.618 197.596 760.74 218.657 760.74 218.657C760.74 218.657 749.862 197.596 729.661 201.034C709.46 204.472 703.632 224.675 709.071 238.859C714.509 253.043 760.74 290.438 760.74 290.438C760.74 290.438 806.97 253.043 812.409 238.859C817.849 224.675 812.021 204.472 791.819 201.034Z" fill="#D6716B"/>
<path d="M771.409 256.416L773.293 240.593H756.761V231.758L748.146 256.328V239.091H739.394L733.783 255.454L729.569 230.469L723.206 243.141L722.351 242.711L730.027 227.425L734.101 251.578L738.71 238.133H749.103V250.705L757.718 226.136V239.636H774.371L773.064 250.617L784.202 226.793V239.237H794.173V246L798.28 236.416L799.16 236.793L793.217 250.663V240.195H783.245V231.101L771.409 256.416Z" fill="#EAF1F8"/>
<path d="M931.319 215.094H837.789C835.254 215.094 833.181 213.021 833.181 210.487C833.181 207.953 835.254 205.879 837.789 205.879H931.319C933.852 205.879 935.925 207.952 935.925 210.487C935.926 213.021 933.853 215.094 931.319 215.094Z" fill="#B2CBFD"/>
<path d="M931.319 234.172H837.789C835.254 234.172 833.181 232.099 833.181 229.565C833.181 227.031 835.254 224.957 837.789 224.957H931.319C933.852 224.957 935.925 227.031 935.925 229.565C935.926 232.098 933.853 234.172 931.319 234.172Z" fill="#B2CBFD"/>
<path d="M931.319 255.378H837.789C835.254 255.378 833.181 253.305 833.181 250.771C833.181 248.237 835.254 246.164 837.789 246.164H931.319C933.852 246.164 935.925 248.237 935.925 250.771C935.926 253.305 933.853 255.378 931.319 255.378Z" fill="#B2CBFD"/>
<path d="M931.319 276.584H837.789C835.254 276.584 833.181 274.511 833.181 271.977C833.181 269.443 835.254 267.37 837.789 267.37H931.319C933.852 267.37 935.925 269.443 935.925 271.977C935.926 274.511 933.853 276.584 931.319 276.584Z" fill="#B2CBFD"/>
<path d="M1227.11 215.094H1133.58C1131.04 215.094 1128.97 213.021 1128.97 210.487C1128.97 207.953 1131.04 205.879 1133.58 205.879H1227.11C1229.64 205.879 1231.71 207.952 1231.71 210.487C1231.72 213.021 1229.64 215.094 1227.11 215.094Z" fill="#B2CBFD"/>
<path d="M1227.11 234.172H1133.58C1131.04 234.172 1128.97 232.099 1128.97 229.565C1128.97 227.031 1131.04 224.957 1133.58 224.957H1227.11C1229.64 224.957 1231.71 227.031 1231.71 229.565C1231.72 232.098 1229.64 234.172 1227.11 234.172Z" fill="#B2CBFD"/>
<path d="M1227.11 255.378H1133.58C1131.04 255.378 1128.97 253.305 1128.97 250.771C1128.97 248.237 1131.04 246.164 1133.58 246.164H1227.11C1229.64 246.164 1231.71 248.237 1231.71 250.771C1231.72 253.305 1229.64 255.378 1227.11 255.378Z" fill="#B2CBFD"/>
<path d="M1227.11 276.584H1133.58C1131.04 276.584 1128.97 274.511 1128.97 271.977C1128.97 269.443 1131.04 267.37 1133.58 267.37H1227.11C1229.64 267.37 1231.71 269.443 1231.71 271.977C1231.72 274.511 1229.64 276.584 1227.11 276.584Z" fill="#B2CBFD"/>
<path d="M1263.69 1111.17H1108.58C1104.38 1111.17 1100.94 1114.61 1100.94 1118.81C1100.94 1123.01 1104.38 1126.45 1108.58 1126.45H1263.69C1267.89 1126.45 1271.33 1123.01 1271.33 1118.81C1271.33 1114.61 1267.89 1111.17 1263.69 1111.17Z" fill="#EAF1F8"/>
<path d="M1263.69 1142.81H1108.58C1104.38 1142.81 1100.94 1146.24 1100.94 1150.45C1100.94 1154.65 1104.38 1158.09 1108.58 1158.09H1263.69C1267.89 1158.09 1271.33 1154.65 1271.33 1150.45C1271.33 1146.24 1267.89 1142.81 1263.69 1142.81Z" fill="#EAF1F8"/>
<path d="M1263.69 1177.98H1108.58C1104.38 1177.98 1100.94 1181.41 1100.94 1185.62C1100.94 1189.82 1104.38 1193.26 1108.58 1193.26H1263.69C1267.89 1193.26 1271.33 1189.82 1271.33 1185.62C1271.33 1181.41 1267.89 1177.98 1263.69 1177.98Z" fill="#EAF1F8"/>
<path d="M1263.69 1213.14H1108.58C1104.38 1213.14 1100.94 1216.58 1100.94 1220.79C1100.94 1224.99 1104.38 1228.43 1108.58 1228.43H1263.69C1267.89 1228.43 1271.33 1224.99 1271.33 1220.79C1271.33 1216.58 1267.89 1213.14 1263.69 1213.14Z" fill="#EAF1F8"/>
<path d="M1263.69 944.946H1108.58C1104.38 944.946 1100.94 948.384 1100.94 952.586C1100.94 956.789 1104.38 960.228 1108.58 960.228H1263.69C1267.89 960.228 1271.33 956.79 1271.33 952.586C1271.33 948.385 1267.89 944.946 1263.69 944.946Z" fill="#EAF1F8"/>
<path d="M1263.69 976.584H1108.58C1104.38 976.584 1100.94 980.022 1100.94 984.225C1100.94 988.428 1104.38 991.866 1108.58 991.866H1263.69C1267.89 991.866 1271.33 988.428 1271.33 984.225C1271.33 980.023 1267.89 976.584 1263.69 976.584Z" fill="#EAF1F8"/>
<path d="M1263.69 1011.75H1108.58C1104.38 1011.75 1100.94 1015.19 1100.94 1019.39C1100.94 1023.6 1104.38 1027.04 1108.58 1027.04H1263.69C1267.89 1027.04 1271.33 1023.6 1271.33 1019.39C1271.33 1015.19 1267.89 1011.75 1263.69 1011.75Z" fill="#EAF1F8"/>
<path d="M1263.69 1046.92H1108.58C1104.38 1046.92 1100.94 1050.36 1100.94 1054.56C1100.94 1058.76 1104.38 1062.2 1108.58 1062.2H1263.69C1267.89 1062.2 1271.33 1058.77 1271.33 1054.56C1271.33 1050.36 1267.89 1046.92 1263.69 1046.92Z" fill="#EAF1F8"/>
<path d="M1036.92 260.928C1034.75 271.05 1036.99 288.394 1059.64 295.532C1082.28 302.67 1098.97 284.924 1100.87 267.424C1102.76 249.924 1066.57 185.312 1066.57 185.312C1066.57 185.312 1041.25 240.649 1036.92 260.928Z" fill="#D6716B"/>
<path d="M1081.5 259.812H1071.52V249.829C1071.52 248.228 1070.21 246.918 1068.6 246.918C1067 246.918 1065.69 248.228 1065.69 249.829V259.812H1055.71C1054.11 259.812 1052.8 261.122 1052.8 262.723C1052.8 264.325 1054.11 265.635 1055.71 265.635H1065.69V275.618C1065.69 277.22 1067 278.529 1068.6 278.529C1070.21 278.529 1071.52 277.219 1071.52 275.618V265.635H1081.5C1083.1 265.635 1084.41 264.325 1084.41 262.723C1084.41 261.122 1083.1 259.812 1081.5 259.812Z" fill="#EAF1F8"/>
<path d="M1079.94 1006.26H1020.74C1020.16 1006.26 1019.69 1005.78 1019.69 1005.2V945.999C1019.69 945.42 1020.16 944.946 1020.74 944.946H1079.94C1080.52 944.946 1080.99 945.42 1080.99 945.999V1005.2C1080.99 1005.78 1080.52 1006.26 1079.94 1006.26Z" fill="#EAF1F8"/>
<path d="M1079.94 1172.48H1020.74C1020.16 1172.48 1019.69 1172 1019.69 1171.43V1112.22C1019.69 1111.64 1020.16 1111.17 1020.74 1111.17H1079.94C1080.52 1111.17 1080.99 1111.64 1080.99 1112.22V1171.43C1080.99 1172 1080.52 1172.48 1079.94 1172.48Z" fill="#EAF1F8"/>
<path d="M1032.05 1139.21L1043.32 1163.93L1070.6 1120.82L1041.49 1145.3L1032.05 1139.21Z" fill="#D6716B"/>
<path d="M1032.05 972.438L1043.32 997.152L1070.6 954.049L1041.49 978.528L1032.05 972.438Z" fill="#D6716B"/>
</svg>
